%TF.GenerationSoftware,KiCad,Pcbnew,8.0.4*%
%TF.CreationDate,2025-09-19T21:13:21+01:00*%
%TF.ProjectId,av-connector-breakout,61762d63-6f6e-46e6-9563-746f722d6272,rev?*%
%TF.SameCoordinates,Original*%
%TF.FileFunction,Legend,Top*%
%TF.FilePolarity,Positive*%
%FSLAX46Y46*%
G04 Gerber Fmt 4.6, Leading zero omitted, Abs format (unit mm)*
G04 Created by KiCad (PCBNEW 8.0.4) date 2025-09-19 21:13:21*
%MOMM*%
%LPD*%
G01*
G04 APERTURE LIST*
G04 Aperture macros list*
%AMRoundRect*
0 Rectangle with rounded corners*
0 $1 Rounding radius*
0 $2 $3 $4 $5 $6 $7 $8 $9 X,Y pos of 4 corners*
0 Add a 4 corners polygon primitive as box body*
4,1,4,$2,$3,$4,$5,$6,$7,$8,$9,$2,$3,0*
0 Add four circle primitives for the rounded corners*
1,1,$1+$1,$2,$3*
1,1,$1+$1,$4,$5*
1,1,$1+$1,$6,$7*
1,1,$1+$1,$8,$9*
0 Add four rect primitives between the rounded corners*
20,1,$1+$1,$2,$3,$4,$5,0*
20,1,$1+$1,$4,$5,$6,$7,0*
20,1,$1+$1,$6,$7,$8,$9,0*
20,1,$1+$1,$8,$9,$2,$3,0*%
G04 Aperture macros list end*
%ADD10C,0.100000*%
%ADD11C,0.120000*%
%ADD12R,1.000000X1.000000*%
%ADD13RoundRect,0.117500X0.117500X1.332500X-0.117500X1.332500X-0.117500X-1.332500X0.117500X-1.332500X0*%
G04 APERTURE END LIST*
D10*
X172503884Y-94472419D02*
X172503884Y-93472419D01*
X172503884Y-93472419D02*
X172884836Y-93472419D01*
X172884836Y-93472419D02*
X172980074Y-93520038D01*
X172980074Y-93520038D02*
X173027693Y-93567657D01*
X173027693Y-93567657D02*
X173075312Y-93662895D01*
X173075312Y-93662895D02*
X173075312Y-93805752D01*
X173075312Y-93805752D02*
X173027693Y-93900990D01*
X173027693Y-93900990D02*
X172980074Y-93948609D01*
X172980074Y-93948609D02*
X172884836Y-93996228D01*
X172884836Y-93996228D02*
X172503884Y-93996228D01*
X173456265Y-94424800D02*
X173599122Y-94472419D01*
X173599122Y-94472419D02*
X173837217Y-94472419D01*
X173837217Y-94472419D02*
X173932455Y-94424800D01*
X173932455Y-94424800D02*
X173980074Y-94377180D01*
X173980074Y-94377180D02*
X174027693Y-94281942D01*
X174027693Y-94281942D02*
X174027693Y-94186704D01*
X174027693Y-94186704D02*
X173980074Y-94091466D01*
X173980074Y-94091466D02*
X173932455Y-94043847D01*
X173932455Y-94043847D02*
X173837217Y-93996228D01*
X173837217Y-93996228D02*
X173646741Y-93948609D01*
X173646741Y-93948609D02*
X173551503Y-93900990D01*
X173551503Y-93900990D02*
X173503884Y-93853371D01*
X173503884Y-93853371D02*
X173456265Y-93758133D01*
X173456265Y-93758133D02*
X173456265Y-93662895D01*
X173456265Y-93662895D02*
X173503884Y-93567657D01*
X173503884Y-93567657D02*
X173551503Y-93520038D01*
X173551503Y-93520038D02*
X173646741Y-93472419D01*
X173646741Y-93472419D02*
X173884836Y-93472419D01*
X173884836Y-93472419D02*
X174027693Y-93520038D01*
X174456265Y-94472419D02*
X174456265Y-93472419D01*
X174456265Y-93472419D02*
X174837217Y-93472419D01*
X174837217Y-93472419D02*
X174932455Y-93520038D01*
X174932455Y-93520038D02*
X174980074Y-93567657D01*
X174980074Y-93567657D02*
X175027693Y-93662895D01*
X175027693Y-93662895D02*
X175027693Y-93805752D01*
X175027693Y-93805752D02*
X174980074Y-93900990D01*
X174980074Y-93900990D02*
X174932455Y-93948609D01*
X174932455Y-93948609D02*
X174837217Y-93996228D01*
X174837217Y-93996228D02*
X174456265Y-93996228D01*
X176075313Y-93472419D02*
X176646741Y-93472419D01*
X176361027Y-94472419D02*
X176361027Y-93472419D01*
X176837218Y-93472419D02*
X177170551Y-94472419D01*
X177170551Y-94472419D02*
X177503884Y-93472419D01*
X178027694Y-93472419D02*
X178218170Y-93472419D01*
X178218170Y-93472419D02*
X178313408Y-93520038D01*
X178313408Y-93520038D02*
X178408646Y-93615276D01*
X178408646Y-93615276D02*
X178456265Y-93805752D01*
X178456265Y-93805752D02*
X178456265Y-94139085D01*
X178456265Y-94139085D02*
X178408646Y-94329561D01*
X178408646Y-94329561D02*
X178313408Y-94424800D01*
X178313408Y-94424800D02*
X178218170Y-94472419D01*
X178218170Y-94472419D02*
X178027694Y-94472419D01*
X178027694Y-94472419D02*
X177932456Y-94424800D01*
X177932456Y-94424800D02*
X177837218Y-94329561D01*
X177837218Y-94329561D02*
X177789599Y-94139085D01*
X177789599Y-94139085D02*
X177789599Y-93805752D01*
X177789599Y-93805752D02*
X177837218Y-93615276D01*
X177837218Y-93615276D02*
X177932456Y-93520038D01*
X177932456Y-93520038D02*
X178027694Y-93472419D01*
X179313408Y-93805752D02*
X179313408Y-94472419D01*
X178884837Y-93805752D02*
X178884837Y-94329561D01*
X178884837Y-94329561D02*
X178932456Y-94424800D01*
X178932456Y-94424800D02*
X179027694Y-94472419D01*
X179027694Y-94472419D02*
X179170551Y-94472419D01*
X179170551Y-94472419D02*
X179265789Y-94424800D01*
X179265789Y-94424800D02*
X179313408Y-94377180D01*
X179646742Y-93805752D02*
X180027694Y-93805752D01*
X179789599Y-93472419D02*
X179789599Y-94329561D01*
X179789599Y-94329561D02*
X179837218Y-94424800D01*
X179837218Y-94424800D02*
X179932456Y-94472419D01*
X179932456Y-94472419D02*
X180027694Y-94472419D01*
X181456266Y-93948609D02*
X181599123Y-93996228D01*
X181599123Y-93996228D02*
X181646742Y-94043847D01*
X181646742Y-94043847D02*
X181694361Y-94139085D01*
X181694361Y-94139085D02*
X181694361Y-94281942D01*
X181694361Y-94281942D02*
X181646742Y-94377180D01*
X181646742Y-94377180D02*
X181599123Y-94424800D01*
X181599123Y-94424800D02*
X181503885Y-94472419D01*
X181503885Y-94472419D02*
X181122933Y-94472419D01*
X181122933Y-94472419D02*
X181122933Y-93472419D01*
X181122933Y-93472419D02*
X181456266Y-93472419D01*
X181456266Y-93472419D02*
X181551504Y-93520038D01*
X181551504Y-93520038D02*
X181599123Y-93567657D01*
X181599123Y-93567657D02*
X181646742Y-93662895D01*
X181646742Y-93662895D02*
X181646742Y-93758133D01*
X181646742Y-93758133D02*
X181599123Y-93853371D01*
X181599123Y-93853371D02*
X181551504Y-93900990D01*
X181551504Y-93900990D02*
X181456266Y-93948609D01*
X181456266Y-93948609D02*
X181122933Y-93948609D01*
X182122933Y-94472419D02*
X182122933Y-93805752D01*
X182122933Y-93996228D02*
X182170552Y-93900990D01*
X182170552Y-93900990D02*
X182218171Y-93853371D01*
X182218171Y-93853371D02*
X182313409Y-93805752D01*
X182313409Y-93805752D02*
X182408647Y-93805752D01*
X183122933Y-94424800D02*
X183027695Y-94472419D01*
X183027695Y-94472419D02*
X182837219Y-94472419D01*
X182837219Y-94472419D02*
X182741981Y-94424800D01*
X182741981Y-94424800D02*
X182694362Y-94329561D01*
X182694362Y-94329561D02*
X182694362Y-93948609D01*
X182694362Y-93948609D02*
X182741981Y-93853371D01*
X182741981Y-93853371D02*
X182837219Y-93805752D01*
X182837219Y-93805752D02*
X183027695Y-93805752D01*
X183027695Y-93805752D02*
X183122933Y-93853371D01*
X183122933Y-93853371D02*
X183170552Y-93948609D01*
X183170552Y-93948609D02*
X183170552Y-94043847D01*
X183170552Y-94043847D02*
X182694362Y-94139085D01*
X184027695Y-94472419D02*
X184027695Y-93948609D01*
X184027695Y-93948609D02*
X183980076Y-93853371D01*
X183980076Y-93853371D02*
X183884838Y-93805752D01*
X183884838Y-93805752D02*
X183694362Y-93805752D01*
X183694362Y-93805752D02*
X183599124Y-93853371D01*
X184027695Y-94424800D02*
X183932457Y-94472419D01*
X183932457Y-94472419D02*
X183694362Y-94472419D01*
X183694362Y-94472419D02*
X183599124Y-94424800D01*
X183599124Y-94424800D02*
X183551505Y-94329561D01*
X183551505Y-94329561D02*
X183551505Y-94234323D01*
X183551505Y-94234323D02*
X183599124Y-94139085D01*
X183599124Y-94139085D02*
X183694362Y-94091466D01*
X183694362Y-94091466D02*
X183932457Y-94091466D01*
X183932457Y-94091466D02*
X184027695Y-94043847D01*
X184503886Y-94472419D02*
X184503886Y-93472419D01*
X184599124Y-94091466D02*
X184884838Y-94472419D01*
X184884838Y-93805752D02*
X184503886Y-94186704D01*
X185456267Y-94472419D02*
X185361029Y-94424800D01*
X185361029Y-94424800D02*
X185313410Y-94377180D01*
X185313410Y-94377180D02*
X185265791Y-94281942D01*
X185265791Y-94281942D02*
X185265791Y-93996228D01*
X185265791Y-93996228D02*
X185313410Y-93900990D01*
X185313410Y-93900990D02*
X185361029Y-93853371D01*
X185361029Y-93853371D02*
X185456267Y-93805752D01*
X185456267Y-93805752D02*
X185599124Y-93805752D01*
X185599124Y-93805752D02*
X185694362Y-93853371D01*
X185694362Y-93853371D02*
X185741981Y-93900990D01*
X185741981Y-93900990D02*
X185789600Y-93996228D01*
X185789600Y-93996228D02*
X185789600Y-94281942D01*
X185789600Y-94281942D02*
X185741981Y-94377180D01*
X185741981Y-94377180D02*
X185694362Y-94424800D01*
X185694362Y-94424800D02*
X185599124Y-94472419D01*
X185599124Y-94472419D02*
X185456267Y-94472419D01*
X186646743Y-93805752D02*
X186646743Y-94472419D01*
X186218172Y-93805752D02*
X186218172Y-94329561D01*
X186218172Y-94329561D02*
X186265791Y-94424800D01*
X186265791Y-94424800D02*
X186361029Y-94472419D01*
X186361029Y-94472419D02*
X186503886Y-94472419D01*
X186503886Y-94472419D02*
X186599124Y-94424800D01*
X186599124Y-94424800D02*
X186646743Y-94377180D01*
X186980077Y-93805752D02*
X187361029Y-93805752D01*
X187122934Y-93472419D02*
X187122934Y-94329561D01*
X187122934Y-94329561D02*
X187170553Y-94424800D01*
X187170553Y-94424800D02*
X187265791Y-94472419D01*
X187265791Y-94472419D02*
X187361029Y-94472419D01*
X168232455Y-75455752D02*
X168232455Y-76122419D01*
X167994360Y-75074800D02*
X167756265Y-75789085D01*
X167756265Y-75789085D02*
X168375312Y-75789085D01*
X161577693Y-76122419D02*
X161006265Y-76122419D01*
X161291979Y-76122419D02*
X161291979Y-75122419D01*
X161291979Y-75122419D02*
X161196741Y-75265276D01*
X161196741Y-75265276D02*
X161101503Y-75360514D01*
X161101503Y-75360514D02*
X161006265Y-75408133D01*
X170530074Y-75122419D02*
X170053884Y-75122419D01*
X170053884Y-75122419D02*
X170006265Y-75598609D01*
X170006265Y-75598609D02*
X170053884Y-75550990D01*
X170053884Y-75550990D02*
X170149122Y-75503371D01*
X170149122Y-75503371D02*
X170387217Y-75503371D01*
X170387217Y-75503371D02*
X170482455Y-75550990D01*
X170482455Y-75550990D02*
X170530074Y-75598609D01*
X170530074Y-75598609D02*
X170577693Y-75693847D01*
X170577693Y-75693847D02*
X170577693Y-75931942D01*
X170577693Y-75931942D02*
X170530074Y-76027180D01*
X170530074Y-76027180D02*
X170482455Y-76074800D01*
X170482455Y-76074800D02*
X170387217Y-76122419D01*
X170387217Y-76122419D02*
X170149122Y-76122419D01*
X170149122Y-76122419D02*
X170053884Y-76074800D01*
X170053884Y-76074800D02*
X170006265Y-76027180D01*
X162661027Y-69372419D02*
X163232455Y-69372419D01*
X162946741Y-70372419D02*
X162946741Y-69372419D01*
X163708646Y-70372419D02*
X163613408Y-70324800D01*
X163613408Y-70324800D02*
X163565789Y-70277180D01*
X163565789Y-70277180D02*
X163518170Y-70181942D01*
X163518170Y-70181942D02*
X163518170Y-69896228D01*
X163518170Y-69896228D02*
X163565789Y-69800990D01*
X163565789Y-69800990D02*
X163613408Y-69753371D01*
X163613408Y-69753371D02*
X163708646Y-69705752D01*
X163708646Y-69705752D02*
X163851503Y-69705752D01*
X163851503Y-69705752D02*
X163946741Y-69753371D01*
X163946741Y-69753371D02*
X163994360Y-69800990D01*
X163994360Y-69800990D02*
X164041979Y-69896228D01*
X164041979Y-69896228D02*
X164041979Y-70181942D01*
X164041979Y-70181942D02*
X163994360Y-70277180D01*
X163994360Y-70277180D02*
X163946741Y-70324800D01*
X163946741Y-70324800D02*
X163851503Y-70372419D01*
X163851503Y-70372419D02*
X163708646Y-70372419D01*
X164470551Y-69705752D02*
X164470551Y-70705752D01*
X164470551Y-69753371D02*
X164565789Y-69705752D01*
X164565789Y-69705752D02*
X164756265Y-69705752D01*
X164756265Y-69705752D02*
X164851503Y-69753371D01*
X164851503Y-69753371D02*
X164899122Y-69800990D01*
X164899122Y-69800990D02*
X164946741Y-69896228D01*
X164946741Y-69896228D02*
X164946741Y-70181942D01*
X164946741Y-70181942D02*
X164899122Y-70277180D01*
X164899122Y-70277180D02*
X164851503Y-70324800D01*
X164851503Y-70324800D02*
X164756265Y-70372419D01*
X164756265Y-70372419D02*
X164565789Y-70372419D01*
X164565789Y-70372419D02*
X164470551Y-70324800D01*
X166422932Y-70753371D02*
X166375313Y-70705752D01*
X166375313Y-70705752D02*
X166280075Y-70562895D01*
X166280075Y-70562895D02*
X166232456Y-70467657D01*
X166232456Y-70467657D02*
X166184837Y-70324800D01*
X166184837Y-70324800D02*
X166137218Y-70086704D01*
X166137218Y-70086704D02*
X166137218Y-69896228D01*
X166137218Y-69896228D02*
X166184837Y-69658133D01*
X166184837Y-69658133D02*
X166232456Y-69515276D01*
X166232456Y-69515276D02*
X166280075Y-69420038D01*
X166280075Y-69420038D02*
X166375313Y-69277180D01*
X166375313Y-69277180D02*
X166422932Y-69229561D01*
X167280075Y-70372419D02*
X166803885Y-70372419D01*
X166803885Y-70372419D02*
X166803885Y-69372419D01*
X168184837Y-70277180D02*
X168137218Y-70324800D01*
X168137218Y-70324800D02*
X167994361Y-70372419D01*
X167994361Y-70372419D02*
X167899123Y-70372419D01*
X167899123Y-70372419D02*
X167756266Y-70324800D01*
X167756266Y-70324800D02*
X167661028Y-70229561D01*
X167661028Y-70229561D02*
X167613409Y-70134323D01*
X167613409Y-70134323D02*
X167565790Y-69943847D01*
X167565790Y-69943847D02*
X167565790Y-69800990D01*
X167565790Y-69800990D02*
X167613409Y-69610514D01*
X167613409Y-69610514D02*
X167661028Y-69515276D01*
X167661028Y-69515276D02*
X167756266Y-69420038D01*
X167756266Y-69420038D02*
X167899123Y-69372419D01*
X167899123Y-69372419D02*
X167994361Y-69372419D01*
X167994361Y-69372419D02*
X168137218Y-69420038D01*
X168137218Y-69420038D02*
X168184837Y-69467657D01*
X168613409Y-70372419D02*
X168613409Y-69372419D01*
X168613409Y-69372419D02*
X168851504Y-69372419D01*
X168851504Y-69372419D02*
X168994361Y-69420038D01*
X168994361Y-69420038D02*
X169089599Y-69515276D01*
X169089599Y-69515276D02*
X169137218Y-69610514D01*
X169137218Y-69610514D02*
X169184837Y-69800990D01*
X169184837Y-69800990D02*
X169184837Y-69943847D01*
X169184837Y-69943847D02*
X169137218Y-70134323D01*
X169137218Y-70134323D02*
X169089599Y-70229561D01*
X169089599Y-70229561D02*
X168994361Y-70324800D01*
X168994361Y-70324800D02*
X168851504Y-70372419D01*
X168851504Y-70372419D02*
X168613409Y-70372419D01*
X169518171Y-70753371D02*
X169565790Y-70705752D01*
X169565790Y-70705752D02*
X169661028Y-70562895D01*
X169661028Y-70562895D02*
X169708647Y-70467657D01*
X169708647Y-70467657D02*
X169756266Y-70324800D01*
X169756266Y-70324800D02*
X169803885Y-70086704D01*
X169803885Y-70086704D02*
X169803885Y-69896228D01*
X169803885Y-69896228D02*
X169756266Y-69658133D01*
X169756266Y-69658133D02*
X169708647Y-69515276D01*
X169708647Y-69515276D02*
X169661028Y-69420038D01*
X169661028Y-69420038D02*
X169565790Y-69277180D01*
X169565790Y-69277180D02*
X169518171Y-69229561D01*
X163256265Y-75217657D02*
X163303884Y-75170038D01*
X163303884Y-75170038D02*
X163399122Y-75122419D01*
X163399122Y-75122419D02*
X163637217Y-75122419D01*
X163637217Y-75122419D02*
X163732455Y-75170038D01*
X163732455Y-75170038D02*
X163780074Y-75217657D01*
X163780074Y-75217657D02*
X163827693Y-75312895D01*
X163827693Y-75312895D02*
X163827693Y-75408133D01*
X163827693Y-75408133D02*
X163780074Y-75550990D01*
X163780074Y-75550990D02*
X163208646Y-76122419D01*
X163208646Y-76122419D02*
X163827693Y-76122419D01*
X165458646Y-75122419D02*
X166077693Y-75122419D01*
X166077693Y-75122419D02*
X165744360Y-75503371D01*
X165744360Y-75503371D02*
X165887217Y-75503371D01*
X165887217Y-75503371D02*
X165982455Y-75550990D01*
X165982455Y-75550990D02*
X166030074Y-75598609D01*
X166030074Y-75598609D02*
X166077693Y-75693847D01*
X166077693Y-75693847D02*
X166077693Y-75931942D01*
X166077693Y-75931942D02*
X166030074Y-76027180D01*
X166030074Y-76027180D02*
X165982455Y-76074800D01*
X165982455Y-76074800D02*
X165887217Y-76122419D01*
X165887217Y-76122419D02*
X165601503Y-76122419D01*
X165601503Y-76122419D02*
X165506265Y-76074800D01*
X165506265Y-76074800D02*
X165458646Y-76027180D01*
X172732455Y-75122419D02*
X172541979Y-75122419D01*
X172541979Y-75122419D02*
X172446741Y-75170038D01*
X172446741Y-75170038D02*
X172399122Y-75217657D01*
X172399122Y-75217657D02*
X172303884Y-75360514D01*
X172303884Y-75360514D02*
X172256265Y-75550990D01*
X172256265Y-75550990D02*
X172256265Y-75931942D01*
X172256265Y-75931942D02*
X172303884Y-76027180D01*
X172303884Y-76027180D02*
X172351503Y-76074800D01*
X172351503Y-76074800D02*
X172446741Y-76122419D01*
X172446741Y-76122419D02*
X172637217Y-76122419D01*
X172637217Y-76122419D02*
X172732455Y-76074800D01*
X172732455Y-76074800D02*
X172780074Y-76027180D01*
X172780074Y-76027180D02*
X172827693Y-75931942D01*
X172827693Y-75931942D02*
X172827693Y-75693847D01*
X172827693Y-75693847D02*
X172780074Y-75598609D01*
X172780074Y-75598609D02*
X172732455Y-75550990D01*
X172732455Y-75550990D02*
X172637217Y-75503371D01*
X172637217Y-75503371D02*
X172446741Y-75503371D01*
X172446741Y-75503371D02*
X172351503Y-75550990D01*
X172351503Y-75550990D02*
X172303884Y-75598609D01*
X172303884Y-75598609D02*
X172256265Y-75693847D01*
D11*
%TO.C,TP5*%
X169550000Y-73050000D02*
X170950000Y-73050000D01*
X169550000Y-74450000D02*
X169550000Y-73050000D01*
X170950000Y-73050000D02*
X170950000Y-74450000D01*
X170950000Y-74450000D02*
X169550000Y-74450000D01*
%TO.C,TP1*%
X160550000Y-73050000D02*
X161950000Y-73050000D01*
X160550000Y-74450000D02*
X160550000Y-73050000D01*
X161950000Y-73050000D02*
X161950000Y-74450000D01*
X161950000Y-74450000D02*
X160550000Y-74450000D01*
D10*
%TO.C,U1*%
X166125500Y-66437500D02*
X159825500Y-66437500D01*
D11*
%TO.C,TP6*%
X171800000Y-73050000D02*
X173200000Y-73050000D01*
X171800000Y-74450000D02*
X171800000Y-73050000D01*
X173200000Y-73050000D02*
X173200000Y-74450000D01*
X173200000Y-74450000D02*
X171800000Y-74450000D01*
%TO.C,TP2*%
X162800000Y-73050000D02*
X164200000Y-73050000D01*
X162800000Y-74450000D02*
X162800000Y-73050000D01*
X164200000Y-73050000D02*
X164200000Y-74450000D01*
X164200000Y-74450000D02*
X162800000Y-74450000D01*
%TO.C,TP3*%
X165050000Y-73050000D02*
X166450000Y-73050000D01*
X165050000Y-74450000D02*
X165050000Y-73050000D01*
X166450000Y-73050000D02*
X166450000Y-74450000D01*
X166450000Y-74450000D02*
X165050000Y-74450000D01*
%TO.C,TP4*%
X167300000Y-73050000D02*
X168700000Y-73050000D01*
X167300000Y-74450000D02*
X167300000Y-73050000D01*
X168700000Y-73050000D02*
X168700000Y-74450000D01*
X168700000Y-74450000D02*
X167300000Y-74450000D01*
%TD*%
%LPC*%
D12*
%TO.C,TP5*%
X170250000Y-73750000D03*
%TD*%
%TO.C,TP1*%
X161250000Y-73750000D03*
%TD*%
D13*
%TO.C,U1*%
X160800500Y-63687500D03*
X161720500Y-63687500D03*
X162640500Y-63687500D03*
X163560500Y-63687500D03*
X164480500Y-63687500D03*
X165400500Y-63687500D03*
%TD*%
D12*
%TO.C,TP6*%
X172500000Y-73750000D03*
%TD*%
%TO.C,TP2*%
X163500000Y-73750000D03*
%TD*%
%TO.C,TP3*%
X165750000Y-73750000D03*
%TD*%
%TO.C,TP4*%
X168000000Y-73750000D03*
%TD*%
%LPD*%
M02*
