%TF.GenerationSoftware,KiCad,Pcbnew,8.0.4*%
%TF.CreationDate,2025-09-19T21:13:21+01:00*%
%TF.ProjectId,av-connector-breakout,61762d63-6f6e-46e6-9563-746f722d6272,rev?*%
%TF.SameCoordinates,Original*%
%TF.FileFunction,Copper,L2,Bot*%
%TF.FilePolarity,Positive*%
%FSLAX46Y46*%
G04 Gerber Fmt 4.6, Leading zero omitted, Abs format (unit mm)*
G04 Created by KiCad (PCBNEW 8.0.4) date 2025-09-19 21:13:21*
%MOMM*%
%LPD*%
G01*
G04 APERTURE LIST*
G04 Aperture macros list*
%AMRoundRect*
0 Rectangle with rounded corners*
0 $1 Rounding radius*
0 $2 $3 $4 $5 $6 $7 $8 $9 X,Y pos of 4 corners*
0 Add a 4 corners polygon primitive as box body*
4,1,4,$2,$3,$4,$5,$6,$7,$8,$9,$2,$3,0*
0 Add four circle primitives for the rounded corners*
1,1,$1+$1,$2,$3*
1,1,$1+$1,$4,$5*
1,1,$1+$1,$6,$7*
1,1,$1+$1,$8,$9*
0 Add four rect primitives between the rounded corners*
20,1,$1+$1,$2,$3,$4,$5,0*
20,1,$1+$1,$4,$5,$6,$7,0*
20,1,$1+$1,$6,$7,$8,$9,0*
20,1,$1+$1,$8,$9,$2,$3,0*%
G04 Aperture macros list end*
%TA.AperFunction,SMDPad,CuDef*%
%ADD10RoundRect,0.117500X0.117500X1.332500X-0.117500X1.332500X-0.117500X-1.332500X0.117500X-1.332500X0*%
%TD*%
%TA.AperFunction,SMDPad,CuDef*%
%ADD11R,1.000000X1.000000*%
%TD*%
%TA.AperFunction,ViaPad*%
%ADD12C,0.600000*%
%TD*%
%TA.AperFunction,Conductor*%
%ADD13C,0.200000*%
%TD*%
G04 APERTURE END LIST*
D10*
%TO.P,U1,7,UART4_RX*%
%TO.N,/PSPRX*%
X160800500Y-63687500D03*
%TO.P,U1,8,UART4_VCC*%
%TO.N,/PSP_UART_VCC*%
X161720500Y-63687500D03*
%TO.P,U1,9,VIDEO_DETECT*%
%TO.N,/PSP_VIDEO_DETECT*%
X162640500Y-63687500D03*
%TO.P,U1,10,WAKE*%
%TO.N,/PSP_WAKE*%
X163560500Y-63687500D03*
%TO.P,U1,11,BLUE/LUME_(Pb)*%
%TO.N,/PSP_BLUE_LUME_PB*%
X164480500Y-63687500D03*
%TO.P,U1,12,VIDEO_GND*%
%TO.N,/GND*%
X165400500Y-63687500D03*
%TD*%
D11*
%TO.P,TP9,1,1*%
%TO.N,/PSP_VIDEO_DETECT*%
X165750000Y-73750000D03*
%TD*%
%TO.P,TP11,1,1*%
%TO.N,/PSP_BLUE_LUME_PB*%
X170250000Y-73750000D03*
%TD*%
%TO.P,TP8,1,1*%
%TO.N,/PSP_UART_VCC*%
X163500000Y-73750000D03*
%TD*%
%TO.P,TP7,1,1*%
%TO.N,/PSPRX*%
X161250000Y-73750000D03*
%TD*%
%TO.P,TP10,1,1*%
%TO.N,/PSP_WAKE*%
X168000000Y-73750000D03*
%TD*%
D12*
%TO.N,/GND*%
X165500000Y-70000000D03*
%TD*%
D13*
%TO.N,/PSPRX*%
X160800500Y-63687500D02*
X160800500Y-73300500D01*
X160800500Y-73300500D02*
X161250000Y-73750000D01*
%TO.N,/PSP_UART_VCC*%
X161720500Y-70720500D02*
X163500000Y-72500000D01*
X163500000Y-72500000D02*
X163500000Y-73750000D01*
X161720500Y-63687500D02*
X161720500Y-70720500D01*
%TO.N,/PSP_BLUE_LUME_PB*%
X165250000Y-71000000D02*
X169250000Y-71000000D01*
X164480500Y-70230500D02*
X165250000Y-71000000D01*
X164480500Y-63687500D02*
X164480500Y-70230500D01*
X169250000Y-71000000D02*
X170250000Y-72000000D01*
X170250000Y-72000000D02*
X170250000Y-73750000D01*
%TO.N,/PSP_WAKE*%
X163560500Y-70560500D02*
X164500000Y-71500000D01*
X167000000Y-71500000D02*
X168000000Y-72500000D01*
X163560500Y-63687500D02*
X163560500Y-70560500D01*
X164500000Y-71500000D02*
X167000000Y-71500000D01*
X168000000Y-72500000D02*
X168000000Y-73750000D01*
%TO.N,/GND*%
X165400500Y-63687500D02*
X165400500Y-69900500D01*
X165400500Y-69900500D02*
X165500000Y-70000000D01*
%TO.N,/PSP_VIDEO_DETECT*%
X165500000Y-72000000D02*
X165750000Y-72250000D01*
X162640500Y-63687500D02*
X162640500Y-70640500D01*
X165750000Y-72250000D02*
X165750000Y-73750000D01*
X162640500Y-70640500D02*
X164000000Y-72000000D01*
X164000000Y-72000000D02*
X165500000Y-72000000D01*
%TD*%
M02*
