%TF.GenerationSoftware,KiCad,Pcbnew,8.0.4*%
%TF.CreationDate,2025-09-19T21:13:21+01:00*%
%TF.ProjectId,av-connector-breakout,61762d63-6f6e-46e6-9563-746f722d6272,rev?*%
%TF.SameCoordinates,Original*%
%TF.FileFunction,Copper,L1,Top*%
%TF.FilePolarity,Positive*%
%FSLAX46Y46*%
G04 Gerber Fmt 4.6, Leading zero omitted, Abs format (unit mm)*
G04 Created by KiCad (PCBNEW 8.0.4) date 2025-09-19 21:13:21*
%MOMM*%
%LPD*%
G01*
G04 APERTURE LIST*
G04 Aperture macros list*
%AMRoundRect*
0 Rectangle with rounded corners*
0 $1 Rounding radius*
0 $2 $3 $4 $5 $6 $7 $8 $9 X,Y pos of 4 corners*
0 Add a 4 corners polygon primitive as box body*
4,1,4,$2,$3,$4,$5,$6,$7,$8,$9,$2,$3,0*
0 Add four circle primitives for the rounded corners*
1,1,$1+$1,$2,$3*
1,1,$1+$1,$4,$5*
1,1,$1+$1,$6,$7*
1,1,$1+$1,$8,$9*
0 Add four rect primitives between the rounded corners*
20,1,$1+$1,$2,$3,$4,$5,0*
20,1,$1+$1,$4,$5,$6,$7,0*
20,1,$1+$1,$6,$7,$8,$9,0*
20,1,$1+$1,$8,$9,$2,$3,0*%
G04 Aperture macros list end*
%TA.AperFunction,SMDPad,CuDef*%
%ADD10R,1.000000X1.000000*%
%TD*%
%TA.AperFunction,SMDPad,CuDef*%
%ADD11RoundRect,0.117500X0.117500X1.332500X-0.117500X1.332500X-0.117500X-1.332500X0.117500X-1.332500X0*%
%TD*%
%TA.AperFunction,ViaPad*%
%ADD12C,0.600000*%
%TD*%
%TA.AperFunction,Conductor*%
%ADD13C,0.200000*%
%TD*%
G04 APERTURE END LIST*
D10*
%TO.P,TP5,1,1*%
%TO.N,/GND*%
X170250000Y-73750000D03*
%TD*%
%TO.P,TP1,1,1*%
%TO.N,/PSPMICIN*%
X161250000Y-73750000D03*
%TD*%
D11*
%TO.P,U1,1,MIC_IN*%
%TO.N,/PSPMICIN*%
X160800500Y-63687500D03*
%TO.P,U1,2,UART4_TX*%
%TO.N,/PSPTX*%
X161720500Y-63687500D03*
%TO.P,U1,3,UART_GND*%
%TO.N,/UART_GND*%
X162640500Y-63687500D03*
%TO.P,U1,4,LUMA_(Y)*%
%TO.N,/LUMA_Y*%
X163560500Y-63687500D03*
%TO.P,U1,5,VIDEO_GND*%
%TO.N,/GND*%
X164480500Y-63687500D03*
%TO.P,U1,6,RED/LUMA_(Pr)*%
%TO.N,/RED_LUMA_PR*%
X165400500Y-63687500D03*
%TD*%
D10*
%TO.P,TP6,1,1*%
%TO.N,/RED_LUMA_PR*%
X172500000Y-73750000D03*
%TD*%
%TO.P,TP2,1,1*%
%TO.N,/PSPTX*%
X163500000Y-73750000D03*
%TD*%
%TO.P,TP3,1,1*%
%TO.N,/UART_GND*%
X165750000Y-73750000D03*
%TD*%
%TO.P,TP4,1,1*%
%TO.N,/LUMA_Y*%
X168000000Y-73750000D03*
%TD*%
D12*
%TO.N,/GND*%
X165500000Y-70000000D03*
%TD*%
D13*
%TO.N,/PSPTX*%
X161720500Y-70720500D02*
X163500000Y-72500000D01*
X163500000Y-72500000D02*
X163500000Y-73750000D01*
X161720500Y-63687500D02*
X161720500Y-70720500D01*
%TO.N,/GND*%
X170250000Y-72000000D02*
X170250000Y-73750000D01*
X168250000Y-70000000D02*
X170250000Y-72000000D01*
X164961000Y-70000000D02*
X164480500Y-69519500D01*
X165500000Y-70000000D02*
X168250000Y-70000000D01*
X164480500Y-69519500D02*
X164480500Y-63687500D01*
X164961000Y-70000000D02*
X165500000Y-70000000D01*
%TO.N,/LUMA_Y*%
X167100000Y-71600000D02*
X168000000Y-72500000D01*
X163560500Y-70660500D02*
X164500000Y-71600000D01*
X163560500Y-63687500D02*
X163560500Y-70660500D01*
X164500000Y-71600000D02*
X167100000Y-71600000D01*
X168000000Y-72500000D02*
X168000000Y-73750000D01*
%TO.N,/RED_LUMA_PR*%
X169750000Y-69000000D02*
X172500000Y-71750000D01*
X165400500Y-63687500D02*
X165400500Y-67400500D01*
X172500000Y-71750000D02*
X172500000Y-73750000D01*
X167000000Y-69000000D02*
X169750000Y-69000000D01*
X165400500Y-67400500D02*
X167000000Y-69000000D01*
%TO.N,/PSPMICIN*%
X160800500Y-73300500D02*
X161250000Y-73750000D01*
X160800500Y-63687500D02*
X160800500Y-73300500D01*
%TO.N,/UART_GND*%
X162640500Y-63687500D02*
X162640500Y-70640500D01*
X164000000Y-72000000D02*
X165250000Y-72000000D01*
X162640500Y-70640500D02*
X164000000Y-72000000D01*
X165750000Y-72500000D02*
X165750000Y-73750000D01*
X165250000Y-72000000D02*
X165750000Y-72500000D01*
%TD*%
M02*
