%TF.GenerationSoftware,KiCad,Pcbnew,8.0.4*%
%TF.CreationDate,2025-09-19T21:11:49+01:00*%
%TF.ProjectId,devboard,64657662-6f61-4726-942e-6b696361645f,rev?*%
%TF.SameCoordinates,Original*%
%TF.FileFunction,Soldermask,Bot*%
%TF.FilePolarity,Negative*%
%FSLAX46Y46*%
G04 Gerber Fmt 4.6, Leading zero omitted, Abs format (unit mm)*
G04 Created by KiCad (PCBNEW 8.0.4) date 2025-09-19 21:11:49*
%MOMM*%
%LPD*%
G01*
G04 APERTURE LIST*
G04 Aperture macros list*
%AMRoundRect*
0 Rectangle with rounded corners*
0 $1 Rounding radius*
0 $2 $3 $4 $5 $6 $7 $8 $9 X,Y pos of 4 corners*
0 Add a 4 corners polygon primitive as box body*
4,1,4,$2,$3,$4,$5,$6,$7,$8,$9,$2,$3,0*
0 Add four circle primitives for the rounded corners*
1,1,$1+$1,$2,$3*
1,1,$1+$1,$4,$5*
1,1,$1+$1,$6,$7*
1,1,$1+$1,$8,$9*
0 Add four rect primitives between the rounded corners*
20,1,$1+$1,$2,$3,$4,$5,0*
20,1,$1+$1,$4,$5,$6,$7,0*
20,1,$1+$1,$6,$7,$8,$9,0*
20,1,$1+$1,$8,$9,$2,$3,0*%
G04 Aperture macros list end*
%ADD10R,2.000000X1.200000*%
%ADD11O,2.000000X1.200000*%
%ADD12RoundRect,0.117500X0.117500X1.332500X-0.117500X1.332500X-0.117500X-1.332500X0.117500X-1.332500X0*%
%ADD13C,1.200000*%
%ADD14O,1.200000X2.100000*%
G04 APERTURE END LIST*
D10*
%TO.C,U7*%
X202350000Y-87610000D03*
D11*
X202350000Y-90150000D03*
X202350000Y-92690000D03*
X202350000Y-95230000D03*
X202350000Y-97770000D03*
X202350000Y-100310000D03*
X202350000Y-102850000D03*
X202350000Y-105390000D03*
X202350000Y-107930000D03*
X202350000Y-110470000D03*
X202350000Y-113010000D03*
X202350000Y-115550000D03*
X202350000Y-118090000D03*
X202350000Y-120630000D03*
X202350000Y-123170000D03*
X202350000Y-125710000D03*
X202350000Y-128250000D03*
X202350000Y-130790000D03*
X202350000Y-133330000D03*
X227746320Y-133327280D03*
X227746320Y-130787280D03*
X227750000Y-128250000D03*
X227750000Y-125710000D03*
X227750000Y-123170000D03*
X227750000Y-120630000D03*
X227750000Y-118090000D03*
X227750000Y-115550000D03*
X227750000Y-113010000D03*
X227750000Y-110470000D03*
X227750000Y-107930000D03*
X227750000Y-105390000D03*
X227750000Y-102850000D03*
X227750000Y-100310000D03*
X227750000Y-97770000D03*
X227750000Y-95230000D03*
X227750000Y-92690000D03*
X227750000Y-90150000D03*
X227750000Y-87610000D03*
%TD*%
D12*
%TO.C,U1*%
X160650000Y-53000000D03*
X161570000Y-53000000D03*
X162490000Y-53000000D03*
X163410000Y-53000000D03*
X164330000Y-53000000D03*
X165250000Y-53000000D03*
%TD*%
D13*
%TO.C,U8*%
X190940412Y-132000000D03*
X190940412Y-125000000D03*
D14*
X193240387Y-122299975D03*
X188640437Y-130400051D03*
X188640437Y-127400051D03*
X188640437Y-123400051D03*
%TD*%
M02*
