M48
INCH
T1C0.0118
T2C0.0236
T3C0.0315
%
G90
G05
T1
X6.4469Y-2.3622
X6.4469Y-3.9665
X6.4862Y-2.3524
X6.4862Y-3.9665
X6.5172Y-2.3465
X6.5256Y-3.9665
X6.5506Y-2.3465
X6.565Y-3.9665
X6.5846Y-4.8307
X6.5916Y-2.3465
X6.6043Y-3.9665
X6.6043Y-4.7736
X6.624Y-4.8543
X6.6339Y-2.3465
X6.6437Y-3.9665
X6.6437Y-4.7146
X6.6535Y-4.878
X6.6831Y-3.9665
X6.6831Y-4.813
X6.7028Y-4.9016
X6.7067Y-2.3228
X6.7224Y-3.9665
X6.7224Y-4.7835
X6.7579Y-2.2638
X6.7618Y-3.9665
X6.7618Y-4.7736
X6.7913Y-4.7539
X6.7933Y-3.9665
X6.8307Y-3.9665
X6.8307Y-4.7441
X6.8701Y-4.6555
X6.8799Y-4.5965
X6.8858Y-4.5079
X6.9488Y-4.5768
X7.0079Y-4.6161
X7.7953Y-4.5571
T3
X7.9665Y-3.4492
X7.9665Y-3.5492
X7.9665Y-3.6492
X7.9665Y-3.7492
X7.9665Y-3.8492
X7.9665Y-3.9492
X7.9665Y-4.0492
X7.9665Y-4.1492
X7.9665Y-4.2492
X7.9665Y-4.3492
X7.9665Y-4.4492
X7.9665Y-4.5492
X7.9665Y-4.6492
X7.9665Y-4.7492
X7.9665Y-4.8492
X7.9665Y-4.9492
X7.9665Y-5.0492
X7.9665Y-5.1492
X7.9665Y-5.2492
X8.9664Y-5.1491
X8.9664Y-5.2491
X8.9665Y-3.4492
X8.9665Y-3.5492
X8.9665Y-3.6492
X8.9665Y-3.7492
X8.9665Y-3.8492
X8.9665Y-3.9492
X8.9665Y-4.0492
X8.9665Y-4.1492
X8.9665Y-4.2492
X8.9665Y-4.3492
X8.9665Y-4.4492
X8.9665Y-4.5492
X8.9665Y-4.6492
X8.9665Y-4.7492
X8.9665Y-4.8492
X8.9665Y-4.9492
X8.9665Y-5.0492
T2
G00X7.4268Y-4.876
M15
G01X7.4268Y-4.8406
M16
G05
G00X7.4268Y-5.0335
M15
G01X7.4268Y-4.998
M16
G05
G00X7.4268Y-5.1516
M15
G01X7.4268Y-5.1161
M16
G05
G00X7.6079Y-4.8327
M15
G01X7.6079Y-4.7972
M16
G05
M30
