%TF.GenerationSoftware,KiCad,Pcbnew,8.0.4*%
%TF.CreationDate,2025-09-19T21:11:49+01:00*%
%TF.ProjectId,devboard,64657662-6f61-4726-942e-6b696361645f,rev?*%
%TF.SameCoordinates,Original*%
%TF.FileFunction,Copper,L2,Bot*%
%TF.FilePolarity,Positive*%
%FSLAX46Y46*%
G04 Gerber Fmt 4.6, Leading zero omitted, Abs format (unit mm)*
G04 Created by KiCad (PCBNEW 8.0.4) date 2025-09-19 21:11:49*
%MOMM*%
%LPD*%
G01*
G04 APERTURE LIST*
G04 Aperture macros list*
%AMRoundRect*
0 Rectangle with rounded corners*
0 $1 Rounding radius*
0 $2 $3 $4 $5 $6 $7 $8 $9 X,Y pos of 4 corners*
0 Add a 4 corners polygon primitive as box body*
4,1,4,$2,$3,$4,$5,$6,$7,$8,$9,$2,$3,0*
0 Add four circle primitives for the rounded corners*
1,1,$1+$1,$2,$3*
1,1,$1+$1,$4,$5*
1,1,$1+$1,$6,$7*
1,1,$1+$1,$8,$9*
0 Add four rect primitives between the rounded corners*
20,1,$1+$1,$2,$3,$4,$5,0*
20,1,$1+$1,$4,$5,$6,$7,0*
20,1,$1+$1,$6,$7,$8,$9,0*
20,1,$1+$1,$8,$9,$2,$3,0*%
G04 Aperture macros list end*
%TA.AperFunction,ComponentPad*%
%ADD10R,2.000000X1.200000*%
%TD*%
%TA.AperFunction,ComponentPad*%
%ADD11O,2.000000X1.200000*%
%TD*%
%TA.AperFunction,SMDPad,CuDef*%
%ADD12RoundRect,0.117500X0.117500X1.332500X-0.117500X1.332500X-0.117500X-1.332500X0.117500X-1.332500X0*%
%TD*%
%TA.AperFunction,ComponentPad*%
%ADD13O,1.200000X2.100000*%
%TD*%
%TA.AperFunction,ViaPad*%
%ADD14C,0.600000*%
%TD*%
%TA.AperFunction,Conductor*%
%ADD15C,0.200000*%
%TD*%
G04 APERTURE END LIST*
D10*
%TO.P,U7,1,3V3*%
%TO.N,/OUT_UART_VCC*%
X202350000Y-87610000D03*
D11*
%TO.P,U7,2,CHIP_PU*%
%TO.N,unconnected-(U7-CHIP_PU-Pad2)*%
X202350000Y-90150000D03*
%TO.P,U7,3,SENSOR_VP/GPIO36/ADC1_CH0*%
%TO.N,unconnected-(U7-SENSOR_VP{slash}GPIO36{slash}ADC1_CH0-Pad3)*%
X202350000Y-92690000D03*
%TO.P,U7,4,SENSOR_VN/GPIO39/ADC1_CH3*%
%TO.N,unconnected-(U7-SENSOR_VN{slash}GPIO39{slash}ADC1_CH3-Pad4)*%
X202350000Y-95230000D03*
%TO.P,U7,5,VDET_1/GPIO34/ADC1_CH6*%
%TO.N,unconnected-(U7-VDET_1{slash}GPIO34{slash}ADC1_CH6-Pad5)*%
X202350000Y-97770000D03*
%TO.P,U7,6,VDET_2/GPIO35/ADC1_CH7*%
%TO.N,unconnected-(U7-VDET_2{slash}GPIO35{slash}ADC1_CH7-Pad6)*%
X202350000Y-100310000D03*
%TO.P,U7,7,32K_XP/GPIO32/ADC1_CH4*%
%TO.N,unconnected-(U7-32K_XP{slash}GPIO32{slash}ADC1_CH4-Pad7)*%
X202350000Y-102850000D03*
%TO.P,U7,8,32K_XN/GPIO33/ADC1_CH5*%
%TO.N,unconnected-(U7-32K_XN{slash}GPIO33{slash}ADC1_CH5-Pad8)*%
X202350000Y-105390000D03*
%TO.P,U7,9,DAC_1/ADC2_CH8/GPIO25*%
%TO.N,unconnected-(U7-DAC_1{slash}ADC2_CH8{slash}GPIO25-Pad9)*%
X202350000Y-107930000D03*
%TO.P,U7,10,DAC_2/ADC2_CH9/GPIO26*%
%TO.N,unconnected-(U7-DAC_2{slash}ADC2_CH9{slash}GPIO26-Pad10)*%
X202350000Y-110470000D03*
%TO.P,U7,11,ADC2_CH7/GPIO27*%
%TO.N,unconnected-(U7-ADC2_CH7{slash}GPIO27-Pad11)*%
X202350000Y-113010000D03*
%TO.P,U7,12,MTMS/GPIO14/ADC2_CH6*%
%TO.N,unconnected-(U7-MTMS{slash}GPIO14{slash}ADC2_CH6-Pad12)*%
X202350000Y-115550000D03*
%TO.P,U7,13,MTDI/GPIO12/ADC2_CH5*%
%TO.N,unconnected-(U7-MTDI{slash}GPIO12{slash}ADC2_CH5-Pad13)*%
X202350000Y-118090000D03*
%TO.P,U7,14,GND*%
%TO.N,/GND*%
X202350000Y-120630000D03*
%TO.P,U7,15,MTCK/GPIO13/ADC2_CH4*%
%TO.N,unconnected-(U7-MTCK{slash}GPIO13{slash}ADC2_CH4-Pad15)*%
X202350000Y-123170000D03*
%TO.P,U7,16,SD_DATA2/GPIO9*%
%TO.N,unconnected-(U7-SD_DATA2{slash}GPIO9-Pad16)*%
X202350000Y-125710000D03*
%TO.P,U7,17,SD_DATA3/GPIO10*%
%TO.N,unconnected-(U7-SD_DATA3{slash}GPIO10-Pad17)*%
X202350000Y-128250000D03*
%TO.P,U7,18,CMD*%
%TO.N,unconnected-(U7-CMD-Pad18)*%
X202350000Y-130790000D03*
%TO.P,U7,19,5V*%
%TO.N,unconnected-(U7-5V-Pad19)*%
X202350000Y-133330000D03*
%TO.P,U7,20,SD_CLK/GPIO6*%
%TO.N,unconnected-(U7-SD_CLK{slash}GPIO6-Pad20)*%
X227746320Y-133327280D03*
%TO.P,U7,21,SD_DATA0/GPIO7*%
%TO.N,unconnected-(U7-SD_DATA0{slash}GPIO7-Pad21)*%
X227746320Y-130787280D03*
%TO.P,U7,22,SD_DATA1/GPIO8*%
%TO.N,unconnected-(U7-SD_DATA1{slash}GPIO8-Pad22)*%
X227750000Y-128250000D03*
%TO.P,U7,23,MTDO/GPIO15/ADC2_CH3*%
%TO.N,unconnected-(U7-MTDO{slash}GPIO15{slash}ADC2_CH3-Pad23)*%
X227750000Y-125710000D03*
%TO.P,U7,24,ADC2_CH2/GPIO2*%
%TO.N,unconnected-(U7-ADC2_CH2{slash}GPIO2-Pad24)*%
X227750000Y-123170000D03*
%TO.P,U7,25,GPIO0/BOOT/ADC2_CH1*%
%TO.N,unconnected-(U7-GPIO0{slash}BOOT{slash}ADC2_CH1-Pad25)*%
X227750000Y-120630000D03*
%TO.P,U7,26,ADC2_CH0/GPIO4*%
%TO.N,unconnected-(U7-ADC2_CH0{slash}GPIO4-Pad26)*%
X227750000Y-118090000D03*
%TO.P,U7,27,GPIO16*%
%TO.N,/OUT_PSPTX*%
X227750000Y-115550000D03*
%TO.P,U7,28,GPIO17*%
%TO.N,unconnected-(U7-GPIO17-Pad28)*%
X227750000Y-113010000D03*
%TO.P,U7,29,GPIO5*%
%TO.N,unconnected-(U7-GPIO5-Pad29)*%
X227750000Y-110470000D03*
%TO.P,U7,30,GPIO18*%
%TO.N,/OUT_PSPRX*%
X227750000Y-107930000D03*
%TO.P,U7,31,GPIO19*%
%TO.N,unconnected-(U7-GPIO19-Pad31)*%
X227750000Y-105390000D03*
%TO.P,U7,32,GND*%
%TO.N,/GND*%
X227750000Y-102850000D03*
%TO.P,U7,33,GPIO21*%
%TO.N,unconnected-(U7-GPIO21-Pad33)*%
X227750000Y-100310000D03*
%TO.P,U7,34,U0RXD/GPIO3*%
%TO.N,unconnected-(U7-U0RXD{slash}GPIO3-Pad34)*%
X227750000Y-97770000D03*
%TO.P,U7,35,U0TXD/GPIO1*%
%TO.N,unconnected-(U7-U0TXD{slash}GPIO1-Pad35)*%
X227750000Y-95230000D03*
%TO.P,U7,36,GPIO22*%
%TO.N,unconnected-(U7-GPIO22-Pad36)*%
X227750000Y-92690000D03*
%TO.P,U7,37,GPIO23*%
%TO.N,unconnected-(U7-GPIO23-Pad37)*%
X227750000Y-90150000D03*
%TO.P,U7,38,GND*%
%TO.N,/GND*%
X227750000Y-87610000D03*
%TD*%
D12*
%TO.P,U1,7,UART4_RX*%
%TO.N,/PSPRX*%
X160650000Y-53000000D03*
%TO.P,U1,8,UART4_VCC*%
%TO.N,/PSP_UART_VCC*%
X161570000Y-53000000D03*
%TO.P,U1,9,VIDEO_DETECT*%
%TO.N,/PSP_VIDEO_DETECT*%
X162490000Y-53000000D03*
%TO.P,U1,10,WAKE*%
%TO.N,/PSP_WAKE*%
X163410000Y-53000000D03*
%TO.P,U1,11,BLUE/LUME_(Pb)*%
%TO.N,/PSP_BLUE_LUME_PB*%
X164330000Y-53000000D03*
%TO.P,U1,12,VIDEO_GND*%
%TO.N,/GND*%
X165250000Y-53000000D03*
%TD*%
D13*
%TO.P,U8,A,A*%
%TO.N,/audio3*%
X193240387Y-122299975D03*
%TO.P,U8,B,B*%
%TO.N,/audio4*%
X188640437Y-130400051D03*
%TO.P,U8,C,C*%
%TO.N,/audio2*%
X188640437Y-127400051D03*
%TO.P,U8,D,D*%
%TO.N,/audio1*%
X188640437Y-123400051D03*
%TD*%
D14*
%TO.N,/OUT_UART_VCC*%
X174750000Y-116750000D03*
X176500000Y-116250000D03*
%TO.N,/OUT_PSPRX*%
X178000000Y-117250000D03*
X174500000Y-118250000D03*
%TO.N,/PSPRX*%
X170250000Y-124500000D03*
X163750000Y-60000000D03*
X163750000Y-100750000D03*
%TO.N,/PSP_UART_VCC*%
X164750000Y-100750000D03*
X169000000Y-123900000D03*
X164750000Y-59750000D03*
%TO.N,/PSPTX*%
X170750000Y-100750000D03*
X170750000Y-121500000D03*
%TO.N,/OUT_PSPTX*%
X174900000Y-114500000D03*
%TO.N,/PSP_BLUE_LUME_PB*%
X167750000Y-121250000D03*
X167750000Y-100750000D03*
X167425834Y-59600000D03*
%TO.N,/PSP_WAKE*%
X167250000Y-122700000D03*
X166750000Y-100750000D03*
X166384341Y-59600000D03*
%TO.N,/GND*%
X168500000Y-59600000D03*
X168750000Y-100750000D03*
X171750000Y-100750000D03*
X171750000Y-121250000D03*
X168750000Y-119750000D03*
X171650000Y-57500000D03*
X198000000Y-115750000D03*
X170350064Y-59000000D03*
X173500000Y-120500000D03*
X173500000Y-100750000D03*
%TO.N,/PSP_VIDEO_DETECT*%
X168250000Y-123300000D03*
X165750000Y-100750000D03*
X165535813Y-59600000D03*
%TO.N,/LUMA_Y*%
X172500000Y-120750000D03*
X172550003Y-100750000D03*
%TO.N,/PSPMICIN*%
X169750000Y-122250000D03*
X169750000Y-100750000D03*
%TD*%
D15*
%TO.N,/OUT_UART_VCC*%
X176000000Y-116750000D02*
X176500000Y-116250000D01*
X174750000Y-116750000D02*
X176000000Y-116750000D01*
%TO.N,/OUT_PSPRX*%
X177000000Y-118250000D02*
X178000000Y-117250000D01*
X174500000Y-118250000D02*
X177000000Y-118250000D01*
%TO.N,/PSPRX*%
X164500000Y-124500000D02*
X163750000Y-123750000D01*
X163750000Y-123750000D02*
X163750000Y-100750000D01*
X163750000Y-58500000D02*
X160650000Y-55400000D01*
X160650000Y-55400000D02*
X160650000Y-53000000D01*
X170250000Y-124500000D02*
X164500000Y-124500000D01*
X163750000Y-60000000D02*
X163750000Y-58500000D01*
%TO.N,/PSP_UART_VCC*%
X164750000Y-58500000D02*
X161570000Y-55320000D01*
X169000000Y-123900000D02*
X165150000Y-123900000D01*
X164750000Y-59750000D02*
X164750000Y-58500000D01*
X165150000Y-123900000D02*
X164750000Y-123500000D01*
X164750000Y-123500000D02*
X164750000Y-100750000D01*
X161570000Y-55320000D02*
X161570000Y-53000000D01*
%TO.N,/PSPTX*%
X170750000Y-121500000D02*
X170750000Y-100750000D01*
%TO.N,/OUT_PSPTX*%
X174900000Y-114500000D02*
X226700000Y-114500000D01*
X226700000Y-114500000D02*
X227750000Y-115550000D01*
%TO.N,/PSP_BLUE_LUME_PB*%
X167425834Y-59600000D02*
X167215686Y-59389852D01*
X167215686Y-58700000D02*
X164330000Y-55814314D01*
X167215686Y-59389852D02*
X167215686Y-58700000D01*
X167750000Y-121250000D02*
X167750000Y-100750000D01*
X164330000Y-55814314D02*
X164330000Y-53000000D01*
%TO.N,/PSP_WAKE*%
X167200000Y-122700000D02*
X166750000Y-122250000D01*
X166384341Y-58434341D02*
X163410000Y-55460000D01*
X167250000Y-122700000D02*
X167200000Y-122700000D01*
X166384341Y-59600000D02*
X166384341Y-58434341D01*
X166750000Y-122250000D02*
X166750000Y-100750000D01*
X163410000Y-55460000D02*
X163410000Y-53000000D01*
%TO.N,/GND*%
X171750000Y-121250000D02*
X171750000Y-100750000D01*
X189350000Y-120380000D02*
X193370000Y-120380000D01*
X169100000Y-59000000D02*
X168500000Y-59600000D01*
X198000000Y-116280000D02*
X202350000Y-120630000D01*
X165250000Y-55910037D02*
X166839963Y-57500000D01*
X170350064Y-58799936D02*
X171650000Y-57500000D01*
X170350064Y-59000000D02*
X169100000Y-59000000D01*
X165250000Y-53000000D02*
X165250000Y-55910037D01*
X173500000Y-120500000D02*
X173750000Y-120500000D01*
X170350064Y-59000000D02*
X170350064Y-58799936D01*
X168750000Y-100750000D02*
X168750000Y-119750000D01*
X173750000Y-120500000D02*
X173870000Y-120380000D01*
X173500000Y-120500000D02*
X173500000Y-100750000D01*
X198000000Y-115750000D02*
X198000000Y-116280000D01*
X166839963Y-57500000D02*
X171650000Y-57500000D01*
X193370000Y-120380000D02*
X198000000Y-115750000D01*
X173870000Y-120380000D02*
X189350000Y-120380000D01*
%TO.N,/PSP_VIDEO_DETECT*%
X168250000Y-123300000D02*
X166050000Y-123300000D01*
X165535813Y-58687284D02*
X162490000Y-55641471D01*
X166050000Y-123300000D02*
X165750000Y-123000000D01*
X165535813Y-59600000D02*
X165535813Y-58687284D01*
X165750000Y-123000000D02*
X165750000Y-100750000D01*
X162490000Y-55641471D02*
X162490000Y-53000000D01*
%TO.N,/LUMA_Y*%
X172500000Y-120000000D02*
X172550003Y-119949997D01*
X172500000Y-120750000D02*
X172500000Y-120000000D01*
X172550003Y-119949997D02*
X172550003Y-100750000D01*
%TO.N,/PSPMICIN*%
X169750000Y-100750000D02*
X169750000Y-122250000D01*
%TD*%
M02*
