%TF.GenerationSoftware,KiCad,Pcbnew,8.0.4*%
%TF.CreationDate,2025-09-19T21:11:49+01:00*%
%TF.ProjectId,devboard,64657662-6f61-4726-942e-6b696361645f,rev?*%
%TF.SameCoordinates,Original*%
%TF.FileFunction,Legend,Top*%
%TF.FilePolarity,Positive*%
%FSLAX46Y46*%
G04 Gerber Fmt 4.6, Leading zero omitted, Abs format (unit mm)*
G04 Created by KiCad (PCBNEW 8.0.4) date 2025-09-19 21:11:49*
%MOMM*%
%LPD*%
G01*
G04 APERTURE LIST*
G04 Aperture macros list*
%AMRoundRect*
0 Rectangle with rounded corners*
0 $1 Rounding radius*
0 $2 $3 $4 $5 $6 $7 $8 $9 X,Y pos of 4 corners*
0 Add a 4 corners polygon primitive as box body*
4,1,4,$2,$3,$4,$5,$6,$7,$8,$9,$2,$3,0*
0 Add four circle primitives for the rounded corners*
1,1,$1+$1,$2,$3*
1,1,$1+$1,$4,$5*
1,1,$1+$1,$6,$7*
1,1,$1+$1,$8,$9*
0 Add four rect primitives between the rounded corners*
20,1,$1+$1,$2,$3,$4,$5,0*
20,1,$1+$1,$4,$5,$6,$7,0*
20,1,$1+$1,$6,$7,$8,$9,0*
20,1,$1+$1,$8,$9,$2,$3,0*%
G04 Aperture macros list end*
%ADD10C,0.100000*%
%ADD11C,0.150000*%
%ADD12C,0.000000*%
%ADD13C,0.152400*%
%ADD14C,0.120000*%
%ADD15C,0.059995*%
%ADD16C,0.254000*%
%ADD17R,1.132537X1.377013*%
%ADD18R,2.000000X1.200000*%
%ADD19O,2.000000X1.200000*%
%ADD20R,1.775000X1.700000*%
%ADD21R,1.925000X2.125000*%
%ADD22R,1.900000X2.600000*%
%ADD23R,1.625000X2.025000*%
%ADD24R,0.600000X1.600000*%
%ADD25R,0.700000X1.250013*%
%ADD26RoundRect,0.117500X0.117500X1.332500X-0.117500X1.332500X-0.117500X-1.332500X0.117500X-1.332500X0*%
%ADD27R,0.300000X1.200000*%
%ADD28R,2.000000X1.800000*%
%ADD29C,1.200000*%
%ADD30O,1.200000X2.100000*%
G04 APERTURE END LIST*
D10*
X211803884Y-62012475D02*
X211803884Y-61012475D01*
X211803884Y-61012475D02*
X212184836Y-61012475D01*
X212184836Y-61012475D02*
X212280074Y-61060094D01*
X212280074Y-61060094D02*
X212327693Y-61107713D01*
X212327693Y-61107713D02*
X212375312Y-61202951D01*
X212375312Y-61202951D02*
X212375312Y-61345808D01*
X212375312Y-61345808D02*
X212327693Y-61441046D01*
X212327693Y-61441046D02*
X212280074Y-61488665D01*
X212280074Y-61488665D02*
X212184836Y-61536284D01*
X212184836Y-61536284D02*
X211803884Y-61536284D01*
X212756265Y-61964856D02*
X212899122Y-62012475D01*
X212899122Y-62012475D02*
X213137217Y-62012475D01*
X213137217Y-62012475D02*
X213232455Y-61964856D01*
X213232455Y-61964856D02*
X213280074Y-61917236D01*
X213280074Y-61917236D02*
X213327693Y-61821998D01*
X213327693Y-61821998D02*
X213327693Y-61726760D01*
X213327693Y-61726760D02*
X213280074Y-61631522D01*
X213280074Y-61631522D02*
X213232455Y-61583903D01*
X213232455Y-61583903D02*
X213137217Y-61536284D01*
X213137217Y-61536284D02*
X212946741Y-61488665D01*
X212946741Y-61488665D02*
X212851503Y-61441046D01*
X212851503Y-61441046D02*
X212803884Y-61393427D01*
X212803884Y-61393427D02*
X212756265Y-61298189D01*
X212756265Y-61298189D02*
X212756265Y-61202951D01*
X212756265Y-61202951D02*
X212803884Y-61107713D01*
X212803884Y-61107713D02*
X212851503Y-61060094D01*
X212851503Y-61060094D02*
X212946741Y-61012475D01*
X212946741Y-61012475D02*
X213184836Y-61012475D01*
X213184836Y-61012475D02*
X213327693Y-61060094D01*
X213756265Y-62012475D02*
X213756265Y-61012475D01*
X213756265Y-61012475D02*
X214137217Y-61012475D01*
X214137217Y-61012475D02*
X214232455Y-61060094D01*
X214232455Y-61060094D02*
X214280074Y-61107713D01*
X214280074Y-61107713D02*
X214327693Y-61202951D01*
X214327693Y-61202951D02*
X214327693Y-61345808D01*
X214327693Y-61345808D02*
X214280074Y-61441046D01*
X214280074Y-61441046D02*
X214232455Y-61488665D01*
X214232455Y-61488665D02*
X214137217Y-61536284D01*
X214137217Y-61536284D02*
X213756265Y-61536284D01*
X215518170Y-62012475D02*
X215518170Y-61012475D01*
X215518170Y-61012475D02*
X215756265Y-61012475D01*
X215756265Y-61012475D02*
X215899122Y-61060094D01*
X215899122Y-61060094D02*
X215994360Y-61155332D01*
X215994360Y-61155332D02*
X216041979Y-61250570D01*
X216041979Y-61250570D02*
X216089598Y-61441046D01*
X216089598Y-61441046D02*
X216089598Y-61583903D01*
X216089598Y-61583903D02*
X216041979Y-61774379D01*
X216041979Y-61774379D02*
X215994360Y-61869617D01*
X215994360Y-61869617D02*
X215899122Y-61964856D01*
X215899122Y-61964856D02*
X215756265Y-62012475D01*
X215756265Y-62012475D02*
X215518170Y-62012475D01*
X216899122Y-61964856D02*
X216803884Y-62012475D01*
X216803884Y-62012475D02*
X216613408Y-62012475D01*
X216613408Y-62012475D02*
X216518170Y-61964856D01*
X216518170Y-61964856D02*
X216470551Y-61869617D01*
X216470551Y-61869617D02*
X216470551Y-61488665D01*
X216470551Y-61488665D02*
X216518170Y-61393427D01*
X216518170Y-61393427D02*
X216613408Y-61345808D01*
X216613408Y-61345808D02*
X216803884Y-61345808D01*
X216803884Y-61345808D02*
X216899122Y-61393427D01*
X216899122Y-61393427D02*
X216946741Y-61488665D01*
X216946741Y-61488665D02*
X216946741Y-61583903D01*
X216946741Y-61583903D02*
X216470551Y-61679141D01*
X217280075Y-61345808D02*
X217518170Y-62012475D01*
X217518170Y-62012475D02*
X217756265Y-61345808D01*
X218518170Y-61964856D02*
X218422932Y-62012475D01*
X218422932Y-62012475D02*
X218232456Y-62012475D01*
X218232456Y-62012475D02*
X218137218Y-61964856D01*
X218137218Y-61964856D02*
X218089599Y-61869617D01*
X218089599Y-61869617D02*
X218089599Y-61488665D01*
X218089599Y-61488665D02*
X218137218Y-61393427D01*
X218137218Y-61393427D02*
X218232456Y-61345808D01*
X218232456Y-61345808D02*
X218422932Y-61345808D01*
X218422932Y-61345808D02*
X218518170Y-61393427D01*
X218518170Y-61393427D02*
X218565789Y-61488665D01*
X218565789Y-61488665D02*
X218565789Y-61583903D01*
X218565789Y-61583903D02*
X218089599Y-61679141D01*
X219137218Y-62012475D02*
X219041980Y-61964856D01*
X219041980Y-61964856D02*
X218994361Y-61869617D01*
X218994361Y-61869617D02*
X218994361Y-61012475D01*
X219661028Y-62012475D02*
X219565790Y-61964856D01*
X219565790Y-61964856D02*
X219518171Y-61917236D01*
X219518171Y-61917236D02*
X219470552Y-61821998D01*
X219470552Y-61821998D02*
X219470552Y-61536284D01*
X219470552Y-61536284D02*
X219518171Y-61441046D01*
X219518171Y-61441046D02*
X219565790Y-61393427D01*
X219565790Y-61393427D02*
X219661028Y-61345808D01*
X219661028Y-61345808D02*
X219803885Y-61345808D01*
X219803885Y-61345808D02*
X219899123Y-61393427D01*
X219899123Y-61393427D02*
X219946742Y-61441046D01*
X219946742Y-61441046D02*
X219994361Y-61536284D01*
X219994361Y-61536284D02*
X219994361Y-61821998D01*
X219994361Y-61821998D02*
X219946742Y-61917236D01*
X219946742Y-61917236D02*
X219899123Y-61964856D01*
X219899123Y-61964856D02*
X219803885Y-62012475D01*
X219803885Y-62012475D02*
X219661028Y-62012475D01*
X220422933Y-61345808D02*
X220422933Y-62345808D01*
X220422933Y-61393427D02*
X220518171Y-61345808D01*
X220518171Y-61345808D02*
X220708647Y-61345808D01*
X220708647Y-61345808D02*
X220803885Y-61393427D01*
X220803885Y-61393427D02*
X220851504Y-61441046D01*
X220851504Y-61441046D02*
X220899123Y-61536284D01*
X220899123Y-61536284D02*
X220899123Y-61821998D01*
X220899123Y-61821998D02*
X220851504Y-61917236D01*
X220851504Y-61917236D02*
X220803885Y-61964856D01*
X220803885Y-61964856D02*
X220708647Y-62012475D01*
X220708647Y-62012475D02*
X220518171Y-62012475D01*
X220518171Y-62012475D02*
X220422933Y-61964856D01*
X221327695Y-62012475D02*
X221327695Y-61345808D01*
X221327695Y-61441046D02*
X221375314Y-61393427D01*
X221375314Y-61393427D02*
X221470552Y-61345808D01*
X221470552Y-61345808D02*
X221613409Y-61345808D01*
X221613409Y-61345808D02*
X221708647Y-61393427D01*
X221708647Y-61393427D02*
X221756266Y-61488665D01*
X221756266Y-61488665D02*
X221756266Y-62012475D01*
X221756266Y-61488665D02*
X221803885Y-61393427D01*
X221803885Y-61393427D02*
X221899123Y-61345808D01*
X221899123Y-61345808D02*
X222041980Y-61345808D01*
X222041980Y-61345808D02*
X222137219Y-61393427D01*
X222137219Y-61393427D02*
X222184838Y-61488665D01*
X222184838Y-61488665D02*
X222184838Y-62012475D01*
X223041980Y-61964856D02*
X222946742Y-62012475D01*
X222946742Y-62012475D02*
X222756266Y-62012475D01*
X222756266Y-62012475D02*
X222661028Y-61964856D01*
X222661028Y-61964856D02*
X222613409Y-61869617D01*
X222613409Y-61869617D02*
X222613409Y-61488665D01*
X222613409Y-61488665D02*
X222661028Y-61393427D01*
X222661028Y-61393427D02*
X222756266Y-61345808D01*
X222756266Y-61345808D02*
X222946742Y-61345808D01*
X222946742Y-61345808D02*
X223041980Y-61393427D01*
X223041980Y-61393427D02*
X223089599Y-61488665D01*
X223089599Y-61488665D02*
X223089599Y-61583903D01*
X223089599Y-61583903D02*
X222613409Y-61679141D01*
X223518171Y-61345808D02*
X223518171Y-62012475D01*
X223518171Y-61441046D02*
X223565790Y-61393427D01*
X223565790Y-61393427D02*
X223661028Y-61345808D01*
X223661028Y-61345808D02*
X223803885Y-61345808D01*
X223803885Y-61345808D02*
X223899123Y-61393427D01*
X223899123Y-61393427D02*
X223946742Y-61488665D01*
X223946742Y-61488665D02*
X223946742Y-62012475D01*
X224280076Y-61345808D02*
X224661028Y-61345808D01*
X224422933Y-61012475D02*
X224422933Y-61869617D01*
X224422933Y-61869617D02*
X224470552Y-61964856D01*
X224470552Y-61964856D02*
X224565790Y-62012475D01*
X224565790Y-62012475D02*
X224661028Y-62012475D01*
X226089600Y-61488665D02*
X226232457Y-61536284D01*
X226232457Y-61536284D02*
X226280076Y-61583903D01*
X226280076Y-61583903D02*
X226327695Y-61679141D01*
X226327695Y-61679141D02*
X226327695Y-61821998D01*
X226327695Y-61821998D02*
X226280076Y-61917236D01*
X226280076Y-61917236D02*
X226232457Y-61964856D01*
X226232457Y-61964856D02*
X226137219Y-62012475D01*
X226137219Y-62012475D02*
X225756267Y-62012475D01*
X225756267Y-62012475D02*
X225756267Y-61012475D01*
X225756267Y-61012475D02*
X226089600Y-61012475D01*
X226089600Y-61012475D02*
X226184838Y-61060094D01*
X226184838Y-61060094D02*
X226232457Y-61107713D01*
X226232457Y-61107713D02*
X226280076Y-61202951D01*
X226280076Y-61202951D02*
X226280076Y-61298189D01*
X226280076Y-61298189D02*
X226232457Y-61393427D01*
X226232457Y-61393427D02*
X226184838Y-61441046D01*
X226184838Y-61441046D02*
X226089600Y-61488665D01*
X226089600Y-61488665D02*
X225756267Y-61488665D01*
X226899124Y-62012475D02*
X226803886Y-61964856D01*
X226803886Y-61964856D02*
X226756267Y-61917236D01*
X226756267Y-61917236D02*
X226708648Y-61821998D01*
X226708648Y-61821998D02*
X226708648Y-61536284D01*
X226708648Y-61536284D02*
X226756267Y-61441046D01*
X226756267Y-61441046D02*
X226803886Y-61393427D01*
X226803886Y-61393427D02*
X226899124Y-61345808D01*
X226899124Y-61345808D02*
X227041981Y-61345808D01*
X227041981Y-61345808D02*
X227137219Y-61393427D01*
X227137219Y-61393427D02*
X227184838Y-61441046D01*
X227184838Y-61441046D02*
X227232457Y-61536284D01*
X227232457Y-61536284D02*
X227232457Y-61821998D01*
X227232457Y-61821998D02*
X227184838Y-61917236D01*
X227184838Y-61917236D02*
X227137219Y-61964856D01*
X227137219Y-61964856D02*
X227041981Y-62012475D01*
X227041981Y-62012475D02*
X226899124Y-62012475D01*
X228089600Y-62012475D02*
X228089600Y-61488665D01*
X228089600Y-61488665D02*
X228041981Y-61393427D01*
X228041981Y-61393427D02*
X227946743Y-61345808D01*
X227946743Y-61345808D02*
X227756267Y-61345808D01*
X227756267Y-61345808D02*
X227661029Y-61393427D01*
X228089600Y-61964856D02*
X227994362Y-62012475D01*
X227994362Y-62012475D02*
X227756267Y-62012475D01*
X227756267Y-62012475D02*
X227661029Y-61964856D01*
X227661029Y-61964856D02*
X227613410Y-61869617D01*
X227613410Y-61869617D02*
X227613410Y-61774379D01*
X227613410Y-61774379D02*
X227661029Y-61679141D01*
X227661029Y-61679141D02*
X227756267Y-61631522D01*
X227756267Y-61631522D02*
X227994362Y-61631522D01*
X227994362Y-61631522D02*
X228089600Y-61583903D01*
X228565791Y-62012475D02*
X228565791Y-61345808D01*
X228565791Y-61536284D02*
X228613410Y-61441046D01*
X228613410Y-61441046D02*
X228661029Y-61393427D01*
X228661029Y-61393427D02*
X228756267Y-61345808D01*
X228756267Y-61345808D02*
X228851505Y-61345808D01*
X229613410Y-62012475D02*
X229613410Y-61012475D01*
X229613410Y-61964856D02*
X229518172Y-62012475D01*
X229518172Y-62012475D02*
X229327696Y-62012475D01*
X229327696Y-62012475D02*
X229232458Y-61964856D01*
X229232458Y-61964856D02*
X229184839Y-61917236D01*
X229184839Y-61917236D02*
X229137220Y-61821998D01*
X229137220Y-61821998D02*
X229137220Y-61536284D01*
X229137220Y-61536284D02*
X229184839Y-61441046D01*
X229184839Y-61441046D02*
X229232458Y-61393427D01*
X229232458Y-61393427D02*
X229327696Y-61345808D01*
X229327696Y-61345808D02*
X229518172Y-61345808D01*
X229518172Y-61345808D02*
X229613410Y-61393427D01*
X212280074Y-62622419D02*
X211803884Y-62622419D01*
X211803884Y-62622419D02*
X211756265Y-63098609D01*
X211756265Y-63098609D02*
X211803884Y-63050990D01*
X211803884Y-63050990D02*
X211899122Y-63003371D01*
X211899122Y-63003371D02*
X212137217Y-63003371D01*
X212137217Y-63003371D02*
X212232455Y-63050990D01*
X212232455Y-63050990D02*
X212280074Y-63098609D01*
X212280074Y-63098609D02*
X212327693Y-63193847D01*
X212327693Y-63193847D02*
X212327693Y-63431942D01*
X212327693Y-63431942D02*
X212280074Y-63527180D01*
X212280074Y-63527180D02*
X212232455Y-63574800D01*
X212232455Y-63574800D02*
X212137217Y-63622419D01*
X212137217Y-63622419D02*
X211899122Y-63622419D01*
X211899122Y-63622419D02*
X211803884Y-63574800D01*
X211803884Y-63574800D02*
X211756265Y-63527180D01*
X213470550Y-62574800D02*
X212613408Y-63860514D01*
X213946741Y-63050990D02*
X213851503Y-63003371D01*
X213851503Y-63003371D02*
X213803884Y-62955752D01*
X213803884Y-62955752D02*
X213756265Y-62860514D01*
X213756265Y-62860514D02*
X213756265Y-62812895D01*
X213756265Y-62812895D02*
X213803884Y-62717657D01*
X213803884Y-62717657D02*
X213851503Y-62670038D01*
X213851503Y-62670038D02*
X213946741Y-62622419D01*
X213946741Y-62622419D02*
X214137217Y-62622419D01*
X214137217Y-62622419D02*
X214232455Y-62670038D01*
X214232455Y-62670038D02*
X214280074Y-62717657D01*
X214280074Y-62717657D02*
X214327693Y-62812895D01*
X214327693Y-62812895D02*
X214327693Y-62860514D01*
X214327693Y-62860514D02*
X214280074Y-62955752D01*
X214280074Y-62955752D02*
X214232455Y-63003371D01*
X214232455Y-63003371D02*
X214137217Y-63050990D01*
X214137217Y-63050990D02*
X213946741Y-63050990D01*
X213946741Y-63050990D02*
X213851503Y-63098609D01*
X213851503Y-63098609D02*
X213803884Y-63146228D01*
X213803884Y-63146228D02*
X213756265Y-63241466D01*
X213756265Y-63241466D02*
X213756265Y-63431942D01*
X213756265Y-63431942D02*
X213803884Y-63527180D01*
X213803884Y-63527180D02*
X213851503Y-63574800D01*
X213851503Y-63574800D02*
X213946741Y-63622419D01*
X213946741Y-63622419D02*
X214137217Y-63622419D01*
X214137217Y-63622419D02*
X214232455Y-63574800D01*
X214232455Y-63574800D02*
X214280074Y-63527180D01*
X214280074Y-63527180D02*
X214327693Y-63431942D01*
X214327693Y-63431942D02*
X214327693Y-63241466D01*
X214327693Y-63241466D02*
X214280074Y-63146228D01*
X214280074Y-63146228D02*
X214232455Y-63098609D01*
X214232455Y-63098609D02*
X214137217Y-63050990D01*
X215470550Y-62574800D02*
X214613408Y-63860514D01*
X215756265Y-62717657D02*
X215803884Y-62670038D01*
X215803884Y-62670038D02*
X215899122Y-62622419D01*
X215899122Y-62622419D02*
X216137217Y-62622419D01*
X216137217Y-62622419D02*
X216232455Y-62670038D01*
X216232455Y-62670038D02*
X216280074Y-62717657D01*
X216280074Y-62717657D02*
X216327693Y-62812895D01*
X216327693Y-62812895D02*
X216327693Y-62908133D01*
X216327693Y-62908133D02*
X216280074Y-63050990D01*
X216280074Y-63050990D02*
X215708646Y-63622419D01*
X215708646Y-63622419D02*
X216327693Y-63622419D01*
X217232455Y-62622419D02*
X216756265Y-62622419D01*
X216756265Y-62622419D02*
X216708646Y-63098609D01*
X216708646Y-63098609D02*
X216756265Y-63050990D01*
X216756265Y-63050990D02*
X216851503Y-63003371D01*
X216851503Y-63003371D02*
X217089598Y-63003371D01*
X217089598Y-63003371D02*
X217184836Y-63050990D01*
X217184836Y-63050990D02*
X217232455Y-63098609D01*
X217232455Y-63098609D02*
X217280074Y-63193847D01*
X217280074Y-63193847D02*
X217280074Y-63431942D01*
X217280074Y-63431942D02*
X217232455Y-63527180D01*
X217232455Y-63527180D02*
X217184836Y-63574800D01*
X217184836Y-63574800D02*
X217089598Y-63622419D01*
X217089598Y-63622419D02*
X216851503Y-63622419D01*
X216851503Y-63622419D02*
X216756265Y-63574800D01*
X216756265Y-63574800D02*
X216708646Y-63527180D01*
X174161027Y-58622419D02*
X174732455Y-58622419D01*
X174446741Y-59622419D02*
X174446741Y-58622419D01*
X175208646Y-59622419D02*
X175113408Y-59574800D01*
X175113408Y-59574800D02*
X175065789Y-59527180D01*
X175065789Y-59527180D02*
X175018170Y-59431942D01*
X175018170Y-59431942D02*
X175018170Y-59146228D01*
X175018170Y-59146228D02*
X175065789Y-59050990D01*
X175065789Y-59050990D02*
X175113408Y-59003371D01*
X175113408Y-59003371D02*
X175208646Y-58955752D01*
X175208646Y-58955752D02*
X175351503Y-58955752D01*
X175351503Y-58955752D02*
X175446741Y-59003371D01*
X175446741Y-59003371D02*
X175494360Y-59050990D01*
X175494360Y-59050990D02*
X175541979Y-59146228D01*
X175541979Y-59146228D02*
X175541979Y-59431942D01*
X175541979Y-59431942D02*
X175494360Y-59527180D01*
X175494360Y-59527180D02*
X175446741Y-59574800D01*
X175446741Y-59574800D02*
X175351503Y-59622419D01*
X175351503Y-59622419D02*
X175208646Y-59622419D01*
X175970551Y-58955752D02*
X175970551Y-59955752D01*
X175970551Y-59003371D02*
X176065789Y-58955752D01*
X176065789Y-58955752D02*
X176256265Y-58955752D01*
X176256265Y-58955752D02*
X176351503Y-59003371D01*
X176351503Y-59003371D02*
X176399122Y-59050990D01*
X176399122Y-59050990D02*
X176446741Y-59146228D01*
X176446741Y-59146228D02*
X176446741Y-59431942D01*
X176446741Y-59431942D02*
X176399122Y-59527180D01*
X176399122Y-59527180D02*
X176351503Y-59574800D01*
X176351503Y-59574800D02*
X176256265Y-59622419D01*
X176256265Y-59622419D02*
X176065789Y-59622419D01*
X176065789Y-59622419D02*
X175970551Y-59574800D01*
X177922932Y-60003371D02*
X177875313Y-59955752D01*
X177875313Y-59955752D02*
X177780075Y-59812895D01*
X177780075Y-59812895D02*
X177732456Y-59717657D01*
X177732456Y-59717657D02*
X177684837Y-59574800D01*
X177684837Y-59574800D02*
X177637218Y-59336704D01*
X177637218Y-59336704D02*
X177637218Y-59146228D01*
X177637218Y-59146228D02*
X177684837Y-58908133D01*
X177684837Y-58908133D02*
X177732456Y-58765276D01*
X177732456Y-58765276D02*
X177780075Y-58670038D01*
X177780075Y-58670038D02*
X177875313Y-58527180D01*
X177875313Y-58527180D02*
X177922932Y-58479561D01*
X178780075Y-59622419D02*
X178303885Y-59622419D01*
X178303885Y-59622419D02*
X178303885Y-58622419D01*
X179684837Y-59527180D02*
X179637218Y-59574800D01*
X179637218Y-59574800D02*
X179494361Y-59622419D01*
X179494361Y-59622419D02*
X179399123Y-59622419D01*
X179399123Y-59622419D02*
X179256266Y-59574800D01*
X179256266Y-59574800D02*
X179161028Y-59479561D01*
X179161028Y-59479561D02*
X179113409Y-59384323D01*
X179113409Y-59384323D02*
X179065790Y-59193847D01*
X179065790Y-59193847D02*
X179065790Y-59050990D01*
X179065790Y-59050990D02*
X179113409Y-58860514D01*
X179113409Y-58860514D02*
X179161028Y-58765276D01*
X179161028Y-58765276D02*
X179256266Y-58670038D01*
X179256266Y-58670038D02*
X179399123Y-58622419D01*
X179399123Y-58622419D02*
X179494361Y-58622419D01*
X179494361Y-58622419D02*
X179637218Y-58670038D01*
X179637218Y-58670038D02*
X179684837Y-58717657D01*
X180113409Y-59622419D02*
X180113409Y-58622419D01*
X180113409Y-58622419D02*
X180351504Y-58622419D01*
X180351504Y-58622419D02*
X180494361Y-58670038D01*
X180494361Y-58670038D02*
X180589599Y-58765276D01*
X180589599Y-58765276D02*
X180637218Y-58860514D01*
X180637218Y-58860514D02*
X180684837Y-59050990D01*
X180684837Y-59050990D02*
X180684837Y-59193847D01*
X180684837Y-59193847D02*
X180637218Y-59384323D01*
X180637218Y-59384323D02*
X180589599Y-59479561D01*
X180589599Y-59479561D02*
X180494361Y-59574800D01*
X180494361Y-59574800D02*
X180351504Y-59622419D01*
X180351504Y-59622419D02*
X180113409Y-59622419D01*
X181018171Y-60003371D02*
X181065790Y-59955752D01*
X181065790Y-59955752D02*
X181161028Y-59812895D01*
X181161028Y-59812895D02*
X181208647Y-59717657D01*
X181208647Y-59717657D02*
X181256266Y-59574800D01*
X181256266Y-59574800D02*
X181303885Y-59336704D01*
X181303885Y-59336704D02*
X181303885Y-59146228D01*
X181303885Y-59146228D02*
X181256266Y-58908133D01*
X181256266Y-58908133D02*
X181208647Y-58765276D01*
X181208647Y-58765276D02*
X181161028Y-58670038D01*
X181161028Y-58670038D02*
X181065790Y-58527180D01*
X181065790Y-58527180D02*
X181018171Y-58479561D01*
D11*
X214288095Y-84964819D02*
X214288095Y-85774342D01*
X214288095Y-85774342D02*
X214335714Y-85869580D01*
X214335714Y-85869580D02*
X214383333Y-85917200D01*
X214383333Y-85917200D02*
X214478571Y-85964819D01*
X214478571Y-85964819D02*
X214669047Y-85964819D01*
X214669047Y-85964819D02*
X214764285Y-85917200D01*
X214764285Y-85917200D02*
X214811904Y-85869580D01*
X214811904Y-85869580D02*
X214859523Y-85774342D01*
X214859523Y-85774342D02*
X214859523Y-84964819D01*
X215240476Y-84964819D02*
X215907142Y-84964819D01*
X215907142Y-84964819D02*
X215478571Y-85964819D01*
X214981009Y-117335237D02*
X214981009Y-117001904D01*
X215504819Y-116859047D02*
X215504819Y-117335237D01*
X215504819Y-117335237D02*
X214504819Y-117335237D01*
X214504819Y-117335237D02*
X214504819Y-116859047D01*
X215457200Y-116478094D02*
X215504819Y-116335237D01*
X215504819Y-116335237D02*
X215504819Y-116097142D01*
X215504819Y-116097142D02*
X215457200Y-116001904D01*
X215457200Y-116001904D02*
X215409580Y-115954285D01*
X215409580Y-115954285D02*
X215314342Y-115906666D01*
X215314342Y-115906666D02*
X215219104Y-115906666D01*
X215219104Y-115906666D02*
X215123866Y-115954285D01*
X215123866Y-115954285D02*
X215076247Y-116001904D01*
X215076247Y-116001904D02*
X215028628Y-116097142D01*
X215028628Y-116097142D02*
X214981009Y-116287618D01*
X214981009Y-116287618D02*
X214933390Y-116382856D01*
X214933390Y-116382856D02*
X214885771Y-116430475D01*
X214885771Y-116430475D02*
X214790533Y-116478094D01*
X214790533Y-116478094D02*
X214695295Y-116478094D01*
X214695295Y-116478094D02*
X214600057Y-116430475D01*
X214600057Y-116430475D02*
X214552438Y-116382856D01*
X214552438Y-116382856D02*
X214504819Y-116287618D01*
X214504819Y-116287618D02*
X214504819Y-116049523D01*
X214504819Y-116049523D02*
X214552438Y-115906666D01*
X215504819Y-115478094D02*
X214504819Y-115478094D01*
X214504819Y-115478094D02*
X214504819Y-115097142D01*
X214504819Y-115097142D02*
X214552438Y-115001904D01*
X214552438Y-115001904D02*
X214600057Y-114954285D01*
X214600057Y-114954285D02*
X214695295Y-114906666D01*
X214695295Y-114906666D02*
X214838152Y-114906666D01*
X214838152Y-114906666D02*
X214933390Y-114954285D01*
X214933390Y-114954285D02*
X214981009Y-115001904D01*
X214981009Y-115001904D02*
X215028628Y-115097142D01*
X215028628Y-115097142D02*
X215028628Y-115478094D01*
X214504819Y-114573332D02*
X214504819Y-113954285D01*
X214504819Y-113954285D02*
X214885771Y-114287618D01*
X214885771Y-114287618D02*
X214885771Y-114144761D01*
X214885771Y-114144761D02*
X214933390Y-114049523D01*
X214933390Y-114049523D02*
X214981009Y-114001904D01*
X214981009Y-114001904D02*
X215076247Y-113954285D01*
X215076247Y-113954285D02*
X215314342Y-113954285D01*
X215314342Y-113954285D02*
X215409580Y-114001904D01*
X215409580Y-114001904D02*
X215457200Y-114049523D01*
X215457200Y-114049523D02*
X215504819Y-114144761D01*
X215504819Y-114144761D02*
X215504819Y-114430475D01*
X215504819Y-114430475D02*
X215457200Y-114525713D01*
X215457200Y-114525713D02*
X215409580Y-114573332D01*
X214600057Y-113573332D02*
X214552438Y-113525713D01*
X214552438Y-113525713D02*
X214504819Y-113430475D01*
X214504819Y-113430475D02*
X214504819Y-113192380D01*
X214504819Y-113192380D02*
X214552438Y-113097142D01*
X214552438Y-113097142D02*
X214600057Y-113049523D01*
X214600057Y-113049523D02*
X214695295Y-113001904D01*
X214695295Y-113001904D02*
X214790533Y-113001904D01*
X214790533Y-113001904D02*
X214933390Y-113049523D01*
X214933390Y-113049523D02*
X215504819Y-113620951D01*
X215504819Y-113620951D02*
X215504819Y-113001904D01*
X215123866Y-112573332D02*
X215123866Y-111811428D01*
X215504819Y-111335237D02*
X214504819Y-111335237D01*
X214504819Y-111335237D02*
X214504819Y-111097142D01*
X214504819Y-111097142D02*
X214552438Y-110954285D01*
X214552438Y-110954285D02*
X214647676Y-110859047D01*
X214647676Y-110859047D02*
X214742914Y-110811428D01*
X214742914Y-110811428D02*
X214933390Y-110763809D01*
X214933390Y-110763809D02*
X215076247Y-110763809D01*
X215076247Y-110763809D02*
X215266723Y-110811428D01*
X215266723Y-110811428D02*
X215361961Y-110859047D01*
X215361961Y-110859047D02*
X215457200Y-110954285D01*
X215457200Y-110954285D02*
X215504819Y-111097142D01*
X215504819Y-111097142D02*
X215504819Y-111335237D01*
X215457200Y-109954285D02*
X215504819Y-110049523D01*
X215504819Y-110049523D02*
X215504819Y-110239999D01*
X215504819Y-110239999D02*
X215457200Y-110335237D01*
X215457200Y-110335237D02*
X215361961Y-110382856D01*
X215361961Y-110382856D02*
X214981009Y-110382856D01*
X214981009Y-110382856D02*
X214885771Y-110335237D01*
X214885771Y-110335237D02*
X214838152Y-110239999D01*
X214838152Y-110239999D02*
X214838152Y-110049523D01*
X214838152Y-110049523D02*
X214885771Y-109954285D01*
X214885771Y-109954285D02*
X214981009Y-109906666D01*
X214981009Y-109906666D02*
X215076247Y-109906666D01*
X215076247Y-109906666D02*
X215171485Y-110382856D01*
X214838152Y-109573332D02*
X215504819Y-109335237D01*
X215504819Y-109335237D02*
X214838152Y-109097142D01*
X215504819Y-108716189D02*
X214504819Y-108716189D01*
X215504819Y-108144761D02*
X214933390Y-108573332D01*
X214504819Y-108144761D02*
X215076247Y-108716189D01*
X215504819Y-107716189D02*
X214838152Y-107716189D01*
X214504819Y-107716189D02*
X214552438Y-107763808D01*
X214552438Y-107763808D02*
X214600057Y-107716189D01*
X214600057Y-107716189D02*
X214552438Y-107668570D01*
X214552438Y-107668570D02*
X214504819Y-107716189D01*
X214504819Y-107716189D02*
X214600057Y-107716189D01*
X214838152Y-107382856D02*
X214838152Y-107001904D01*
X214504819Y-107239999D02*
X215361961Y-107239999D01*
X215361961Y-107239999D02*
X215457200Y-107192380D01*
X215457200Y-107192380D02*
X215504819Y-107097142D01*
X215504819Y-107097142D02*
X215504819Y-107001904D01*
X215409580Y-106097142D02*
X215457200Y-106144761D01*
X215457200Y-106144761D02*
X215504819Y-106287618D01*
X215504819Y-106287618D02*
X215504819Y-106382856D01*
X215504819Y-106382856D02*
X215457200Y-106525713D01*
X215457200Y-106525713D02*
X215361961Y-106620951D01*
X215361961Y-106620951D02*
X215266723Y-106668570D01*
X215266723Y-106668570D02*
X215076247Y-106716189D01*
X215076247Y-106716189D02*
X214933390Y-106716189D01*
X214933390Y-106716189D02*
X214742914Y-106668570D01*
X214742914Y-106668570D02*
X214647676Y-106620951D01*
X214647676Y-106620951D02*
X214552438Y-106525713D01*
X214552438Y-106525713D02*
X214504819Y-106382856D01*
X214504819Y-106382856D02*
X214504819Y-106287618D01*
X214504819Y-106287618D02*
X214552438Y-106144761D01*
X214552438Y-106144761D02*
X214600057Y-106097142D01*
X223114649Y-107579366D02*
X223047982Y-107546033D01*
X223047982Y-107546033D02*
X222947982Y-107546033D01*
X222947982Y-107546033D02*
X222847982Y-107579366D01*
X222847982Y-107579366D02*
X222781316Y-107646033D01*
X222781316Y-107646033D02*
X222747982Y-107712700D01*
X222747982Y-107712700D02*
X222714649Y-107846033D01*
X222714649Y-107846033D02*
X222714649Y-107946033D01*
X222714649Y-107946033D02*
X222747982Y-108079366D01*
X222747982Y-108079366D02*
X222781316Y-108146033D01*
X222781316Y-108146033D02*
X222847982Y-108212700D01*
X222847982Y-108212700D02*
X222947982Y-108246033D01*
X222947982Y-108246033D02*
X223014649Y-108246033D01*
X223014649Y-108246033D02*
X223114649Y-108212700D01*
X223114649Y-108212700D02*
X223147982Y-108179366D01*
X223147982Y-108179366D02*
X223147982Y-107946033D01*
X223147982Y-107946033D02*
X223014649Y-107946033D01*
X223447982Y-108246033D02*
X223447982Y-107546033D01*
X223447982Y-107546033D02*
X223714649Y-107546033D01*
X223714649Y-107546033D02*
X223781316Y-107579366D01*
X223781316Y-107579366D02*
X223814649Y-107612700D01*
X223814649Y-107612700D02*
X223847982Y-107679366D01*
X223847982Y-107679366D02*
X223847982Y-107779366D01*
X223847982Y-107779366D02*
X223814649Y-107846033D01*
X223814649Y-107846033D02*
X223781316Y-107879366D01*
X223781316Y-107879366D02*
X223714649Y-107912700D01*
X223714649Y-107912700D02*
X223447982Y-107912700D01*
X224147982Y-108246033D02*
X224147982Y-107546033D01*
X224614649Y-107546033D02*
X224747982Y-107546033D01*
X224747982Y-107546033D02*
X224814649Y-107579366D01*
X224814649Y-107579366D02*
X224881315Y-107646033D01*
X224881315Y-107646033D02*
X224914649Y-107779366D01*
X224914649Y-107779366D02*
X224914649Y-108012700D01*
X224914649Y-108012700D02*
X224881315Y-108146033D01*
X224881315Y-108146033D02*
X224814649Y-108212700D01*
X224814649Y-108212700D02*
X224747982Y-108246033D01*
X224747982Y-108246033D02*
X224614649Y-108246033D01*
X224614649Y-108246033D02*
X224547982Y-108212700D01*
X224547982Y-108212700D02*
X224481315Y-108146033D01*
X224481315Y-108146033D02*
X224447982Y-108012700D01*
X224447982Y-108012700D02*
X224447982Y-107779366D01*
X224447982Y-107779366D02*
X224481315Y-107646033D01*
X224481315Y-107646033D02*
X224547982Y-107579366D01*
X224547982Y-107579366D02*
X224614649Y-107546033D01*
X225581315Y-108246033D02*
X225181315Y-108246033D01*
X225381315Y-108246033D02*
X225381315Y-107546033D01*
X225381315Y-107546033D02*
X225314648Y-107646033D01*
X225314648Y-107646033D02*
X225247982Y-107712700D01*
X225247982Y-107712700D02*
X225181315Y-107746033D01*
X225981315Y-107846033D02*
X225914649Y-107812700D01*
X225914649Y-107812700D02*
X225881315Y-107779366D01*
X225881315Y-107779366D02*
X225847982Y-107712700D01*
X225847982Y-107712700D02*
X225847982Y-107679366D01*
X225847982Y-107679366D02*
X225881315Y-107612700D01*
X225881315Y-107612700D02*
X225914649Y-107579366D01*
X225914649Y-107579366D02*
X225981315Y-107546033D01*
X225981315Y-107546033D02*
X226114649Y-107546033D01*
X226114649Y-107546033D02*
X226181315Y-107579366D01*
X226181315Y-107579366D02*
X226214649Y-107612700D01*
X226214649Y-107612700D02*
X226247982Y-107679366D01*
X226247982Y-107679366D02*
X226247982Y-107712700D01*
X226247982Y-107712700D02*
X226214649Y-107779366D01*
X226214649Y-107779366D02*
X226181315Y-107812700D01*
X226181315Y-107812700D02*
X226114649Y-107846033D01*
X226114649Y-107846033D02*
X225981315Y-107846033D01*
X225981315Y-107846033D02*
X225914649Y-107879366D01*
X225914649Y-107879366D02*
X225881315Y-107912700D01*
X225881315Y-107912700D02*
X225847982Y-107979366D01*
X225847982Y-107979366D02*
X225847982Y-108112700D01*
X225847982Y-108112700D02*
X225881315Y-108179366D01*
X225881315Y-108179366D02*
X225914649Y-108212700D01*
X225914649Y-108212700D02*
X225981315Y-108246033D01*
X225981315Y-108246033D02*
X226114649Y-108246033D01*
X226114649Y-108246033D02*
X226181315Y-108212700D01*
X226181315Y-108212700D02*
X226214649Y-108179366D01*
X226214649Y-108179366D02*
X226247982Y-108112700D01*
X226247982Y-108112700D02*
X226247982Y-107979366D01*
X226247982Y-107979366D02*
X226214649Y-107912700D01*
X226214649Y-107912700D02*
X226181315Y-107879366D01*
X226181315Y-107879366D02*
X226114649Y-107846033D01*
X223114649Y-89799366D02*
X223047982Y-89766033D01*
X223047982Y-89766033D02*
X222947982Y-89766033D01*
X222947982Y-89766033D02*
X222847982Y-89799366D01*
X222847982Y-89799366D02*
X222781316Y-89866033D01*
X222781316Y-89866033D02*
X222747982Y-89932700D01*
X222747982Y-89932700D02*
X222714649Y-90066033D01*
X222714649Y-90066033D02*
X222714649Y-90166033D01*
X222714649Y-90166033D02*
X222747982Y-90299366D01*
X222747982Y-90299366D02*
X222781316Y-90366033D01*
X222781316Y-90366033D02*
X222847982Y-90432700D01*
X222847982Y-90432700D02*
X222947982Y-90466033D01*
X222947982Y-90466033D02*
X223014649Y-90466033D01*
X223014649Y-90466033D02*
X223114649Y-90432700D01*
X223114649Y-90432700D02*
X223147982Y-90399366D01*
X223147982Y-90399366D02*
X223147982Y-90166033D01*
X223147982Y-90166033D02*
X223014649Y-90166033D01*
X223447982Y-90466033D02*
X223447982Y-89766033D01*
X223447982Y-89766033D02*
X223714649Y-89766033D01*
X223714649Y-89766033D02*
X223781316Y-89799366D01*
X223781316Y-89799366D02*
X223814649Y-89832700D01*
X223814649Y-89832700D02*
X223847982Y-89899366D01*
X223847982Y-89899366D02*
X223847982Y-89999366D01*
X223847982Y-89999366D02*
X223814649Y-90066033D01*
X223814649Y-90066033D02*
X223781316Y-90099366D01*
X223781316Y-90099366D02*
X223714649Y-90132700D01*
X223714649Y-90132700D02*
X223447982Y-90132700D01*
X224147982Y-90466033D02*
X224147982Y-89766033D01*
X224614649Y-89766033D02*
X224747982Y-89766033D01*
X224747982Y-89766033D02*
X224814649Y-89799366D01*
X224814649Y-89799366D02*
X224881315Y-89866033D01*
X224881315Y-89866033D02*
X224914649Y-89999366D01*
X224914649Y-89999366D02*
X224914649Y-90232700D01*
X224914649Y-90232700D02*
X224881315Y-90366033D01*
X224881315Y-90366033D02*
X224814649Y-90432700D01*
X224814649Y-90432700D02*
X224747982Y-90466033D01*
X224747982Y-90466033D02*
X224614649Y-90466033D01*
X224614649Y-90466033D02*
X224547982Y-90432700D01*
X224547982Y-90432700D02*
X224481315Y-90366033D01*
X224481315Y-90366033D02*
X224447982Y-90232700D01*
X224447982Y-90232700D02*
X224447982Y-89999366D01*
X224447982Y-89999366D02*
X224481315Y-89866033D01*
X224481315Y-89866033D02*
X224547982Y-89799366D01*
X224547982Y-89799366D02*
X224614649Y-89766033D01*
X225181315Y-89832700D02*
X225214648Y-89799366D01*
X225214648Y-89799366D02*
X225281315Y-89766033D01*
X225281315Y-89766033D02*
X225447982Y-89766033D01*
X225447982Y-89766033D02*
X225514648Y-89799366D01*
X225514648Y-89799366D02*
X225547982Y-89832700D01*
X225547982Y-89832700D02*
X225581315Y-89899366D01*
X225581315Y-89899366D02*
X225581315Y-89966033D01*
X225581315Y-89966033D02*
X225547982Y-90066033D01*
X225547982Y-90066033D02*
X225147982Y-90466033D01*
X225147982Y-90466033D02*
X225581315Y-90466033D01*
X225814649Y-89766033D02*
X226247982Y-89766033D01*
X226247982Y-89766033D02*
X226014649Y-90032700D01*
X226014649Y-90032700D02*
X226114649Y-90032700D01*
X226114649Y-90032700D02*
X226181315Y-90066033D01*
X226181315Y-90066033D02*
X226214649Y-90099366D01*
X226214649Y-90099366D02*
X226247982Y-90166033D01*
X226247982Y-90166033D02*
X226247982Y-90332700D01*
X226247982Y-90332700D02*
X226214649Y-90399366D01*
X226214649Y-90399366D02*
X226181315Y-90432700D01*
X226181315Y-90432700D02*
X226114649Y-90466033D01*
X226114649Y-90466033D02*
X225914649Y-90466033D01*
X225914649Y-90466033D02*
X225847982Y-90432700D01*
X225847982Y-90432700D02*
X225814649Y-90399366D01*
X203885350Y-126026033D02*
X203885350Y-125326033D01*
X203885350Y-125326033D02*
X204052017Y-125326033D01*
X204052017Y-125326033D02*
X204152017Y-125359366D01*
X204152017Y-125359366D02*
X204218684Y-125426033D01*
X204218684Y-125426033D02*
X204252017Y-125492700D01*
X204252017Y-125492700D02*
X204285350Y-125626033D01*
X204285350Y-125626033D02*
X204285350Y-125726033D01*
X204285350Y-125726033D02*
X204252017Y-125859366D01*
X204252017Y-125859366D02*
X204218684Y-125926033D01*
X204218684Y-125926033D02*
X204152017Y-125992700D01*
X204152017Y-125992700D02*
X204052017Y-126026033D01*
X204052017Y-126026033D02*
X203885350Y-126026033D01*
X204552017Y-125392700D02*
X204585350Y-125359366D01*
X204585350Y-125359366D02*
X204652017Y-125326033D01*
X204652017Y-125326033D02*
X204818684Y-125326033D01*
X204818684Y-125326033D02*
X204885350Y-125359366D01*
X204885350Y-125359366D02*
X204918684Y-125392700D01*
X204918684Y-125392700D02*
X204952017Y-125459366D01*
X204952017Y-125459366D02*
X204952017Y-125526033D01*
X204952017Y-125526033D02*
X204918684Y-125626033D01*
X204918684Y-125626033D02*
X204518684Y-126026033D01*
X204518684Y-126026033D02*
X204952017Y-126026033D01*
X204252017Y-117739366D02*
X204185350Y-117706033D01*
X204185350Y-117706033D02*
X204085350Y-117706033D01*
X204085350Y-117706033D02*
X203985350Y-117739366D01*
X203985350Y-117739366D02*
X203918684Y-117806033D01*
X203918684Y-117806033D02*
X203885350Y-117872700D01*
X203885350Y-117872700D02*
X203852017Y-118006033D01*
X203852017Y-118006033D02*
X203852017Y-118106033D01*
X203852017Y-118106033D02*
X203885350Y-118239366D01*
X203885350Y-118239366D02*
X203918684Y-118306033D01*
X203918684Y-118306033D02*
X203985350Y-118372700D01*
X203985350Y-118372700D02*
X204085350Y-118406033D01*
X204085350Y-118406033D02*
X204152017Y-118406033D01*
X204152017Y-118406033D02*
X204252017Y-118372700D01*
X204252017Y-118372700D02*
X204285350Y-118339366D01*
X204285350Y-118339366D02*
X204285350Y-118106033D01*
X204285350Y-118106033D02*
X204152017Y-118106033D01*
X204585350Y-118406033D02*
X204585350Y-117706033D01*
X204585350Y-117706033D02*
X204852017Y-117706033D01*
X204852017Y-117706033D02*
X204918684Y-117739366D01*
X204918684Y-117739366D02*
X204952017Y-117772700D01*
X204952017Y-117772700D02*
X204985350Y-117839366D01*
X204985350Y-117839366D02*
X204985350Y-117939366D01*
X204985350Y-117939366D02*
X204952017Y-118006033D01*
X204952017Y-118006033D02*
X204918684Y-118039366D01*
X204918684Y-118039366D02*
X204852017Y-118072700D01*
X204852017Y-118072700D02*
X204585350Y-118072700D01*
X205285350Y-118406033D02*
X205285350Y-117706033D01*
X205752017Y-117706033D02*
X205885350Y-117706033D01*
X205885350Y-117706033D02*
X205952017Y-117739366D01*
X205952017Y-117739366D02*
X206018683Y-117806033D01*
X206018683Y-117806033D02*
X206052017Y-117939366D01*
X206052017Y-117939366D02*
X206052017Y-118172700D01*
X206052017Y-118172700D02*
X206018683Y-118306033D01*
X206018683Y-118306033D02*
X205952017Y-118372700D01*
X205952017Y-118372700D02*
X205885350Y-118406033D01*
X205885350Y-118406033D02*
X205752017Y-118406033D01*
X205752017Y-118406033D02*
X205685350Y-118372700D01*
X205685350Y-118372700D02*
X205618683Y-118306033D01*
X205618683Y-118306033D02*
X205585350Y-118172700D01*
X205585350Y-118172700D02*
X205585350Y-117939366D01*
X205585350Y-117939366D02*
X205618683Y-117806033D01*
X205618683Y-117806033D02*
X205685350Y-117739366D01*
X205685350Y-117739366D02*
X205752017Y-117706033D01*
X206718683Y-118406033D02*
X206318683Y-118406033D01*
X206518683Y-118406033D02*
X206518683Y-117706033D01*
X206518683Y-117706033D02*
X206452016Y-117806033D01*
X206452016Y-117806033D02*
X206385350Y-117872700D01*
X206385350Y-117872700D02*
X206318683Y-117906033D01*
X206985350Y-117772700D02*
X207018683Y-117739366D01*
X207018683Y-117739366D02*
X207085350Y-117706033D01*
X207085350Y-117706033D02*
X207252017Y-117706033D01*
X207252017Y-117706033D02*
X207318683Y-117739366D01*
X207318683Y-117739366D02*
X207352017Y-117772700D01*
X207352017Y-117772700D02*
X207385350Y-117839366D01*
X207385350Y-117839366D02*
X207385350Y-117906033D01*
X207385350Y-117906033D02*
X207352017Y-118006033D01*
X207352017Y-118006033D02*
X206952017Y-118406033D01*
X206952017Y-118406033D02*
X207385350Y-118406033D01*
X208185350Y-117672700D02*
X207585350Y-118572700D01*
X208418683Y-118406033D02*
X208418683Y-117706033D01*
X208418683Y-117706033D02*
X208652017Y-118206033D01*
X208652017Y-118206033D02*
X208885350Y-117706033D01*
X208885350Y-117706033D02*
X208885350Y-118406033D01*
X209118683Y-117706033D02*
X209518683Y-117706033D01*
X209318683Y-118406033D02*
X209318683Y-117706033D01*
X209752016Y-118406033D02*
X209752016Y-117706033D01*
X209752016Y-117706033D02*
X209918683Y-117706033D01*
X209918683Y-117706033D02*
X210018683Y-117739366D01*
X210018683Y-117739366D02*
X210085350Y-117806033D01*
X210085350Y-117806033D02*
X210118683Y-117872700D01*
X210118683Y-117872700D02*
X210152016Y-118006033D01*
X210152016Y-118006033D02*
X210152016Y-118106033D01*
X210152016Y-118106033D02*
X210118683Y-118239366D01*
X210118683Y-118239366D02*
X210085350Y-118306033D01*
X210085350Y-118306033D02*
X210018683Y-118372700D01*
X210018683Y-118372700D02*
X209918683Y-118406033D01*
X209918683Y-118406033D02*
X209752016Y-118406033D01*
X210452016Y-118406033D02*
X210452016Y-117706033D01*
X204252017Y-102499366D02*
X204185350Y-102466033D01*
X204185350Y-102466033D02*
X204085350Y-102466033D01*
X204085350Y-102466033D02*
X203985350Y-102499366D01*
X203985350Y-102499366D02*
X203918684Y-102566033D01*
X203918684Y-102566033D02*
X203885350Y-102632700D01*
X203885350Y-102632700D02*
X203852017Y-102766033D01*
X203852017Y-102766033D02*
X203852017Y-102866033D01*
X203852017Y-102866033D02*
X203885350Y-102999366D01*
X203885350Y-102999366D02*
X203918684Y-103066033D01*
X203918684Y-103066033D02*
X203985350Y-103132700D01*
X203985350Y-103132700D02*
X204085350Y-103166033D01*
X204085350Y-103166033D02*
X204152017Y-103166033D01*
X204152017Y-103166033D02*
X204252017Y-103132700D01*
X204252017Y-103132700D02*
X204285350Y-103099366D01*
X204285350Y-103099366D02*
X204285350Y-102866033D01*
X204285350Y-102866033D02*
X204152017Y-102866033D01*
X204585350Y-103166033D02*
X204585350Y-102466033D01*
X204585350Y-102466033D02*
X204852017Y-102466033D01*
X204852017Y-102466033D02*
X204918684Y-102499366D01*
X204918684Y-102499366D02*
X204952017Y-102532700D01*
X204952017Y-102532700D02*
X204985350Y-102599366D01*
X204985350Y-102599366D02*
X204985350Y-102699366D01*
X204985350Y-102699366D02*
X204952017Y-102766033D01*
X204952017Y-102766033D02*
X204918684Y-102799366D01*
X204918684Y-102799366D02*
X204852017Y-102832700D01*
X204852017Y-102832700D02*
X204585350Y-102832700D01*
X205285350Y-103166033D02*
X205285350Y-102466033D01*
X205752017Y-102466033D02*
X205885350Y-102466033D01*
X205885350Y-102466033D02*
X205952017Y-102499366D01*
X205952017Y-102499366D02*
X206018683Y-102566033D01*
X206018683Y-102566033D02*
X206052017Y-102699366D01*
X206052017Y-102699366D02*
X206052017Y-102932700D01*
X206052017Y-102932700D02*
X206018683Y-103066033D01*
X206018683Y-103066033D02*
X205952017Y-103132700D01*
X205952017Y-103132700D02*
X205885350Y-103166033D01*
X205885350Y-103166033D02*
X205752017Y-103166033D01*
X205752017Y-103166033D02*
X205685350Y-103132700D01*
X205685350Y-103132700D02*
X205618683Y-103066033D01*
X205618683Y-103066033D02*
X205585350Y-102932700D01*
X205585350Y-102932700D02*
X205585350Y-102699366D01*
X205585350Y-102699366D02*
X205618683Y-102566033D01*
X205618683Y-102566033D02*
X205685350Y-102499366D01*
X205685350Y-102499366D02*
X205752017Y-102466033D01*
X206285350Y-102466033D02*
X206718683Y-102466033D01*
X206718683Y-102466033D02*
X206485350Y-102732700D01*
X206485350Y-102732700D02*
X206585350Y-102732700D01*
X206585350Y-102732700D02*
X206652016Y-102766033D01*
X206652016Y-102766033D02*
X206685350Y-102799366D01*
X206685350Y-102799366D02*
X206718683Y-102866033D01*
X206718683Y-102866033D02*
X206718683Y-103032700D01*
X206718683Y-103032700D02*
X206685350Y-103099366D01*
X206685350Y-103099366D02*
X206652016Y-103132700D01*
X206652016Y-103132700D02*
X206585350Y-103166033D01*
X206585350Y-103166033D02*
X206385350Y-103166033D01*
X206385350Y-103166033D02*
X206318683Y-103132700D01*
X206318683Y-103132700D02*
X206285350Y-103099366D01*
X206985350Y-102532700D02*
X207018683Y-102499366D01*
X207018683Y-102499366D02*
X207085350Y-102466033D01*
X207085350Y-102466033D02*
X207252017Y-102466033D01*
X207252017Y-102466033D02*
X207318683Y-102499366D01*
X207318683Y-102499366D02*
X207352017Y-102532700D01*
X207352017Y-102532700D02*
X207385350Y-102599366D01*
X207385350Y-102599366D02*
X207385350Y-102666033D01*
X207385350Y-102666033D02*
X207352017Y-102766033D01*
X207352017Y-102766033D02*
X206952017Y-103166033D01*
X206952017Y-103166033D02*
X207385350Y-103166033D01*
X204252017Y-110119366D02*
X204185350Y-110086033D01*
X204185350Y-110086033D02*
X204085350Y-110086033D01*
X204085350Y-110086033D02*
X203985350Y-110119366D01*
X203985350Y-110119366D02*
X203918684Y-110186033D01*
X203918684Y-110186033D02*
X203885350Y-110252700D01*
X203885350Y-110252700D02*
X203852017Y-110386033D01*
X203852017Y-110386033D02*
X203852017Y-110486033D01*
X203852017Y-110486033D02*
X203885350Y-110619366D01*
X203885350Y-110619366D02*
X203918684Y-110686033D01*
X203918684Y-110686033D02*
X203985350Y-110752700D01*
X203985350Y-110752700D02*
X204085350Y-110786033D01*
X204085350Y-110786033D02*
X204152017Y-110786033D01*
X204152017Y-110786033D02*
X204252017Y-110752700D01*
X204252017Y-110752700D02*
X204285350Y-110719366D01*
X204285350Y-110719366D02*
X204285350Y-110486033D01*
X204285350Y-110486033D02*
X204152017Y-110486033D01*
X204585350Y-110786033D02*
X204585350Y-110086033D01*
X204585350Y-110086033D02*
X204852017Y-110086033D01*
X204852017Y-110086033D02*
X204918684Y-110119366D01*
X204918684Y-110119366D02*
X204952017Y-110152700D01*
X204952017Y-110152700D02*
X204985350Y-110219366D01*
X204985350Y-110219366D02*
X204985350Y-110319366D01*
X204985350Y-110319366D02*
X204952017Y-110386033D01*
X204952017Y-110386033D02*
X204918684Y-110419366D01*
X204918684Y-110419366D02*
X204852017Y-110452700D01*
X204852017Y-110452700D02*
X204585350Y-110452700D01*
X205285350Y-110786033D02*
X205285350Y-110086033D01*
X205752017Y-110086033D02*
X205885350Y-110086033D01*
X205885350Y-110086033D02*
X205952017Y-110119366D01*
X205952017Y-110119366D02*
X206018683Y-110186033D01*
X206018683Y-110186033D02*
X206052017Y-110319366D01*
X206052017Y-110319366D02*
X206052017Y-110552700D01*
X206052017Y-110552700D02*
X206018683Y-110686033D01*
X206018683Y-110686033D02*
X205952017Y-110752700D01*
X205952017Y-110752700D02*
X205885350Y-110786033D01*
X205885350Y-110786033D02*
X205752017Y-110786033D01*
X205752017Y-110786033D02*
X205685350Y-110752700D01*
X205685350Y-110752700D02*
X205618683Y-110686033D01*
X205618683Y-110686033D02*
X205585350Y-110552700D01*
X205585350Y-110552700D02*
X205585350Y-110319366D01*
X205585350Y-110319366D02*
X205618683Y-110186033D01*
X205618683Y-110186033D02*
X205685350Y-110119366D01*
X205685350Y-110119366D02*
X205752017Y-110086033D01*
X206318683Y-110152700D02*
X206352016Y-110119366D01*
X206352016Y-110119366D02*
X206418683Y-110086033D01*
X206418683Y-110086033D02*
X206585350Y-110086033D01*
X206585350Y-110086033D02*
X206652016Y-110119366D01*
X206652016Y-110119366D02*
X206685350Y-110152700D01*
X206685350Y-110152700D02*
X206718683Y-110219366D01*
X206718683Y-110219366D02*
X206718683Y-110286033D01*
X206718683Y-110286033D02*
X206685350Y-110386033D01*
X206685350Y-110386033D02*
X206285350Y-110786033D01*
X206285350Y-110786033D02*
X206718683Y-110786033D01*
X207318683Y-110086033D02*
X207185350Y-110086033D01*
X207185350Y-110086033D02*
X207118683Y-110119366D01*
X207118683Y-110119366D02*
X207085350Y-110152700D01*
X207085350Y-110152700D02*
X207018683Y-110252700D01*
X207018683Y-110252700D02*
X206985350Y-110386033D01*
X206985350Y-110386033D02*
X206985350Y-110652700D01*
X206985350Y-110652700D02*
X207018683Y-110719366D01*
X207018683Y-110719366D02*
X207052017Y-110752700D01*
X207052017Y-110752700D02*
X207118683Y-110786033D01*
X207118683Y-110786033D02*
X207252017Y-110786033D01*
X207252017Y-110786033D02*
X207318683Y-110752700D01*
X207318683Y-110752700D02*
X207352017Y-110719366D01*
X207352017Y-110719366D02*
X207385350Y-110652700D01*
X207385350Y-110652700D02*
X207385350Y-110486033D01*
X207385350Y-110486033D02*
X207352017Y-110419366D01*
X207352017Y-110419366D02*
X207318683Y-110386033D01*
X207318683Y-110386033D02*
X207252017Y-110352700D01*
X207252017Y-110352700D02*
X207118683Y-110352700D01*
X207118683Y-110352700D02*
X207052017Y-110386033D01*
X207052017Y-110386033D02*
X207018683Y-110419366D01*
X207018683Y-110419366D02*
X206985350Y-110486033D01*
X219747983Y-94879366D02*
X219681316Y-94846033D01*
X219681316Y-94846033D02*
X219581316Y-94846033D01*
X219581316Y-94846033D02*
X219481316Y-94879366D01*
X219481316Y-94879366D02*
X219414650Y-94946033D01*
X219414650Y-94946033D02*
X219381316Y-95012700D01*
X219381316Y-95012700D02*
X219347983Y-95146033D01*
X219347983Y-95146033D02*
X219347983Y-95246033D01*
X219347983Y-95246033D02*
X219381316Y-95379366D01*
X219381316Y-95379366D02*
X219414650Y-95446033D01*
X219414650Y-95446033D02*
X219481316Y-95512700D01*
X219481316Y-95512700D02*
X219581316Y-95546033D01*
X219581316Y-95546033D02*
X219647983Y-95546033D01*
X219647983Y-95546033D02*
X219747983Y-95512700D01*
X219747983Y-95512700D02*
X219781316Y-95479366D01*
X219781316Y-95479366D02*
X219781316Y-95246033D01*
X219781316Y-95246033D02*
X219647983Y-95246033D01*
X220081316Y-95546033D02*
X220081316Y-94846033D01*
X220081316Y-94846033D02*
X220347983Y-94846033D01*
X220347983Y-94846033D02*
X220414650Y-94879366D01*
X220414650Y-94879366D02*
X220447983Y-94912700D01*
X220447983Y-94912700D02*
X220481316Y-94979366D01*
X220481316Y-94979366D02*
X220481316Y-95079366D01*
X220481316Y-95079366D02*
X220447983Y-95146033D01*
X220447983Y-95146033D02*
X220414650Y-95179366D01*
X220414650Y-95179366D02*
X220347983Y-95212700D01*
X220347983Y-95212700D02*
X220081316Y-95212700D01*
X220781316Y-95546033D02*
X220781316Y-94846033D01*
X221247983Y-94846033D02*
X221381316Y-94846033D01*
X221381316Y-94846033D02*
X221447983Y-94879366D01*
X221447983Y-94879366D02*
X221514649Y-94946033D01*
X221514649Y-94946033D02*
X221547983Y-95079366D01*
X221547983Y-95079366D02*
X221547983Y-95312700D01*
X221547983Y-95312700D02*
X221514649Y-95446033D01*
X221514649Y-95446033D02*
X221447983Y-95512700D01*
X221447983Y-95512700D02*
X221381316Y-95546033D01*
X221381316Y-95546033D02*
X221247983Y-95546033D01*
X221247983Y-95546033D02*
X221181316Y-95512700D01*
X221181316Y-95512700D02*
X221114649Y-95446033D01*
X221114649Y-95446033D02*
X221081316Y-95312700D01*
X221081316Y-95312700D02*
X221081316Y-95079366D01*
X221081316Y-95079366D02*
X221114649Y-94946033D01*
X221114649Y-94946033D02*
X221181316Y-94879366D01*
X221181316Y-94879366D02*
X221247983Y-94846033D01*
X222214649Y-95546033D02*
X221814649Y-95546033D01*
X222014649Y-95546033D02*
X222014649Y-94846033D01*
X222014649Y-94846033D02*
X221947982Y-94946033D01*
X221947982Y-94946033D02*
X221881316Y-95012700D01*
X221881316Y-95012700D02*
X221814649Y-95046033D01*
X223014649Y-94812700D02*
X222414649Y-95712700D01*
X223247982Y-94846033D02*
X223247982Y-95412700D01*
X223247982Y-95412700D02*
X223281316Y-95479366D01*
X223281316Y-95479366D02*
X223314649Y-95512700D01*
X223314649Y-95512700D02*
X223381316Y-95546033D01*
X223381316Y-95546033D02*
X223514649Y-95546033D01*
X223514649Y-95546033D02*
X223581316Y-95512700D01*
X223581316Y-95512700D02*
X223614649Y-95479366D01*
X223614649Y-95479366D02*
X223647982Y-95412700D01*
X223647982Y-95412700D02*
X223647982Y-94846033D01*
X224114649Y-94846033D02*
X224181315Y-94846033D01*
X224181315Y-94846033D02*
X224247982Y-94879366D01*
X224247982Y-94879366D02*
X224281315Y-94912700D01*
X224281315Y-94912700D02*
X224314649Y-94979366D01*
X224314649Y-94979366D02*
X224347982Y-95112700D01*
X224347982Y-95112700D02*
X224347982Y-95279366D01*
X224347982Y-95279366D02*
X224314649Y-95412700D01*
X224314649Y-95412700D02*
X224281315Y-95479366D01*
X224281315Y-95479366D02*
X224247982Y-95512700D01*
X224247982Y-95512700D02*
X224181315Y-95546033D01*
X224181315Y-95546033D02*
X224114649Y-95546033D01*
X224114649Y-95546033D02*
X224047982Y-95512700D01*
X224047982Y-95512700D02*
X224014649Y-95479366D01*
X224014649Y-95479366D02*
X223981315Y-95412700D01*
X223981315Y-95412700D02*
X223947982Y-95279366D01*
X223947982Y-95279366D02*
X223947982Y-95112700D01*
X223947982Y-95112700D02*
X223981315Y-94979366D01*
X223981315Y-94979366D02*
X224014649Y-94912700D01*
X224014649Y-94912700D02*
X224047982Y-94879366D01*
X224047982Y-94879366D02*
X224114649Y-94846033D01*
X224547982Y-94846033D02*
X224947982Y-94846033D01*
X224747982Y-95546033D02*
X224747982Y-94846033D01*
X225114649Y-94846033D02*
X225581315Y-95546033D01*
X225581315Y-94846033D02*
X225114649Y-95546033D01*
X225847982Y-95546033D02*
X225847982Y-94846033D01*
X225847982Y-94846033D02*
X226014649Y-94846033D01*
X226014649Y-94846033D02*
X226114649Y-94879366D01*
X226114649Y-94879366D02*
X226181316Y-94946033D01*
X226181316Y-94946033D02*
X226214649Y-95012700D01*
X226214649Y-95012700D02*
X226247982Y-95146033D01*
X226247982Y-95146033D02*
X226247982Y-95246033D01*
X226247982Y-95246033D02*
X226214649Y-95379366D01*
X226214649Y-95379366D02*
X226181316Y-95446033D01*
X226181316Y-95446033D02*
X226114649Y-95512700D01*
X226114649Y-95512700D02*
X226014649Y-95546033D01*
X226014649Y-95546033D02*
X225847982Y-95546033D01*
X223114649Y-99959366D02*
X223047982Y-99926033D01*
X223047982Y-99926033D02*
X222947982Y-99926033D01*
X222947982Y-99926033D02*
X222847982Y-99959366D01*
X222847982Y-99959366D02*
X222781316Y-100026033D01*
X222781316Y-100026033D02*
X222747982Y-100092700D01*
X222747982Y-100092700D02*
X222714649Y-100226033D01*
X222714649Y-100226033D02*
X222714649Y-100326033D01*
X222714649Y-100326033D02*
X222747982Y-100459366D01*
X222747982Y-100459366D02*
X222781316Y-100526033D01*
X222781316Y-100526033D02*
X222847982Y-100592700D01*
X222847982Y-100592700D02*
X222947982Y-100626033D01*
X222947982Y-100626033D02*
X223014649Y-100626033D01*
X223014649Y-100626033D02*
X223114649Y-100592700D01*
X223114649Y-100592700D02*
X223147982Y-100559366D01*
X223147982Y-100559366D02*
X223147982Y-100326033D01*
X223147982Y-100326033D02*
X223014649Y-100326033D01*
X223447982Y-100626033D02*
X223447982Y-99926033D01*
X223447982Y-99926033D02*
X223714649Y-99926033D01*
X223714649Y-99926033D02*
X223781316Y-99959366D01*
X223781316Y-99959366D02*
X223814649Y-99992700D01*
X223814649Y-99992700D02*
X223847982Y-100059366D01*
X223847982Y-100059366D02*
X223847982Y-100159366D01*
X223847982Y-100159366D02*
X223814649Y-100226033D01*
X223814649Y-100226033D02*
X223781316Y-100259366D01*
X223781316Y-100259366D02*
X223714649Y-100292700D01*
X223714649Y-100292700D02*
X223447982Y-100292700D01*
X224147982Y-100626033D02*
X224147982Y-99926033D01*
X224614649Y-99926033D02*
X224747982Y-99926033D01*
X224747982Y-99926033D02*
X224814649Y-99959366D01*
X224814649Y-99959366D02*
X224881315Y-100026033D01*
X224881315Y-100026033D02*
X224914649Y-100159366D01*
X224914649Y-100159366D02*
X224914649Y-100392700D01*
X224914649Y-100392700D02*
X224881315Y-100526033D01*
X224881315Y-100526033D02*
X224814649Y-100592700D01*
X224814649Y-100592700D02*
X224747982Y-100626033D01*
X224747982Y-100626033D02*
X224614649Y-100626033D01*
X224614649Y-100626033D02*
X224547982Y-100592700D01*
X224547982Y-100592700D02*
X224481315Y-100526033D01*
X224481315Y-100526033D02*
X224447982Y-100392700D01*
X224447982Y-100392700D02*
X224447982Y-100159366D01*
X224447982Y-100159366D02*
X224481315Y-100026033D01*
X224481315Y-100026033D02*
X224547982Y-99959366D01*
X224547982Y-99959366D02*
X224614649Y-99926033D01*
X225181315Y-99992700D02*
X225214648Y-99959366D01*
X225214648Y-99959366D02*
X225281315Y-99926033D01*
X225281315Y-99926033D02*
X225447982Y-99926033D01*
X225447982Y-99926033D02*
X225514648Y-99959366D01*
X225514648Y-99959366D02*
X225547982Y-99992700D01*
X225547982Y-99992700D02*
X225581315Y-100059366D01*
X225581315Y-100059366D02*
X225581315Y-100126033D01*
X225581315Y-100126033D02*
X225547982Y-100226033D01*
X225547982Y-100226033D02*
X225147982Y-100626033D01*
X225147982Y-100626033D02*
X225581315Y-100626033D01*
X226247982Y-100626033D02*
X225847982Y-100626033D01*
X226047982Y-100626033D02*
X226047982Y-99926033D01*
X226047982Y-99926033D02*
X225981315Y-100026033D01*
X225981315Y-100026033D02*
X225914649Y-100092700D01*
X225914649Y-100092700D02*
X225847982Y-100126033D01*
X223114649Y-112659366D02*
X223047982Y-112626033D01*
X223047982Y-112626033D02*
X222947982Y-112626033D01*
X222947982Y-112626033D02*
X222847982Y-112659366D01*
X222847982Y-112659366D02*
X222781316Y-112726033D01*
X222781316Y-112726033D02*
X222747982Y-112792700D01*
X222747982Y-112792700D02*
X222714649Y-112926033D01*
X222714649Y-112926033D02*
X222714649Y-113026033D01*
X222714649Y-113026033D02*
X222747982Y-113159366D01*
X222747982Y-113159366D02*
X222781316Y-113226033D01*
X222781316Y-113226033D02*
X222847982Y-113292700D01*
X222847982Y-113292700D02*
X222947982Y-113326033D01*
X222947982Y-113326033D02*
X223014649Y-113326033D01*
X223014649Y-113326033D02*
X223114649Y-113292700D01*
X223114649Y-113292700D02*
X223147982Y-113259366D01*
X223147982Y-113259366D02*
X223147982Y-113026033D01*
X223147982Y-113026033D02*
X223014649Y-113026033D01*
X223447982Y-113326033D02*
X223447982Y-112626033D01*
X223447982Y-112626033D02*
X223714649Y-112626033D01*
X223714649Y-112626033D02*
X223781316Y-112659366D01*
X223781316Y-112659366D02*
X223814649Y-112692700D01*
X223814649Y-112692700D02*
X223847982Y-112759366D01*
X223847982Y-112759366D02*
X223847982Y-112859366D01*
X223847982Y-112859366D02*
X223814649Y-112926033D01*
X223814649Y-112926033D02*
X223781316Y-112959366D01*
X223781316Y-112959366D02*
X223714649Y-112992700D01*
X223714649Y-112992700D02*
X223447982Y-112992700D01*
X224147982Y-113326033D02*
X224147982Y-112626033D01*
X224614649Y-112626033D02*
X224747982Y-112626033D01*
X224747982Y-112626033D02*
X224814649Y-112659366D01*
X224814649Y-112659366D02*
X224881315Y-112726033D01*
X224881315Y-112726033D02*
X224914649Y-112859366D01*
X224914649Y-112859366D02*
X224914649Y-113092700D01*
X224914649Y-113092700D02*
X224881315Y-113226033D01*
X224881315Y-113226033D02*
X224814649Y-113292700D01*
X224814649Y-113292700D02*
X224747982Y-113326033D01*
X224747982Y-113326033D02*
X224614649Y-113326033D01*
X224614649Y-113326033D02*
X224547982Y-113292700D01*
X224547982Y-113292700D02*
X224481315Y-113226033D01*
X224481315Y-113226033D02*
X224447982Y-113092700D01*
X224447982Y-113092700D02*
X224447982Y-112859366D01*
X224447982Y-112859366D02*
X224481315Y-112726033D01*
X224481315Y-112726033D02*
X224547982Y-112659366D01*
X224547982Y-112659366D02*
X224614649Y-112626033D01*
X225581315Y-113326033D02*
X225181315Y-113326033D01*
X225381315Y-113326033D02*
X225381315Y-112626033D01*
X225381315Y-112626033D02*
X225314648Y-112726033D01*
X225314648Y-112726033D02*
X225247982Y-112792700D01*
X225247982Y-112792700D02*
X225181315Y-112826033D01*
X225814649Y-112626033D02*
X226281315Y-112626033D01*
X226281315Y-112626033D02*
X225981315Y-113326033D01*
X225181315Y-131106033D02*
X225181315Y-130406033D01*
X225181315Y-130406033D02*
X225347982Y-130406033D01*
X225347982Y-130406033D02*
X225447982Y-130439366D01*
X225447982Y-130439366D02*
X225514649Y-130506033D01*
X225514649Y-130506033D02*
X225547982Y-130572700D01*
X225547982Y-130572700D02*
X225581315Y-130706033D01*
X225581315Y-130706033D02*
X225581315Y-130806033D01*
X225581315Y-130806033D02*
X225547982Y-130939366D01*
X225547982Y-130939366D02*
X225514649Y-131006033D01*
X225514649Y-131006033D02*
X225447982Y-131072700D01*
X225447982Y-131072700D02*
X225347982Y-131106033D01*
X225347982Y-131106033D02*
X225181315Y-131106033D01*
X226014649Y-130406033D02*
X226081315Y-130406033D01*
X226081315Y-130406033D02*
X226147982Y-130439366D01*
X226147982Y-130439366D02*
X226181315Y-130472700D01*
X226181315Y-130472700D02*
X226214649Y-130539366D01*
X226214649Y-130539366D02*
X226247982Y-130672700D01*
X226247982Y-130672700D02*
X226247982Y-130839366D01*
X226247982Y-130839366D02*
X226214649Y-130972700D01*
X226214649Y-130972700D02*
X226181315Y-131039366D01*
X226181315Y-131039366D02*
X226147982Y-131072700D01*
X226147982Y-131072700D02*
X226081315Y-131106033D01*
X226081315Y-131106033D02*
X226014649Y-131106033D01*
X226014649Y-131106033D02*
X225947982Y-131072700D01*
X225947982Y-131072700D02*
X225914649Y-131039366D01*
X225914649Y-131039366D02*
X225881315Y-130972700D01*
X225881315Y-130972700D02*
X225847982Y-130839366D01*
X225847982Y-130839366D02*
X225847982Y-130672700D01*
X225847982Y-130672700D02*
X225881315Y-130539366D01*
X225881315Y-130539366D02*
X225914649Y-130472700D01*
X225914649Y-130472700D02*
X225947982Y-130439366D01*
X225947982Y-130439366D02*
X226014649Y-130406033D01*
X203885350Y-128566033D02*
X203885350Y-127866033D01*
X203885350Y-127866033D02*
X204052017Y-127866033D01*
X204052017Y-127866033D02*
X204152017Y-127899366D01*
X204152017Y-127899366D02*
X204218684Y-127966033D01*
X204218684Y-127966033D02*
X204252017Y-128032700D01*
X204252017Y-128032700D02*
X204285350Y-128166033D01*
X204285350Y-128166033D02*
X204285350Y-128266033D01*
X204285350Y-128266033D02*
X204252017Y-128399366D01*
X204252017Y-128399366D02*
X204218684Y-128466033D01*
X204218684Y-128466033D02*
X204152017Y-128532700D01*
X204152017Y-128532700D02*
X204052017Y-128566033D01*
X204052017Y-128566033D02*
X203885350Y-128566033D01*
X204518684Y-127866033D02*
X204952017Y-127866033D01*
X204952017Y-127866033D02*
X204718684Y-128132700D01*
X204718684Y-128132700D02*
X204818684Y-128132700D01*
X204818684Y-128132700D02*
X204885350Y-128166033D01*
X204885350Y-128166033D02*
X204918684Y-128199366D01*
X204918684Y-128199366D02*
X204952017Y-128266033D01*
X204952017Y-128266033D02*
X204952017Y-128432700D01*
X204952017Y-128432700D02*
X204918684Y-128499366D01*
X204918684Y-128499366D02*
X204885350Y-128532700D01*
X204885350Y-128532700D02*
X204818684Y-128566033D01*
X204818684Y-128566033D02*
X204618684Y-128566033D01*
X204618684Y-128566033D02*
X204552017Y-128532700D01*
X204552017Y-128532700D02*
X204518684Y-128499366D01*
X203861541Y-87064819D02*
X204480588Y-87064819D01*
X204480588Y-87064819D02*
X204147255Y-87445771D01*
X204147255Y-87445771D02*
X204290112Y-87445771D01*
X204290112Y-87445771D02*
X204385350Y-87493390D01*
X204385350Y-87493390D02*
X204432969Y-87541009D01*
X204432969Y-87541009D02*
X204480588Y-87636247D01*
X204480588Y-87636247D02*
X204480588Y-87874342D01*
X204480588Y-87874342D02*
X204432969Y-87969580D01*
X204432969Y-87969580D02*
X204385350Y-88017200D01*
X204385350Y-88017200D02*
X204290112Y-88064819D01*
X204290112Y-88064819D02*
X204004398Y-88064819D01*
X204004398Y-88064819D02*
X203909160Y-88017200D01*
X203909160Y-88017200D02*
X203861541Y-87969580D01*
X204766303Y-87064819D02*
X205099636Y-88064819D01*
X205099636Y-88064819D02*
X205432969Y-87064819D01*
X205671065Y-87064819D02*
X206290112Y-87064819D01*
X206290112Y-87064819D02*
X205956779Y-87445771D01*
X205956779Y-87445771D02*
X206099636Y-87445771D01*
X206099636Y-87445771D02*
X206194874Y-87493390D01*
X206194874Y-87493390D02*
X206242493Y-87541009D01*
X206242493Y-87541009D02*
X206290112Y-87636247D01*
X206290112Y-87636247D02*
X206290112Y-87874342D01*
X206290112Y-87874342D02*
X206242493Y-87969580D01*
X206242493Y-87969580D02*
X206194874Y-88017200D01*
X206194874Y-88017200D02*
X206099636Y-88064819D01*
X206099636Y-88064819D02*
X205813922Y-88064819D01*
X205813922Y-88064819D02*
X205718684Y-88017200D01*
X205718684Y-88017200D02*
X205671065Y-87969580D01*
X224981315Y-133579366D02*
X224947982Y-133612700D01*
X224947982Y-133612700D02*
X224847982Y-133646033D01*
X224847982Y-133646033D02*
X224781315Y-133646033D01*
X224781315Y-133646033D02*
X224681315Y-133612700D01*
X224681315Y-133612700D02*
X224614649Y-133546033D01*
X224614649Y-133546033D02*
X224581315Y-133479366D01*
X224581315Y-133479366D02*
X224547982Y-133346033D01*
X224547982Y-133346033D02*
X224547982Y-133246033D01*
X224547982Y-133246033D02*
X224581315Y-133112700D01*
X224581315Y-133112700D02*
X224614649Y-133046033D01*
X224614649Y-133046033D02*
X224681315Y-132979366D01*
X224681315Y-132979366D02*
X224781315Y-132946033D01*
X224781315Y-132946033D02*
X224847982Y-132946033D01*
X224847982Y-132946033D02*
X224947982Y-132979366D01*
X224947982Y-132979366D02*
X224981315Y-133012700D01*
X225614649Y-133646033D02*
X225281315Y-133646033D01*
X225281315Y-133646033D02*
X225281315Y-132946033D01*
X225847982Y-133646033D02*
X225847982Y-132946033D01*
X226247982Y-133646033D02*
X225947982Y-133246033D01*
X226247982Y-132946033D02*
X225847982Y-133346033D01*
X203851921Y-90078289D02*
X204185254Y-90078289D01*
X204328111Y-90602099D02*
X203851921Y-90602099D01*
X203851921Y-90602099D02*
X203851921Y-89602099D01*
X203851921Y-89602099D02*
X204328111Y-89602099D01*
X204756683Y-90602099D02*
X204756683Y-89602099D01*
X204756683Y-89602099D02*
X205328111Y-90602099D01*
X205328111Y-90602099D02*
X205328111Y-89602099D01*
X206518587Y-89554480D02*
X205661445Y-90840194D01*
X207423349Y-90602099D02*
X207090016Y-90125908D01*
X206851921Y-90602099D02*
X206851921Y-89602099D01*
X206851921Y-89602099D02*
X207232873Y-89602099D01*
X207232873Y-89602099D02*
X207328111Y-89649718D01*
X207328111Y-89649718D02*
X207375730Y-89697337D01*
X207375730Y-89697337D02*
X207423349Y-89792575D01*
X207423349Y-89792575D02*
X207423349Y-89935432D01*
X207423349Y-89935432D02*
X207375730Y-90030670D01*
X207375730Y-90030670D02*
X207328111Y-90078289D01*
X207328111Y-90078289D02*
X207232873Y-90125908D01*
X207232873Y-90125908D02*
X206851921Y-90125908D01*
X207851921Y-90078289D02*
X208185254Y-90078289D01*
X208328111Y-90602099D02*
X207851921Y-90602099D01*
X207851921Y-90602099D02*
X207851921Y-89602099D01*
X207851921Y-89602099D02*
X208328111Y-89602099D01*
X208709064Y-90554480D02*
X208851921Y-90602099D01*
X208851921Y-90602099D02*
X209090016Y-90602099D01*
X209090016Y-90602099D02*
X209185254Y-90554480D01*
X209185254Y-90554480D02*
X209232873Y-90506860D01*
X209232873Y-90506860D02*
X209280492Y-90411622D01*
X209280492Y-90411622D02*
X209280492Y-90316384D01*
X209280492Y-90316384D02*
X209232873Y-90221146D01*
X209232873Y-90221146D02*
X209185254Y-90173527D01*
X209185254Y-90173527D02*
X209090016Y-90125908D01*
X209090016Y-90125908D02*
X208899540Y-90078289D01*
X208899540Y-90078289D02*
X208804302Y-90030670D01*
X208804302Y-90030670D02*
X208756683Y-89983051D01*
X208756683Y-89983051D02*
X208709064Y-89887813D01*
X208709064Y-89887813D02*
X208709064Y-89792575D01*
X208709064Y-89792575D02*
X208756683Y-89697337D01*
X208756683Y-89697337D02*
X208804302Y-89649718D01*
X208804302Y-89649718D02*
X208899540Y-89602099D01*
X208899540Y-89602099D02*
X209137635Y-89602099D01*
X209137635Y-89602099D02*
X209280492Y-89649718D01*
X209709064Y-90078289D02*
X210042397Y-90078289D01*
X210185254Y-90602099D02*
X209709064Y-90602099D01*
X209709064Y-90602099D02*
X209709064Y-89602099D01*
X209709064Y-89602099D02*
X210185254Y-89602099D01*
X210470969Y-89602099D02*
X211042397Y-89602099D01*
X210756683Y-90602099D02*
X210756683Y-89602099D01*
X225181315Y-128566033D02*
X225181315Y-127866033D01*
X225181315Y-127866033D02*
X225347982Y-127866033D01*
X225347982Y-127866033D02*
X225447982Y-127899366D01*
X225447982Y-127899366D02*
X225514649Y-127966033D01*
X225514649Y-127966033D02*
X225547982Y-128032700D01*
X225547982Y-128032700D02*
X225581315Y-128166033D01*
X225581315Y-128166033D02*
X225581315Y-128266033D01*
X225581315Y-128266033D02*
X225547982Y-128399366D01*
X225547982Y-128399366D02*
X225514649Y-128466033D01*
X225514649Y-128466033D02*
X225447982Y-128532700D01*
X225447982Y-128532700D02*
X225347982Y-128566033D01*
X225347982Y-128566033D02*
X225181315Y-128566033D01*
X226247982Y-128566033D02*
X225847982Y-128566033D01*
X226047982Y-128566033D02*
X226047982Y-127866033D01*
X226047982Y-127866033D02*
X225981315Y-127966033D01*
X225981315Y-127966033D02*
X225914649Y-128032700D01*
X225914649Y-128032700D02*
X225847982Y-128066033D01*
X219614650Y-125359366D02*
X219547983Y-125326033D01*
X219547983Y-125326033D02*
X219447983Y-125326033D01*
X219447983Y-125326033D02*
X219347983Y-125359366D01*
X219347983Y-125359366D02*
X219281317Y-125426033D01*
X219281317Y-125426033D02*
X219247983Y-125492700D01*
X219247983Y-125492700D02*
X219214650Y-125626033D01*
X219214650Y-125626033D02*
X219214650Y-125726033D01*
X219214650Y-125726033D02*
X219247983Y-125859366D01*
X219247983Y-125859366D02*
X219281317Y-125926033D01*
X219281317Y-125926033D02*
X219347983Y-125992700D01*
X219347983Y-125992700D02*
X219447983Y-126026033D01*
X219447983Y-126026033D02*
X219514650Y-126026033D01*
X219514650Y-126026033D02*
X219614650Y-125992700D01*
X219614650Y-125992700D02*
X219647983Y-125959366D01*
X219647983Y-125959366D02*
X219647983Y-125726033D01*
X219647983Y-125726033D02*
X219514650Y-125726033D01*
X219947983Y-126026033D02*
X219947983Y-125326033D01*
X219947983Y-125326033D02*
X220214650Y-125326033D01*
X220214650Y-125326033D02*
X220281317Y-125359366D01*
X220281317Y-125359366D02*
X220314650Y-125392700D01*
X220314650Y-125392700D02*
X220347983Y-125459366D01*
X220347983Y-125459366D02*
X220347983Y-125559366D01*
X220347983Y-125559366D02*
X220314650Y-125626033D01*
X220314650Y-125626033D02*
X220281317Y-125659366D01*
X220281317Y-125659366D02*
X220214650Y-125692700D01*
X220214650Y-125692700D02*
X219947983Y-125692700D01*
X220647983Y-126026033D02*
X220647983Y-125326033D01*
X221114650Y-125326033D02*
X221247983Y-125326033D01*
X221247983Y-125326033D02*
X221314650Y-125359366D01*
X221314650Y-125359366D02*
X221381316Y-125426033D01*
X221381316Y-125426033D02*
X221414650Y-125559366D01*
X221414650Y-125559366D02*
X221414650Y-125792700D01*
X221414650Y-125792700D02*
X221381316Y-125926033D01*
X221381316Y-125926033D02*
X221314650Y-125992700D01*
X221314650Y-125992700D02*
X221247983Y-126026033D01*
X221247983Y-126026033D02*
X221114650Y-126026033D01*
X221114650Y-126026033D02*
X221047983Y-125992700D01*
X221047983Y-125992700D02*
X220981316Y-125926033D01*
X220981316Y-125926033D02*
X220947983Y-125792700D01*
X220947983Y-125792700D02*
X220947983Y-125559366D01*
X220947983Y-125559366D02*
X220981316Y-125426033D01*
X220981316Y-125426033D02*
X221047983Y-125359366D01*
X221047983Y-125359366D02*
X221114650Y-125326033D01*
X222081316Y-126026033D02*
X221681316Y-126026033D01*
X221881316Y-126026033D02*
X221881316Y-125326033D01*
X221881316Y-125326033D02*
X221814649Y-125426033D01*
X221814649Y-125426033D02*
X221747983Y-125492700D01*
X221747983Y-125492700D02*
X221681316Y-125526033D01*
X222714650Y-125326033D02*
X222381316Y-125326033D01*
X222381316Y-125326033D02*
X222347983Y-125659366D01*
X222347983Y-125659366D02*
X222381316Y-125626033D01*
X222381316Y-125626033D02*
X222447983Y-125592700D01*
X222447983Y-125592700D02*
X222614650Y-125592700D01*
X222614650Y-125592700D02*
X222681316Y-125626033D01*
X222681316Y-125626033D02*
X222714650Y-125659366D01*
X222714650Y-125659366D02*
X222747983Y-125726033D01*
X222747983Y-125726033D02*
X222747983Y-125892700D01*
X222747983Y-125892700D02*
X222714650Y-125959366D01*
X222714650Y-125959366D02*
X222681316Y-125992700D01*
X222681316Y-125992700D02*
X222614650Y-126026033D01*
X222614650Y-126026033D02*
X222447983Y-126026033D01*
X222447983Y-126026033D02*
X222381316Y-125992700D01*
X222381316Y-125992700D02*
X222347983Y-125959366D01*
X223547983Y-125292700D02*
X222947983Y-126192700D01*
X223781316Y-126026033D02*
X223781316Y-125326033D01*
X223781316Y-125326033D02*
X224014650Y-125826033D01*
X224014650Y-125826033D02*
X224247983Y-125326033D01*
X224247983Y-125326033D02*
X224247983Y-126026033D01*
X224481316Y-125326033D02*
X224881316Y-125326033D01*
X224681316Y-126026033D02*
X224681316Y-125326033D01*
X225114649Y-126026033D02*
X225114649Y-125326033D01*
X225114649Y-125326033D02*
X225281316Y-125326033D01*
X225281316Y-125326033D02*
X225381316Y-125359366D01*
X225381316Y-125359366D02*
X225447983Y-125426033D01*
X225447983Y-125426033D02*
X225481316Y-125492700D01*
X225481316Y-125492700D02*
X225514649Y-125626033D01*
X225514649Y-125626033D02*
X225514649Y-125726033D01*
X225514649Y-125726033D02*
X225481316Y-125859366D01*
X225481316Y-125859366D02*
X225447983Y-125926033D01*
X225447983Y-125926033D02*
X225381316Y-125992700D01*
X225381316Y-125992700D02*
X225281316Y-126026033D01*
X225281316Y-126026033D02*
X225114649Y-126026033D01*
X225947983Y-125326033D02*
X226081316Y-125326033D01*
X226081316Y-125326033D02*
X226147983Y-125359366D01*
X226147983Y-125359366D02*
X226214649Y-125426033D01*
X226214649Y-125426033D02*
X226247983Y-125559366D01*
X226247983Y-125559366D02*
X226247983Y-125792700D01*
X226247983Y-125792700D02*
X226214649Y-125926033D01*
X226214649Y-125926033D02*
X226147983Y-125992700D01*
X226147983Y-125992700D02*
X226081316Y-126026033D01*
X226081316Y-126026033D02*
X225947983Y-126026033D01*
X225947983Y-126026033D02*
X225881316Y-125992700D01*
X225881316Y-125992700D02*
X225814649Y-125926033D01*
X225814649Y-125926033D02*
X225781316Y-125792700D01*
X225781316Y-125792700D02*
X225781316Y-125559366D01*
X225781316Y-125559366D02*
X225814649Y-125426033D01*
X225814649Y-125426033D02*
X225881316Y-125359366D01*
X225881316Y-125359366D02*
X225947983Y-125326033D01*
X204252017Y-115199366D02*
X204185350Y-115166033D01*
X204185350Y-115166033D02*
X204085350Y-115166033D01*
X204085350Y-115166033D02*
X203985350Y-115199366D01*
X203985350Y-115199366D02*
X203918684Y-115266033D01*
X203918684Y-115266033D02*
X203885350Y-115332700D01*
X203885350Y-115332700D02*
X203852017Y-115466033D01*
X203852017Y-115466033D02*
X203852017Y-115566033D01*
X203852017Y-115566033D02*
X203885350Y-115699366D01*
X203885350Y-115699366D02*
X203918684Y-115766033D01*
X203918684Y-115766033D02*
X203985350Y-115832700D01*
X203985350Y-115832700D02*
X204085350Y-115866033D01*
X204085350Y-115866033D02*
X204152017Y-115866033D01*
X204152017Y-115866033D02*
X204252017Y-115832700D01*
X204252017Y-115832700D02*
X204285350Y-115799366D01*
X204285350Y-115799366D02*
X204285350Y-115566033D01*
X204285350Y-115566033D02*
X204152017Y-115566033D01*
X204585350Y-115866033D02*
X204585350Y-115166033D01*
X204585350Y-115166033D02*
X204852017Y-115166033D01*
X204852017Y-115166033D02*
X204918684Y-115199366D01*
X204918684Y-115199366D02*
X204952017Y-115232700D01*
X204952017Y-115232700D02*
X204985350Y-115299366D01*
X204985350Y-115299366D02*
X204985350Y-115399366D01*
X204985350Y-115399366D02*
X204952017Y-115466033D01*
X204952017Y-115466033D02*
X204918684Y-115499366D01*
X204918684Y-115499366D02*
X204852017Y-115532700D01*
X204852017Y-115532700D02*
X204585350Y-115532700D01*
X205285350Y-115866033D02*
X205285350Y-115166033D01*
X205752017Y-115166033D02*
X205885350Y-115166033D01*
X205885350Y-115166033D02*
X205952017Y-115199366D01*
X205952017Y-115199366D02*
X206018683Y-115266033D01*
X206018683Y-115266033D02*
X206052017Y-115399366D01*
X206052017Y-115399366D02*
X206052017Y-115632700D01*
X206052017Y-115632700D02*
X206018683Y-115766033D01*
X206018683Y-115766033D02*
X205952017Y-115832700D01*
X205952017Y-115832700D02*
X205885350Y-115866033D01*
X205885350Y-115866033D02*
X205752017Y-115866033D01*
X205752017Y-115866033D02*
X205685350Y-115832700D01*
X205685350Y-115832700D02*
X205618683Y-115766033D01*
X205618683Y-115766033D02*
X205585350Y-115632700D01*
X205585350Y-115632700D02*
X205585350Y-115399366D01*
X205585350Y-115399366D02*
X205618683Y-115266033D01*
X205618683Y-115266033D02*
X205685350Y-115199366D01*
X205685350Y-115199366D02*
X205752017Y-115166033D01*
X206718683Y-115866033D02*
X206318683Y-115866033D01*
X206518683Y-115866033D02*
X206518683Y-115166033D01*
X206518683Y-115166033D02*
X206452016Y-115266033D01*
X206452016Y-115266033D02*
X206385350Y-115332700D01*
X206385350Y-115332700D02*
X206318683Y-115366033D01*
X207318683Y-115399366D02*
X207318683Y-115866033D01*
X207152017Y-115132700D02*
X206985350Y-115632700D01*
X206985350Y-115632700D02*
X207418683Y-115632700D01*
X208185350Y-115132700D02*
X207585350Y-116032700D01*
X208418683Y-115866033D02*
X208418683Y-115166033D01*
X208418683Y-115166033D02*
X208652017Y-115666033D01*
X208652017Y-115666033D02*
X208885350Y-115166033D01*
X208885350Y-115166033D02*
X208885350Y-115866033D01*
X209118683Y-115166033D02*
X209518683Y-115166033D01*
X209318683Y-115866033D02*
X209318683Y-115166033D01*
X209752016Y-115866033D02*
X209752016Y-115166033D01*
X209752016Y-115166033D02*
X209985350Y-115666033D01*
X209985350Y-115666033D02*
X210218683Y-115166033D01*
X210218683Y-115166033D02*
X210218683Y-115866033D01*
X210518683Y-115832700D02*
X210618683Y-115866033D01*
X210618683Y-115866033D02*
X210785350Y-115866033D01*
X210785350Y-115866033D02*
X210852016Y-115832700D01*
X210852016Y-115832700D02*
X210885350Y-115799366D01*
X210885350Y-115799366D02*
X210918683Y-115732700D01*
X210918683Y-115732700D02*
X210918683Y-115666033D01*
X210918683Y-115666033D02*
X210885350Y-115599366D01*
X210885350Y-115599366D02*
X210852016Y-115566033D01*
X210852016Y-115566033D02*
X210785350Y-115532700D01*
X210785350Y-115532700D02*
X210652016Y-115499366D01*
X210652016Y-115499366D02*
X210585350Y-115466033D01*
X210585350Y-115466033D02*
X210552016Y-115432700D01*
X210552016Y-115432700D02*
X210518683Y-115366033D01*
X210518683Y-115366033D02*
X210518683Y-115299366D01*
X210518683Y-115299366D02*
X210552016Y-115232700D01*
X210552016Y-115232700D02*
X210585350Y-115199366D01*
X210585350Y-115199366D02*
X210652016Y-115166033D01*
X210652016Y-115166033D02*
X210818683Y-115166033D01*
X210818683Y-115166033D02*
X210918683Y-115199366D01*
X223781316Y-122819366D02*
X223714649Y-122786033D01*
X223714649Y-122786033D02*
X223614649Y-122786033D01*
X223614649Y-122786033D02*
X223514649Y-122819366D01*
X223514649Y-122819366D02*
X223447983Y-122886033D01*
X223447983Y-122886033D02*
X223414649Y-122952700D01*
X223414649Y-122952700D02*
X223381316Y-123086033D01*
X223381316Y-123086033D02*
X223381316Y-123186033D01*
X223381316Y-123186033D02*
X223414649Y-123319366D01*
X223414649Y-123319366D02*
X223447983Y-123386033D01*
X223447983Y-123386033D02*
X223514649Y-123452700D01*
X223514649Y-123452700D02*
X223614649Y-123486033D01*
X223614649Y-123486033D02*
X223681316Y-123486033D01*
X223681316Y-123486033D02*
X223781316Y-123452700D01*
X223781316Y-123452700D02*
X223814649Y-123419366D01*
X223814649Y-123419366D02*
X223814649Y-123186033D01*
X223814649Y-123186033D02*
X223681316Y-123186033D01*
X224114649Y-123486033D02*
X224114649Y-122786033D01*
X224114649Y-122786033D02*
X224381316Y-122786033D01*
X224381316Y-122786033D02*
X224447983Y-122819366D01*
X224447983Y-122819366D02*
X224481316Y-122852700D01*
X224481316Y-122852700D02*
X224514649Y-122919366D01*
X224514649Y-122919366D02*
X224514649Y-123019366D01*
X224514649Y-123019366D02*
X224481316Y-123086033D01*
X224481316Y-123086033D02*
X224447983Y-123119366D01*
X224447983Y-123119366D02*
X224381316Y-123152700D01*
X224381316Y-123152700D02*
X224114649Y-123152700D01*
X224814649Y-123486033D02*
X224814649Y-122786033D01*
X225281316Y-122786033D02*
X225414649Y-122786033D01*
X225414649Y-122786033D02*
X225481316Y-122819366D01*
X225481316Y-122819366D02*
X225547982Y-122886033D01*
X225547982Y-122886033D02*
X225581316Y-123019366D01*
X225581316Y-123019366D02*
X225581316Y-123252700D01*
X225581316Y-123252700D02*
X225547982Y-123386033D01*
X225547982Y-123386033D02*
X225481316Y-123452700D01*
X225481316Y-123452700D02*
X225414649Y-123486033D01*
X225414649Y-123486033D02*
X225281316Y-123486033D01*
X225281316Y-123486033D02*
X225214649Y-123452700D01*
X225214649Y-123452700D02*
X225147982Y-123386033D01*
X225147982Y-123386033D02*
X225114649Y-123252700D01*
X225114649Y-123252700D02*
X225114649Y-123019366D01*
X225114649Y-123019366D02*
X225147982Y-122886033D01*
X225147982Y-122886033D02*
X225214649Y-122819366D01*
X225214649Y-122819366D02*
X225281316Y-122786033D01*
X225847982Y-122852700D02*
X225881315Y-122819366D01*
X225881315Y-122819366D02*
X225947982Y-122786033D01*
X225947982Y-122786033D02*
X226114649Y-122786033D01*
X226114649Y-122786033D02*
X226181315Y-122819366D01*
X226181315Y-122819366D02*
X226214649Y-122852700D01*
X226214649Y-122852700D02*
X226247982Y-122919366D01*
X226247982Y-122919366D02*
X226247982Y-122986033D01*
X226247982Y-122986033D02*
X226214649Y-123086033D01*
X226214649Y-123086033D02*
X225814649Y-123486033D01*
X225814649Y-123486033D02*
X226247982Y-123486033D01*
X204285350Y-131039366D02*
X204252017Y-131072700D01*
X204252017Y-131072700D02*
X204152017Y-131106033D01*
X204152017Y-131106033D02*
X204085350Y-131106033D01*
X204085350Y-131106033D02*
X203985350Y-131072700D01*
X203985350Y-131072700D02*
X203918684Y-131006033D01*
X203918684Y-131006033D02*
X203885350Y-130939366D01*
X203885350Y-130939366D02*
X203852017Y-130806033D01*
X203852017Y-130806033D02*
X203852017Y-130706033D01*
X203852017Y-130706033D02*
X203885350Y-130572700D01*
X203885350Y-130572700D02*
X203918684Y-130506033D01*
X203918684Y-130506033D02*
X203985350Y-130439366D01*
X203985350Y-130439366D02*
X204085350Y-130406033D01*
X204085350Y-130406033D02*
X204152017Y-130406033D01*
X204152017Y-130406033D02*
X204252017Y-130439366D01*
X204252017Y-130439366D02*
X204285350Y-130472700D01*
X204585350Y-131106033D02*
X204585350Y-130406033D01*
X204585350Y-130406033D02*
X204818684Y-130906033D01*
X204818684Y-130906033D02*
X205052017Y-130406033D01*
X205052017Y-130406033D02*
X205052017Y-131106033D01*
X205385350Y-131106033D02*
X205385350Y-130406033D01*
X205385350Y-130406033D02*
X205552017Y-130406033D01*
X205552017Y-130406033D02*
X205652017Y-130439366D01*
X205652017Y-130439366D02*
X205718684Y-130506033D01*
X205718684Y-130506033D02*
X205752017Y-130572700D01*
X205752017Y-130572700D02*
X205785350Y-130706033D01*
X205785350Y-130706033D02*
X205785350Y-130806033D01*
X205785350Y-130806033D02*
X205752017Y-130939366D01*
X205752017Y-130939366D02*
X205718684Y-131006033D01*
X205718684Y-131006033D02*
X205652017Y-131072700D01*
X205652017Y-131072700D02*
X205552017Y-131106033D01*
X205552017Y-131106033D02*
X205385350Y-131106033D01*
X223114649Y-105039366D02*
X223047982Y-105006033D01*
X223047982Y-105006033D02*
X222947982Y-105006033D01*
X222947982Y-105006033D02*
X222847982Y-105039366D01*
X222847982Y-105039366D02*
X222781316Y-105106033D01*
X222781316Y-105106033D02*
X222747982Y-105172700D01*
X222747982Y-105172700D02*
X222714649Y-105306033D01*
X222714649Y-105306033D02*
X222714649Y-105406033D01*
X222714649Y-105406033D02*
X222747982Y-105539366D01*
X222747982Y-105539366D02*
X222781316Y-105606033D01*
X222781316Y-105606033D02*
X222847982Y-105672700D01*
X222847982Y-105672700D02*
X222947982Y-105706033D01*
X222947982Y-105706033D02*
X223014649Y-105706033D01*
X223014649Y-105706033D02*
X223114649Y-105672700D01*
X223114649Y-105672700D02*
X223147982Y-105639366D01*
X223147982Y-105639366D02*
X223147982Y-105406033D01*
X223147982Y-105406033D02*
X223014649Y-105406033D01*
X223447982Y-105706033D02*
X223447982Y-105006033D01*
X223447982Y-105006033D02*
X223714649Y-105006033D01*
X223714649Y-105006033D02*
X223781316Y-105039366D01*
X223781316Y-105039366D02*
X223814649Y-105072700D01*
X223814649Y-105072700D02*
X223847982Y-105139366D01*
X223847982Y-105139366D02*
X223847982Y-105239366D01*
X223847982Y-105239366D02*
X223814649Y-105306033D01*
X223814649Y-105306033D02*
X223781316Y-105339366D01*
X223781316Y-105339366D02*
X223714649Y-105372700D01*
X223714649Y-105372700D02*
X223447982Y-105372700D01*
X224147982Y-105706033D02*
X224147982Y-105006033D01*
X224614649Y-105006033D02*
X224747982Y-105006033D01*
X224747982Y-105006033D02*
X224814649Y-105039366D01*
X224814649Y-105039366D02*
X224881315Y-105106033D01*
X224881315Y-105106033D02*
X224914649Y-105239366D01*
X224914649Y-105239366D02*
X224914649Y-105472700D01*
X224914649Y-105472700D02*
X224881315Y-105606033D01*
X224881315Y-105606033D02*
X224814649Y-105672700D01*
X224814649Y-105672700D02*
X224747982Y-105706033D01*
X224747982Y-105706033D02*
X224614649Y-105706033D01*
X224614649Y-105706033D02*
X224547982Y-105672700D01*
X224547982Y-105672700D02*
X224481315Y-105606033D01*
X224481315Y-105606033D02*
X224447982Y-105472700D01*
X224447982Y-105472700D02*
X224447982Y-105239366D01*
X224447982Y-105239366D02*
X224481315Y-105106033D01*
X224481315Y-105106033D02*
X224547982Y-105039366D01*
X224547982Y-105039366D02*
X224614649Y-105006033D01*
X225581315Y-105706033D02*
X225181315Y-105706033D01*
X225381315Y-105706033D02*
X225381315Y-105006033D01*
X225381315Y-105006033D02*
X225314648Y-105106033D01*
X225314648Y-105106033D02*
X225247982Y-105172700D01*
X225247982Y-105172700D02*
X225181315Y-105206033D01*
X225914649Y-105706033D02*
X226047982Y-105706033D01*
X226047982Y-105706033D02*
X226114649Y-105672700D01*
X226114649Y-105672700D02*
X226147982Y-105639366D01*
X226147982Y-105639366D02*
X226214649Y-105539366D01*
X226214649Y-105539366D02*
X226247982Y-105406033D01*
X226247982Y-105406033D02*
X226247982Y-105139366D01*
X226247982Y-105139366D02*
X226214649Y-105072700D01*
X226214649Y-105072700D02*
X226181315Y-105039366D01*
X226181315Y-105039366D02*
X226114649Y-105006033D01*
X226114649Y-105006033D02*
X225981315Y-105006033D01*
X225981315Y-105006033D02*
X225914649Y-105039366D01*
X225914649Y-105039366D02*
X225881315Y-105072700D01*
X225881315Y-105072700D02*
X225847982Y-105139366D01*
X225847982Y-105139366D02*
X225847982Y-105306033D01*
X225847982Y-105306033D02*
X225881315Y-105372700D01*
X225881315Y-105372700D02*
X225914649Y-105406033D01*
X225914649Y-105406033D02*
X225981315Y-105439366D01*
X225981315Y-105439366D02*
X226114649Y-105439366D01*
X226114649Y-105439366D02*
X226181315Y-105406033D01*
X226181315Y-105406033D02*
X226214649Y-105372700D01*
X226214649Y-105372700D02*
X226247982Y-105306033D01*
X223781316Y-117739366D02*
X223714649Y-117706033D01*
X223714649Y-117706033D02*
X223614649Y-117706033D01*
X223614649Y-117706033D02*
X223514649Y-117739366D01*
X223514649Y-117739366D02*
X223447983Y-117806033D01*
X223447983Y-117806033D02*
X223414649Y-117872700D01*
X223414649Y-117872700D02*
X223381316Y-118006033D01*
X223381316Y-118006033D02*
X223381316Y-118106033D01*
X223381316Y-118106033D02*
X223414649Y-118239366D01*
X223414649Y-118239366D02*
X223447983Y-118306033D01*
X223447983Y-118306033D02*
X223514649Y-118372700D01*
X223514649Y-118372700D02*
X223614649Y-118406033D01*
X223614649Y-118406033D02*
X223681316Y-118406033D01*
X223681316Y-118406033D02*
X223781316Y-118372700D01*
X223781316Y-118372700D02*
X223814649Y-118339366D01*
X223814649Y-118339366D02*
X223814649Y-118106033D01*
X223814649Y-118106033D02*
X223681316Y-118106033D01*
X224114649Y-118406033D02*
X224114649Y-117706033D01*
X224114649Y-117706033D02*
X224381316Y-117706033D01*
X224381316Y-117706033D02*
X224447983Y-117739366D01*
X224447983Y-117739366D02*
X224481316Y-117772700D01*
X224481316Y-117772700D02*
X224514649Y-117839366D01*
X224514649Y-117839366D02*
X224514649Y-117939366D01*
X224514649Y-117939366D02*
X224481316Y-118006033D01*
X224481316Y-118006033D02*
X224447983Y-118039366D01*
X224447983Y-118039366D02*
X224381316Y-118072700D01*
X224381316Y-118072700D02*
X224114649Y-118072700D01*
X224814649Y-118406033D02*
X224814649Y-117706033D01*
X225281316Y-117706033D02*
X225414649Y-117706033D01*
X225414649Y-117706033D02*
X225481316Y-117739366D01*
X225481316Y-117739366D02*
X225547982Y-117806033D01*
X225547982Y-117806033D02*
X225581316Y-117939366D01*
X225581316Y-117939366D02*
X225581316Y-118172700D01*
X225581316Y-118172700D02*
X225547982Y-118306033D01*
X225547982Y-118306033D02*
X225481316Y-118372700D01*
X225481316Y-118372700D02*
X225414649Y-118406033D01*
X225414649Y-118406033D02*
X225281316Y-118406033D01*
X225281316Y-118406033D02*
X225214649Y-118372700D01*
X225214649Y-118372700D02*
X225147982Y-118306033D01*
X225147982Y-118306033D02*
X225114649Y-118172700D01*
X225114649Y-118172700D02*
X225114649Y-117939366D01*
X225114649Y-117939366D02*
X225147982Y-117806033D01*
X225147982Y-117806033D02*
X225214649Y-117739366D01*
X225214649Y-117739366D02*
X225281316Y-117706033D01*
X226181315Y-117939366D02*
X226181315Y-118406033D01*
X226014649Y-117672700D02*
X225847982Y-118172700D01*
X225847982Y-118172700D02*
X226281315Y-118172700D01*
X223781316Y-110119366D02*
X223714649Y-110086033D01*
X223714649Y-110086033D02*
X223614649Y-110086033D01*
X223614649Y-110086033D02*
X223514649Y-110119366D01*
X223514649Y-110119366D02*
X223447983Y-110186033D01*
X223447983Y-110186033D02*
X223414649Y-110252700D01*
X223414649Y-110252700D02*
X223381316Y-110386033D01*
X223381316Y-110386033D02*
X223381316Y-110486033D01*
X223381316Y-110486033D02*
X223414649Y-110619366D01*
X223414649Y-110619366D02*
X223447983Y-110686033D01*
X223447983Y-110686033D02*
X223514649Y-110752700D01*
X223514649Y-110752700D02*
X223614649Y-110786033D01*
X223614649Y-110786033D02*
X223681316Y-110786033D01*
X223681316Y-110786033D02*
X223781316Y-110752700D01*
X223781316Y-110752700D02*
X223814649Y-110719366D01*
X223814649Y-110719366D02*
X223814649Y-110486033D01*
X223814649Y-110486033D02*
X223681316Y-110486033D01*
X224114649Y-110786033D02*
X224114649Y-110086033D01*
X224114649Y-110086033D02*
X224381316Y-110086033D01*
X224381316Y-110086033D02*
X224447983Y-110119366D01*
X224447983Y-110119366D02*
X224481316Y-110152700D01*
X224481316Y-110152700D02*
X224514649Y-110219366D01*
X224514649Y-110219366D02*
X224514649Y-110319366D01*
X224514649Y-110319366D02*
X224481316Y-110386033D01*
X224481316Y-110386033D02*
X224447983Y-110419366D01*
X224447983Y-110419366D02*
X224381316Y-110452700D01*
X224381316Y-110452700D02*
X224114649Y-110452700D01*
X224814649Y-110786033D02*
X224814649Y-110086033D01*
X225281316Y-110086033D02*
X225414649Y-110086033D01*
X225414649Y-110086033D02*
X225481316Y-110119366D01*
X225481316Y-110119366D02*
X225547982Y-110186033D01*
X225547982Y-110186033D02*
X225581316Y-110319366D01*
X225581316Y-110319366D02*
X225581316Y-110552700D01*
X225581316Y-110552700D02*
X225547982Y-110686033D01*
X225547982Y-110686033D02*
X225481316Y-110752700D01*
X225481316Y-110752700D02*
X225414649Y-110786033D01*
X225414649Y-110786033D02*
X225281316Y-110786033D01*
X225281316Y-110786033D02*
X225214649Y-110752700D01*
X225214649Y-110752700D02*
X225147982Y-110686033D01*
X225147982Y-110686033D02*
X225114649Y-110552700D01*
X225114649Y-110552700D02*
X225114649Y-110319366D01*
X225114649Y-110319366D02*
X225147982Y-110186033D01*
X225147982Y-110186033D02*
X225214649Y-110119366D01*
X225214649Y-110119366D02*
X225281316Y-110086033D01*
X226214649Y-110086033D02*
X225881315Y-110086033D01*
X225881315Y-110086033D02*
X225847982Y-110419366D01*
X225847982Y-110419366D02*
X225881315Y-110386033D01*
X225881315Y-110386033D02*
X225947982Y-110352700D01*
X225947982Y-110352700D02*
X226114649Y-110352700D01*
X226114649Y-110352700D02*
X226181315Y-110386033D01*
X226181315Y-110386033D02*
X226214649Y-110419366D01*
X226214649Y-110419366D02*
X226247982Y-110486033D01*
X226247982Y-110486033D02*
X226247982Y-110652700D01*
X226247982Y-110652700D02*
X226214649Y-110719366D01*
X226214649Y-110719366D02*
X226181315Y-110752700D01*
X226181315Y-110752700D02*
X226114649Y-110786033D01*
X226114649Y-110786033D02*
X225947982Y-110786033D01*
X225947982Y-110786033D02*
X225881315Y-110752700D01*
X225881315Y-110752700D02*
X225847982Y-110719366D01*
X204252017Y-107579366D02*
X204185350Y-107546033D01*
X204185350Y-107546033D02*
X204085350Y-107546033D01*
X204085350Y-107546033D02*
X203985350Y-107579366D01*
X203985350Y-107579366D02*
X203918684Y-107646033D01*
X203918684Y-107646033D02*
X203885350Y-107712700D01*
X203885350Y-107712700D02*
X203852017Y-107846033D01*
X203852017Y-107846033D02*
X203852017Y-107946033D01*
X203852017Y-107946033D02*
X203885350Y-108079366D01*
X203885350Y-108079366D02*
X203918684Y-108146033D01*
X203918684Y-108146033D02*
X203985350Y-108212700D01*
X203985350Y-108212700D02*
X204085350Y-108246033D01*
X204085350Y-108246033D02*
X204152017Y-108246033D01*
X204152017Y-108246033D02*
X204252017Y-108212700D01*
X204252017Y-108212700D02*
X204285350Y-108179366D01*
X204285350Y-108179366D02*
X204285350Y-107946033D01*
X204285350Y-107946033D02*
X204152017Y-107946033D01*
X204585350Y-108246033D02*
X204585350Y-107546033D01*
X204585350Y-107546033D02*
X204852017Y-107546033D01*
X204852017Y-107546033D02*
X204918684Y-107579366D01*
X204918684Y-107579366D02*
X204952017Y-107612700D01*
X204952017Y-107612700D02*
X204985350Y-107679366D01*
X204985350Y-107679366D02*
X204985350Y-107779366D01*
X204985350Y-107779366D02*
X204952017Y-107846033D01*
X204952017Y-107846033D02*
X204918684Y-107879366D01*
X204918684Y-107879366D02*
X204852017Y-107912700D01*
X204852017Y-107912700D02*
X204585350Y-107912700D01*
X205285350Y-108246033D02*
X205285350Y-107546033D01*
X205752017Y-107546033D02*
X205885350Y-107546033D01*
X205885350Y-107546033D02*
X205952017Y-107579366D01*
X205952017Y-107579366D02*
X206018683Y-107646033D01*
X206018683Y-107646033D02*
X206052017Y-107779366D01*
X206052017Y-107779366D02*
X206052017Y-108012700D01*
X206052017Y-108012700D02*
X206018683Y-108146033D01*
X206018683Y-108146033D02*
X205952017Y-108212700D01*
X205952017Y-108212700D02*
X205885350Y-108246033D01*
X205885350Y-108246033D02*
X205752017Y-108246033D01*
X205752017Y-108246033D02*
X205685350Y-108212700D01*
X205685350Y-108212700D02*
X205618683Y-108146033D01*
X205618683Y-108146033D02*
X205585350Y-108012700D01*
X205585350Y-108012700D02*
X205585350Y-107779366D01*
X205585350Y-107779366D02*
X205618683Y-107646033D01*
X205618683Y-107646033D02*
X205685350Y-107579366D01*
X205685350Y-107579366D02*
X205752017Y-107546033D01*
X206318683Y-107612700D02*
X206352016Y-107579366D01*
X206352016Y-107579366D02*
X206418683Y-107546033D01*
X206418683Y-107546033D02*
X206585350Y-107546033D01*
X206585350Y-107546033D02*
X206652016Y-107579366D01*
X206652016Y-107579366D02*
X206685350Y-107612700D01*
X206685350Y-107612700D02*
X206718683Y-107679366D01*
X206718683Y-107679366D02*
X206718683Y-107746033D01*
X206718683Y-107746033D02*
X206685350Y-107846033D01*
X206685350Y-107846033D02*
X206285350Y-108246033D01*
X206285350Y-108246033D02*
X206718683Y-108246033D01*
X207352017Y-107546033D02*
X207018683Y-107546033D01*
X207018683Y-107546033D02*
X206985350Y-107879366D01*
X206985350Y-107879366D02*
X207018683Y-107846033D01*
X207018683Y-107846033D02*
X207085350Y-107812700D01*
X207085350Y-107812700D02*
X207252017Y-107812700D01*
X207252017Y-107812700D02*
X207318683Y-107846033D01*
X207318683Y-107846033D02*
X207352017Y-107879366D01*
X207352017Y-107879366D02*
X207385350Y-107946033D01*
X207385350Y-107946033D02*
X207385350Y-108112700D01*
X207385350Y-108112700D02*
X207352017Y-108179366D01*
X207352017Y-108179366D02*
X207318683Y-108212700D01*
X207318683Y-108212700D02*
X207252017Y-108246033D01*
X207252017Y-108246033D02*
X207085350Y-108246033D01*
X207085350Y-108246033D02*
X207018683Y-108212700D01*
X207018683Y-108212700D02*
X206985350Y-108179366D01*
X204252017Y-97419366D02*
X204185350Y-97386033D01*
X204185350Y-97386033D02*
X204085350Y-97386033D01*
X204085350Y-97386033D02*
X203985350Y-97419366D01*
X203985350Y-97419366D02*
X203918684Y-97486033D01*
X203918684Y-97486033D02*
X203885350Y-97552700D01*
X203885350Y-97552700D02*
X203852017Y-97686033D01*
X203852017Y-97686033D02*
X203852017Y-97786033D01*
X203852017Y-97786033D02*
X203885350Y-97919366D01*
X203885350Y-97919366D02*
X203918684Y-97986033D01*
X203918684Y-97986033D02*
X203985350Y-98052700D01*
X203985350Y-98052700D02*
X204085350Y-98086033D01*
X204085350Y-98086033D02*
X204152017Y-98086033D01*
X204152017Y-98086033D02*
X204252017Y-98052700D01*
X204252017Y-98052700D02*
X204285350Y-98019366D01*
X204285350Y-98019366D02*
X204285350Y-97786033D01*
X204285350Y-97786033D02*
X204152017Y-97786033D01*
X204585350Y-98086033D02*
X204585350Y-97386033D01*
X204585350Y-97386033D02*
X204852017Y-97386033D01*
X204852017Y-97386033D02*
X204918684Y-97419366D01*
X204918684Y-97419366D02*
X204952017Y-97452700D01*
X204952017Y-97452700D02*
X204985350Y-97519366D01*
X204985350Y-97519366D02*
X204985350Y-97619366D01*
X204985350Y-97619366D02*
X204952017Y-97686033D01*
X204952017Y-97686033D02*
X204918684Y-97719366D01*
X204918684Y-97719366D02*
X204852017Y-97752700D01*
X204852017Y-97752700D02*
X204585350Y-97752700D01*
X205285350Y-98086033D02*
X205285350Y-97386033D01*
X205752017Y-97386033D02*
X205885350Y-97386033D01*
X205885350Y-97386033D02*
X205952017Y-97419366D01*
X205952017Y-97419366D02*
X206018683Y-97486033D01*
X206018683Y-97486033D02*
X206052017Y-97619366D01*
X206052017Y-97619366D02*
X206052017Y-97852700D01*
X206052017Y-97852700D02*
X206018683Y-97986033D01*
X206018683Y-97986033D02*
X205952017Y-98052700D01*
X205952017Y-98052700D02*
X205885350Y-98086033D01*
X205885350Y-98086033D02*
X205752017Y-98086033D01*
X205752017Y-98086033D02*
X205685350Y-98052700D01*
X205685350Y-98052700D02*
X205618683Y-97986033D01*
X205618683Y-97986033D02*
X205585350Y-97852700D01*
X205585350Y-97852700D02*
X205585350Y-97619366D01*
X205585350Y-97619366D02*
X205618683Y-97486033D01*
X205618683Y-97486033D02*
X205685350Y-97419366D01*
X205685350Y-97419366D02*
X205752017Y-97386033D01*
X206285350Y-97386033D02*
X206718683Y-97386033D01*
X206718683Y-97386033D02*
X206485350Y-97652700D01*
X206485350Y-97652700D02*
X206585350Y-97652700D01*
X206585350Y-97652700D02*
X206652016Y-97686033D01*
X206652016Y-97686033D02*
X206685350Y-97719366D01*
X206685350Y-97719366D02*
X206718683Y-97786033D01*
X206718683Y-97786033D02*
X206718683Y-97952700D01*
X206718683Y-97952700D02*
X206685350Y-98019366D01*
X206685350Y-98019366D02*
X206652016Y-98052700D01*
X206652016Y-98052700D02*
X206585350Y-98086033D01*
X206585350Y-98086033D02*
X206385350Y-98086033D01*
X206385350Y-98086033D02*
X206318683Y-98052700D01*
X206318683Y-98052700D02*
X206285350Y-98019366D01*
X207318683Y-97619366D02*
X207318683Y-98086033D01*
X207152017Y-97352700D02*
X206985350Y-97852700D01*
X206985350Y-97852700D02*
X207418683Y-97852700D01*
X203785350Y-92306033D02*
X204018684Y-93006033D01*
X204018684Y-93006033D02*
X204252017Y-92306033D01*
X204485350Y-93006033D02*
X204485350Y-92306033D01*
X204485350Y-92306033D02*
X204752017Y-92306033D01*
X204752017Y-92306033D02*
X204818684Y-92339366D01*
X204818684Y-92339366D02*
X204852017Y-92372700D01*
X204852017Y-92372700D02*
X204885350Y-92439366D01*
X204885350Y-92439366D02*
X204885350Y-92539366D01*
X204885350Y-92539366D02*
X204852017Y-92606033D01*
X204852017Y-92606033D02*
X204818684Y-92639366D01*
X204818684Y-92639366D02*
X204752017Y-92672700D01*
X204752017Y-92672700D02*
X204485350Y-92672700D01*
X205685350Y-92272700D02*
X205085350Y-93172700D01*
X206285350Y-92339366D02*
X206218683Y-92306033D01*
X206218683Y-92306033D02*
X206118683Y-92306033D01*
X206118683Y-92306033D02*
X206018683Y-92339366D01*
X206018683Y-92339366D02*
X205952017Y-92406033D01*
X205952017Y-92406033D02*
X205918683Y-92472700D01*
X205918683Y-92472700D02*
X205885350Y-92606033D01*
X205885350Y-92606033D02*
X205885350Y-92706033D01*
X205885350Y-92706033D02*
X205918683Y-92839366D01*
X205918683Y-92839366D02*
X205952017Y-92906033D01*
X205952017Y-92906033D02*
X206018683Y-92972700D01*
X206018683Y-92972700D02*
X206118683Y-93006033D01*
X206118683Y-93006033D02*
X206185350Y-93006033D01*
X206185350Y-93006033D02*
X206285350Y-92972700D01*
X206285350Y-92972700D02*
X206318683Y-92939366D01*
X206318683Y-92939366D02*
X206318683Y-92706033D01*
X206318683Y-92706033D02*
X206185350Y-92706033D01*
X206618683Y-93006033D02*
X206618683Y-92306033D01*
X206618683Y-92306033D02*
X206885350Y-92306033D01*
X206885350Y-92306033D02*
X206952017Y-92339366D01*
X206952017Y-92339366D02*
X206985350Y-92372700D01*
X206985350Y-92372700D02*
X207018683Y-92439366D01*
X207018683Y-92439366D02*
X207018683Y-92539366D01*
X207018683Y-92539366D02*
X206985350Y-92606033D01*
X206985350Y-92606033D02*
X206952017Y-92639366D01*
X206952017Y-92639366D02*
X206885350Y-92672700D01*
X206885350Y-92672700D02*
X206618683Y-92672700D01*
X207318683Y-93006033D02*
X207318683Y-92306033D01*
X207785350Y-92306033D02*
X207918683Y-92306033D01*
X207918683Y-92306033D02*
X207985350Y-92339366D01*
X207985350Y-92339366D02*
X208052016Y-92406033D01*
X208052016Y-92406033D02*
X208085350Y-92539366D01*
X208085350Y-92539366D02*
X208085350Y-92772700D01*
X208085350Y-92772700D02*
X208052016Y-92906033D01*
X208052016Y-92906033D02*
X207985350Y-92972700D01*
X207985350Y-92972700D02*
X207918683Y-93006033D01*
X207918683Y-93006033D02*
X207785350Y-93006033D01*
X207785350Y-93006033D02*
X207718683Y-92972700D01*
X207718683Y-92972700D02*
X207652016Y-92906033D01*
X207652016Y-92906033D02*
X207618683Y-92772700D01*
X207618683Y-92772700D02*
X207618683Y-92539366D01*
X207618683Y-92539366D02*
X207652016Y-92406033D01*
X207652016Y-92406033D02*
X207718683Y-92339366D01*
X207718683Y-92339366D02*
X207785350Y-92306033D01*
X208318683Y-92306033D02*
X208752016Y-92306033D01*
X208752016Y-92306033D02*
X208518683Y-92572700D01*
X208518683Y-92572700D02*
X208618683Y-92572700D01*
X208618683Y-92572700D02*
X208685349Y-92606033D01*
X208685349Y-92606033D02*
X208718683Y-92639366D01*
X208718683Y-92639366D02*
X208752016Y-92706033D01*
X208752016Y-92706033D02*
X208752016Y-92872700D01*
X208752016Y-92872700D02*
X208718683Y-92939366D01*
X208718683Y-92939366D02*
X208685349Y-92972700D01*
X208685349Y-92972700D02*
X208618683Y-93006033D01*
X208618683Y-93006033D02*
X208418683Y-93006033D01*
X208418683Y-93006033D02*
X208352016Y-92972700D01*
X208352016Y-92972700D02*
X208318683Y-92939366D01*
X209352016Y-92306033D02*
X209218683Y-92306033D01*
X209218683Y-92306033D02*
X209152016Y-92339366D01*
X209152016Y-92339366D02*
X209118683Y-92372700D01*
X209118683Y-92372700D02*
X209052016Y-92472700D01*
X209052016Y-92472700D02*
X209018683Y-92606033D01*
X209018683Y-92606033D02*
X209018683Y-92872700D01*
X209018683Y-92872700D02*
X209052016Y-92939366D01*
X209052016Y-92939366D02*
X209085350Y-92972700D01*
X209085350Y-92972700D02*
X209152016Y-93006033D01*
X209152016Y-93006033D02*
X209285350Y-93006033D01*
X209285350Y-93006033D02*
X209352016Y-92972700D01*
X209352016Y-92972700D02*
X209385350Y-92939366D01*
X209385350Y-92939366D02*
X209418683Y-92872700D01*
X209418683Y-92872700D02*
X209418683Y-92706033D01*
X209418683Y-92706033D02*
X209385350Y-92639366D01*
X209385350Y-92639366D02*
X209352016Y-92606033D01*
X209352016Y-92606033D02*
X209285350Y-92572700D01*
X209285350Y-92572700D02*
X209152016Y-92572700D01*
X209152016Y-92572700D02*
X209085350Y-92606033D01*
X209085350Y-92606033D02*
X209052016Y-92639366D01*
X209052016Y-92639366D02*
X209018683Y-92706033D01*
X204252017Y-99959366D02*
X204185350Y-99926033D01*
X204185350Y-99926033D02*
X204085350Y-99926033D01*
X204085350Y-99926033D02*
X203985350Y-99959366D01*
X203985350Y-99959366D02*
X203918684Y-100026033D01*
X203918684Y-100026033D02*
X203885350Y-100092700D01*
X203885350Y-100092700D02*
X203852017Y-100226033D01*
X203852017Y-100226033D02*
X203852017Y-100326033D01*
X203852017Y-100326033D02*
X203885350Y-100459366D01*
X203885350Y-100459366D02*
X203918684Y-100526033D01*
X203918684Y-100526033D02*
X203985350Y-100592700D01*
X203985350Y-100592700D02*
X204085350Y-100626033D01*
X204085350Y-100626033D02*
X204152017Y-100626033D01*
X204152017Y-100626033D02*
X204252017Y-100592700D01*
X204252017Y-100592700D02*
X204285350Y-100559366D01*
X204285350Y-100559366D02*
X204285350Y-100326033D01*
X204285350Y-100326033D02*
X204152017Y-100326033D01*
X204585350Y-100626033D02*
X204585350Y-99926033D01*
X204585350Y-99926033D02*
X204852017Y-99926033D01*
X204852017Y-99926033D02*
X204918684Y-99959366D01*
X204918684Y-99959366D02*
X204952017Y-99992700D01*
X204952017Y-99992700D02*
X204985350Y-100059366D01*
X204985350Y-100059366D02*
X204985350Y-100159366D01*
X204985350Y-100159366D02*
X204952017Y-100226033D01*
X204952017Y-100226033D02*
X204918684Y-100259366D01*
X204918684Y-100259366D02*
X204852017Y-100292700D01*
X204852017Y-100292700D02*
X204585350Y-100292700D01*
X205285350Y-100626033D02*
X205285350Y-99926033D01*
X205752017Y-99926033D02*
X205885350Y-99926033D01*
X205885350Y-99926033D02*
X205952017Y-99959366D01*
X205952017Y-99959366D02*
X206018683Y-100026033D01*
X206018683Y-100026033D02*
X206052017Y-100159366D01*
X206052017Y-100159366D02*
X206052017Y-100392700D01*
X206052017Y-100392700D02*
X206018683Y-100526033D01*
X206018683Y-100526033D02*
X205952017Y-100592700D01*
X205952017Y-100592700D02*
X205885350Y-100626033D01*
X205885350Y-100626033D02*
X205752017Y-100626033D01*
X205752017Y-100626033D02*
X205685350Y-100592700D01*
X205685350Y-100592700D02*
X205618683Y-100526033D01*
X205618683Y-100526033D02*
X205585350Y-100392700D01*
X205585350Y-100392700D02*
X205585350Y-100159366D01*
X205585350Y-100159366D02*
X205618683Y-100026033D01*
X205618683Y-100026033D02*
X205685350Y-99959366D01*
X205685350Y-99959366D02*
X205752017Y-99926033D01*
X206285350Y-99926033D02*
X206718683Y-99926033D01*
X206718683Y-99926033D02*
X206485350Y-100192700D01*
X206485350Y-100192700D02*
X206585350Y-100192700D01*
X206585350Y-100192700D02*
X206652016Y-100226033D01*
X206652016Y-100226033D02*
X206685350Y-100259366D01*
X206685350Y-100259366D02*
X206718683Y-100326033D01*
X206718683Y-100326033D02*
X206718683Y-100492700D01*
X206718683Y-100492700D02*
X206685350Y-100559366D01*
X206685350Y-100559366D02*
X206652016Y-100592700D01*
X206652016Y-100592700D02*
X206585350Y-100626033D01*
X206585350Y-100626033D02*
X206385350Y-100626033D01*
X206385350Y-100626033D02*
X206318683Y-100592700D01*
X206318683Y-100592700D02*
X206285350Y-100559366D01*
X207352017Y-99926033D02*
X207018683Y-99926033D01*
X207018683Y-99926033D02*
X206985350Y-100259366D01*
X206985350Y-100259366D02*
X207018683Y-100226033D01*
X207018683Y-100226033D02*
X207085350Y-100192700D01*
X207085350Y-100192700D02*
X207252017Y-100192700D01*
X207252017Y-100192700D02*
X207318683Y-100226033D01*
X207318683Y-100226033D02*
X207352017Y-100259366D01*
X207352017Y-100259366D02*
X207385350Y-100326033D01*
X207385350Y-100326033D02*
X207385350Y-100492700D01*
X207385350Y-100492700D02*
X207352017Y-100559366D01*
X207352017Y-100559366D02*
X207318683Y-100592700D01*
X207318683Y-100592700D02*
X207252017Y-100626033D01*
X207252017Y-100626033D02*
X207085350Y-100626033D01*
X207085350Y-100626033D02*
X207018683Y-100592700D01*
X207018683Y-100592700D02*
X206985350Y-100559366D01*
X204429289Y-133036099D02*
X203953099Y-133036099D01*
X203953099Y-133036099D02*
X203905480Y-133512289D01*
X203905480Y-133512289D02*
X203953099Y-133464670D01*
X203953099Y-133464670D02*
X204048337Y-133417051D01*
X204048337Y-133417051D02*
X204286432Y-133417051D01*
X204286432Y-133417051D02*
X204381670Y-133464670D01*
X204381670Y-133464670D02*
X204429289Y-133512289D01*
X204429289Y-133512289D02*
X204476908Y-133607527D01*
X204476908Y-133607527D02*
X204476908Y-133845622D01*
X204476908Y-133845622D02*
X204429289Y-133940860D01*
X204429289Y-133940860D02*
X204381670Y-133988480D01*
X204381670Y-133988480D02*
X204286432Y-134036099D01*
X204286432Y-134036099D02*
X204048337Y-134036099D01*
X204048337Y-134036099D02*
X203953099Y-133988480D01*
X203953099Y-133988480D02*
X203905480Y-133940860D01*
X204762623Y-133036099D02*
X205095956Y-134036099D01*
X205095956Y-134036099D02*
X205429289Y-133036099D01*
X219581316Y-97419366D02*
X219514649Y-97386033D01*
X219514649Y-97386033D02*
X219414649Y-97386033D01*
X219414649Y-97386033D02*
X219314649Y-97419366D01*
X219314649Y-97419366D02*
X219247983Y-97486033D01*
X219247983Y-97486033D02*
X219214649Y-97552700D01*
X219214649Y-97552700D02*
X219181316Y-97686033D01*
X219181316Y-97686033D02*
X219181316Y-97786033D01*
X219181316Y-97786033D02*
X219214649Y-97919366D01*
X219214649Y-97919366D02*
X219247983Y-97986033D01*
X219247983Y-97986033D02*
X219314649Y-98052700D01*
X219314649Y-98052700D02*
X219414649Y-98086033D01*
X219414649Y-98086033D02*
X219481316Y-98086033D01*
X219481316Y-98086033D02*
X219581316Y-98052700D01*
X219581316Y-98052700D02*
X219614649Y-98019366D01*
X219614649Y-98019366D02*
X219614649Y-97786033D01*
X219614649Y-97786033D02*
X219481316Y-97786033D01*
X219914649Y-98086033D02*
X219914649Y-97386033D01*
X219914649Y-97386033D02*
X220181316Y-97386033D01*
X220181316Y-97386033D02*
X220247983Y-97419366D01*
X220247983Y-97419366D02*
X220281316Y-97452700D01*
X220281316Y-97452700D02*
X220314649Y-97519366D01*
X220314649Y-97519366D02*
X220314649Y-97619366D01*
X220314649Y-97619366D02*
X220281316Y-97686033D01*
X220281316Y-97686033D02*
X220247983Y-97719366D01*
X220247983Y-97719366D02*
X220181316Y-97752700D01*
X220181316Y-97752700D02*
X219914649Y-97752700D01*
X220614649Y-98086033D02*
X220614649Y-97386033D01*
X221081316Y-97386033D02*
X221214649Y-97386033D01*
X221214649Y-97386033D02*
X221281316Y-97419366D01*
X221281316Y-97419366D02*
X221347982Y-97486033D01*
X221347982Y-97486033D02*
X221381316Y-97619366D01*
X221381316Y-97619366D02*
X221381316Y-97852700D01*
X221381316Y-97852700D02*
X221347982Y-97986033D01*
X221347982Y-97986033D02*
X221281316Y-98052700D01*
X221281316Y-98052700D02*
X221214649Y-98086033D01*
X221214649Y-98086033D02*
X221081316Y-98086033D01*
X221081316Y-98086033D02*
X221014649Y-98052700D01*
X221014649Y-98052700D02*
X220947982Y-97986033D01*
X220947982Y-97986033D02*
X220914649Y-97852700D01*
X220914649Y-97852700D02*
X220914649Y-97619366D01*
X220914649Y-97619366D02*
X220947982Y-97486033D01*
X220947982Y-97486033D02*
X221014649Y-97419366D01*
X221014649Y-97419366D02*
X221081316Y-97386033D01*
X221614649Y-97386033D02*
X222047982Y-97386033D01*
X222047982Y-97386033D02*
X221814649Y-97652700D01*
X221814649Y-97652700D02*
X221914649Y-97652700D01*
X221914649Y-97652700D02*
X221981315Y-97686033D01*
X221981315Y-97686033D02*
X222014649Y-97719366D01*
X222014649Y-97719366D02*
X222047982Y-97786033D01*
X222047982Y-97786033D02*
X222047982Y-97952700D01*
X222047982Y-97952700D02*
X222014649Y-98019366D01*
X222014649Y-98019366D02*
X221981315Y-98052700D01*
X221981315Y-98052700D02*
X221914649Y-98086033D01*
X221914649Y-98086033D02*
X221714649Y-98086033D01*
X221714649Y-98086033D02*
X221647982Y-98052700D01*
X221647982Y-98052700D02*
X221614649Y-98019366D01*
X222847982Y-97352700D02*
X222247982Y-98252700D01*
X223081315Y-97386033D02*
X223081315Y-97952700D01*
X223081315Y-97952700D02*
X223114649Y-98019366D01*
X223114649Y-98019366D02*
X223147982Y-98052700D01*
X223147982Y-98052700D02*
X223214649Y-98086033D01*
X223214649Y-98086033D02*
X223347982Y-98086033D01*
X223347982Y-98086033D02*
X223414649Y-98052700D01*
X223414649Y-98052700D02*
X223447982Y-98019366D01*
X223447982Y-98019366D02*
X223481315Y-97952700D01*
X223481315Y-97952700D02*
X223481315Y-97386033D01*
X223947982Y-97386033D02*
X224014648Y-97386033D01*
X224014648Y-97386033D02*
X224081315Y-97419366D01*
X224081315Y-97419366D02*
X224114648Y-97452700D01*
X224114648Y-97452700D02*
X224147982Y-97519366D01*
X224147982Y-97519366D02*
X224181315Y-97652700D01*
X224181315Y-97652700D02*
X224181315Y-97819366D01*
X224181315Y-97819366D02*
X224147982Y-97952700D01*
X224147982Y-97952700D02*
X224114648Y-98019366D01*
X224114648Y-98019366D02*
X224081315Y-98052700D01*
X224081315Y-98052700D02*
X224014648Y-98086033D01*
X224014648Y-98086033D02*
X223947982Y-98086033D01*
X223947982Y-98086033D02*
X223881315Y-98052700D01*
X223881315Y-98052700D02*
X223847982Y-98019366D01*
X223847982Y-98019366D02*
X223814648Y-97952700D01*
X223814648Y-97952700D02*
X223781315Y-97819366D01*
X223781315Y-97819366D02*
X223781315Y-97652700D01*
X223781315Y-97652700D02*
X223814648Y-97519366D01*
X223814648Y-97519366D02*
X223847982Y-97452700D01*
X223847982Y-97452700D02*
X223881315Y-97419366D01*
X223881315Y-97419366D02*
X223947982Y-97386033D01*
X224881315Y-98086033D02*
X224647982Y-97752700D01*
X224481315Y-98086033D02*
X224481315Y-97386033D01*
X224481315Y-97386033D02*
X224747982Y-97386033D01*
X224747982Y-97386033D02*
X224814649Y-97419366D01*
X224814649Y-97419366D02*
X224847982Y-97452700D01*
X224847982Y-97452700D02*
X224881315Y-97519366D01*
X224881315Y-97519366D02*
X224881315Y-97619366D01*
X224881315Y-97619366D02*
X224847982Y-97686033D01*
X224847982Y-97686033D02*
X224814649Y-97719366D01*
X224814649Y-97719366D02*
X224747982Y-97752700D01*
X224747982Y-97752700D02*
X224481315Y-97752700D01*
X225114649Y-97386033D02*
X225581315Y-98086033D01*
X225581315Y-97386033D02*
X225114649Y-98086033D01*
X225847982Y-98086033D02*
X225847982Y-97386033D01*
X225847982Y-97386033D02*
X226014649Y-97386033D01*
X226014649Y-97386033D02*
X226114649Y-97419366D01*
X226114649Y-97419366D02*
X226181316Y-97486033D01*
X226181316Y-97486033D02*
X226214649Y-97552700D01*
X226214649Y-97552700D02*
X226247982Y-97686033D01*
X226247982Y-97686033D02*
X226247982Y-97786033D01*
X226247982Y-97786033D02*
X226214649Y-97919366D01*
X226214649Y-97919366D02*
X226181316Y-97986033D01*
X226181316Y-97986033D02*
X226114649Y-98052700D01*
X226114649Y-98052700D02*
X226014649Y-98086033D01*
X226014649Y-98086033D02*
X225847982Y-98086033D01*
X204252017Y-122819366D02*
X204185350Y-122786033D01*
X204185350Y-122786033D02*
X204085350Y-122786033D01*
X204085350Y-122786033D02*
X203985350Y-122819366D01*
X203985350Y-122819366D02*
X203918684Y-122886033D01*
X203918684Y-122886033D02*
X203885350Y-122952700D01*
X203885350Y-122952700D02*
X203852017Y-123086033D01*
X203852017Y-123086033D02*
X203852017Y-123186033D01*
X203852017Y-123186033D02*
X203885350Y-123319366D01*
X203885350Y-123319366D02*
X203918684Y-123386033D01*
X203918684Y-123386033D02*
X203985350Y-123452700D01*
X203985350Y-123452700D02*
X204085350Y-123486033D01*
X204085350Y-123486033D02*
X204152017Y-123486033D01*
X204152017Y-123486033D02*
X204252017Y-123452700D01*
X204252017Y-123452700D02*
X204285350Y-123419366D01*
X204285350Y-123419366D02*
X204285350Y-123186033D01*
X204285350Y-123186033D02*
X204152017Y-123186033D01*
X204585350Y-123486033D02*
X204585350Y-122786033D01*
X204585350Y-122786033D02*
X204852017Y-122786033D01*
X204852017Y-122786033D02*
X204918684Y-122819366D01*
X204918684Y-122819366D02*
X204952017Y-122852700D01*
X204952017Y-122852700D02*
X204985350Y-122919366D01*
X204985350Y-122919366D02*
X204985350Y-123019366D01*
X204985350Y-123019366D02*
X204952017Y-123086033D01*
X204952017Y-123086033D02*
X204918684Y-123119366D01*
X204918684Y-123119366D02*
X204852017Y-123152700D01*
X204852017Y-123152700D02*
X204585350Y-123152700D01*
X205285350Y-123486033D02*
X205285350Y-122786033D01*
X205752017Y-122786033D02*
X205885350Y-122786033D01*
X205885350Y-122786033D02*
X205952017Y-122819366D01*
X205952017Y-122819366D02*
X206018683Y-122886033D01*
X206018683Y-122886033D02*
X206052017Y-123019366D01*
X206052017Y-123019366D02*
X206052017Y-123252700D01*
X206052017Y-123252700D02*
X206018683Y-123386033D01*
X206018683Y-123386033D02*
X205952017Y-123452700D01*
X205952017Y-123452700D02*
X205885350Y-123486033D01*
X205885350Y-123486033D02*
X205752017Y-123486033D01*
X205752017Y-123486033D02*
X205685350Y-123452700D01*
X205685350Y-123452700D02*
X205618683Y-123386033D01*
X205618683Y-123386033D02*
X205585350Y-123252700D01*
X205585350Y-123252700D02*
X205585350Y-123019366D01*
X205585350Y-123019366D02*
X205618683Y-122886033D01*
X205618683Y-122886033D02*
X205685350Y-122819366D01*
X205685350Y-122819366D02*
X205752017Y-122786033D01*
X206718683Y-123486033D02*
X206318683Y-123486033D01*
X206518683Y-123486033D02*
X206518683Y-122786033D01*
X206518683Y-122786033D02*
X206452016Y-122886033D01*
X206452016Y-122886033D02*
X206385350Y-122952700D01*
X206385350Y-122952700D02*
X206318683Y-122986033D01*
X206952017Y-122786033D02*
X207385350Y-122786033D01*
X207385350Y-122786033D02*
X207152017Y-123052700D01*
X207152017Y-123052700D02*
X207252017Y-123052700D01*
X207252017Y-123052700D02*
X207318683Y-123086033D01*
X207318683Y-123086033D02*
X207352017Y-123119366D01*
X207352017Y-123119366D02*
X207385350Y-123186033D01*
X207385350Y-123186033D02*
X207385350Y-123352700D01*
X207385350Y-123352700D02*
X207352017Y-123419366D01*
X207352017Y-123419366D02*
X207318683Y-123452700D01*
X207318683Y-123452700D02*
X207252017Y-123486033D01*
X207252017Y-123486033D02*
X207052017Y-123486033D01*
X207052017Y-123486033D02*
X206985350Y-123452700D01*
X206985350Y-123452700D02*
X206952017Y-123419366D01*
X208185350Y-122752700D02*
X207585350Y-123652700D01*
X208418683Y-123486033D02*
X208418683Y-122786033D01*
X208418683Y-122786033D02*
X208652017Y-123286033D01*
X208652017Y-123286033D02*
X208885350Y-122786033D01*
X208885350Y-122786033D02*
X208885350Y-123486033D01*
X209118683Y-122786033D02*
X209518683Y-122786033D01*
X209318683Y-123486033D02*
X209318683Y-122786033D01*
X210152016Y-123419366D02*
X210118683Y-123452700D01*
X210118683Y-123452700D02*
X210018683Y-123486033D01*
X210018683Y-123486033D02*
X209952016Y-123486033D01*
X209952016Y-123486033D02*
X209852016Y-123452700D01*
X209852016Y-123452700D02*
X209785350Y-123386033D01*
X209785350Y-123386033D02*
X209752016Y-123319366D01*
X209752016Y-123319366D02*
X209718683Y-123186033D01*
X209718683Y-123186033D02*
X209718683Y-123086033D01*
X209718683Y-123086033D02*
X209752016Y-122952700D01*
X209752016Y-122952700D02*
X209785350Y-122886033D01*
X209785350Y-122886033D02*
X209852016Y-122819366D01*
X209852016Y-122819366D02*
X209952016Y-122786033D01*
X209952016Y-122786033D02*
X210018683Y-122786033D01*
X210018683Y-122786033D02*
X210118683Y-122819366D01*
X210118683Y-122819366D02*
X210152016Y-122852700D01*
X210452016Y-123486033D02*
X210452016Y-122786033D01*
X210852016Y-123486033D02*
X210552016Y-123086033D01*
X210852016Y-122786033D02*
X210452016Y-123186033D01*
X204252017Y-112659366D02*
X204185350Y-112626033D01*
X204185350Y-112626033D02*
X204085350Y-112626033D01*
X204085350Y-112626033D02*
X203985350Y-112659366D01*
X203985350Y-112659366D02*
X203918684Y-112726033D01*
X203918684Y-112726033D02*
X203885350Y-112792700D01*
X203885350Y-112792700D02*
X203852017Y-112926033D01*
X203852017Y-112926033D02*
X203852017Y-113026033D01*
X203852017Y-113026033D02*
X203885350Y-113159366D01*
X203885350Y-113159366D02*
X203918684Y-113226033D01*
X203918684Y-113226033D02*
X203985350Y-113292700D01*
X203985350Y-113292700D02*
X204085350Y-113326033D01*
X204085350Y-113326033D02*
X204152017Y-113326033D01*
X204152017Y-113326033D02*
X204252017Y-113292700D01*
X204252017Y-113292700D02*
X204285350Y-113259366D01*
X204285350Y-113259366D02*
X204285350Y-113026033D01*
X204285350Y-113026033D02*
X204152017Y-113026033D01*
X204585350Y-113326033D02*
X204585350Y-112626033D01*
X204585350Y-112626033D02*
X204852017Y-112626033D01*
X204852017Y-112626033D02*
X204918684Y-112659366D01*
X204918684Y-112659366D02*
X204952017Y-112692700D01*
X204952017Y-112692700D02*
X204985350Y-112759366D01*
X204985350Y-112759366D02*
X204985350Y-112859366D01*
X204985350Y-112859366D02*
X204952017Y-112926033D01*
X204952017Y-112926033D02*
X204918684Y-112959366D01*
X204918684Y-112959366D02*
X204852017Y-112992700D01*
X204852017Y-112992700D02*
X204585350Y-112992700D01*
X205285350Y-113326033D02*
X205285350Y-112626033D01*
X205752017Y-112626033D02*
X205885350Y-112626033D01*
X205885350Y-112626033D02*
X205952017Y-112659366D01*
X205952017Y-112659366D02*
X206018683Y-112726033D01*
X206018683Y-112726033D02*
X206052017Y-112859366D01*
X206052017Y-112859366D02*
X206052017Y-113092700D01*
X206052017Y-113092700D02*
X206018683Y-113226033D01*
X206018683Y-113226033D02*
X205952017Y-113292700D01*
X205952017Y-113292700D02*
X205885350Y-113326033D01*
X205885350Y-113326033D02*
X205752017Y-113326033D01*
X205752017Y-113326033D02*
X205685350Y-113292700D01*
X205685350Y-113292700D02*
X205618683Y-113226033D01*
X205618683Y-113226033D02*
X205585350Y-113092700D01*
X205585350Y-113092700D02*
X205585350Y-112859366D01*
X205585350Y-112859366D02*
X205618683Y-112726033D01*
X205618683Y-112726033D02*
X205685350Y-112659366D01*
X205685350Y-112659366D02*
X205752017Y-112626033D01*
X206318683Y-112692700D02*
X206352016Y-112659366D01*
X206352016Y-112659366D02*
X206418683Y-112626033D01*
X206418683Y-112626033D02*
X206585350Y-112626033D01*
X206585350Y-112626033D02*
X206652016Y-112659366D01*
X206652016Y-112659366D02*
X206685350Y-112692700D01*
X206685350Y-112692700D02*
X206718683Y-112759366D01*
X206718683Y-112759366D02*
X206718683Y-112826033D01*
X206718683Y-112826033D02*
X206685350Y-112926033D01*
X206685350Y-112926033D02*
X206285350Y-113326033D01*
X206285350Y-113326033D02*
X206718683Y-113326033D01*
X206952017Y-112626033D02*
X207418683Y-112626033D01*
X207418683Y-112626033D02*
X207118683Y-113326033D01*
X224095601Y-102352438D02*
X224000363Y-102304819D01*
X224000363Y-102304819D02*
X223857506Y-102304819D01*
X223857506Y-102304819D02*
X223714649Y-102352438D01*
X223714649Y-102352438D02*
X223619411Y-102447676D01*
X223619411Y-102447676D02*
X223571792Y-102542914D01*
X223571792Y-102542914D02*
X223524173Y-102733390D01*
X223524173Y-102733390D02*
X223524173Y-102876247D01*
X223524173Y-102876247D02*
X223571792Y-103066723D01*
X223571792Y-103066723D02*
X223619411Y-103161961D01*
X223619411Y-103161961D02*
X223714649Y-103257200D01*
X223714649Y-103257200D02*
X223857506Y-103304819D01*
X223857506Y-103304819D02*
X223952744Y-103304819D01*
X223952744Y-103304819D02*
X224095601Y-103257200D01*
X224095601Y-103257200D02*
X224143220Y-103209580D01*
X224143220Y-103209580D02*
X224143220Y-102876247D01*
X224143220Y-102876247D02*
X223952744Y-102876247D01*
X224571792Y-103304819D02*
X224571792Y-102304819D01*
X224571792Y-102304819D02*
X225143220Y-103304819D01*
X225143220Y-103304819D02*
X225143220Y-102304819D01*
X225619411Y-103304819D02*
X225619411Y-102304819D01*
X225619411Y-102304819D02*
X225857506Y-102304819D01*
X225857506Y-102304819D02*
X226000363Y-102352438D01*
X226000363Y-102352438D02*
X226095601Y-102447676D01*
X226095601Y-102447676D02*
X226143220Y-102542914D01*
X226143220Y-102542914D02*
X226190839Y-102733390D01*
X226190839Y-102733390D02*
X226190839Y-102876247D01*
X226190839Y-102876247D02*
X226143220Y-103066723D01*
X226143220Y-103066723D02*
X226095601Y-103161961D01*
X226095601Y-103161961D02*
X226000363Y-103257200D01*
X226000363Y-103257200D02*
X225857506Y-103304819D01*
X225857506Y-103304819D02*
X225619411Y-103304819D01*
X224095601Y-87112438D02*
X224000363Y-87064819D01*
X224000363Y-87064819D02*
X223857506Y-87064819D01*
X223857506Y-87064819D02*
X223714649Y-87112438D01*
X223714649Y-87112438D02*
X223619411Y-87207676D01*
X223619411Y-87207676D02*
X223571792Y-87302914D01*
X223571792Y-87302914D02*
X223524173Y-87493390D01*
X223524173Y-87493390D02*
X223524173Y-87636247D01*
X223524173Y-87636247D02*
X223571792Y-87826723D01*
X223571792Y-87826723D02*
X223619411Y-87921961D01*
X223619411Y-87921961D02*
X223714649Y-88017200D01*
X223714649Y-88017200D02*
X223857506Y-88064819D01*
X223857506Y-88064819D02*
X223952744Y-88064819D01*
X223952744Y-88064819D02*
X224095601Y-88017200D01*
X224095601Y-88017200D02*
X224143220Y-87969580D01*
X224143220Y-87969580D02*
X224143220Y-87636247D01*
X224143220Y-87636247D02*
X223952744Y-87636247D01*
X224571792Y-88064819D02*
X224571792Y-87064819D01*
X224571792Y-87064819D02*
X225143220Y-88064819D01*
X225143220Y-88064819D02*
X225143220Y-87064819D01*
X225619411Y-88064819D02*
X225619411Y-87064819D01*
X225619411Y-87064819D02*
X225857506Y-87064819D01*
X225857506Y-87064819D02*
X226000363Y-87112438D01*
X226000363Y-87112438D02*
X226095601Y-87207676D01*
X226095601Y-87207676D02*
X226143220Y-87302914D01*
X226143220Y-87302914D02*
X226190839Y-87493390D01*
X226190839Y-87493390D02*
X226190839Y-87636247D01*
X226190839Y-87636247D02*
X226143220Y-87826723D01*
X226143220Y-87826723D02*
X226095601Y-87921961D01*
X226095601Y-87921961D02*
X226000363Y-88017200D01*
X226000363Y-88017200D02*
X225857506Y-88064819D01*
X225857506Y-88064819D02*
X225619411Y-88064819D01*
X223114649Y-92339366D02*
X223047982Y-92306033D01*
X223047982Y-92306033D02*
X222947982Y-92306033D01*
X222947982Y-92306033D02*
X222847982Y-92339366D01*
X222847982Y-92339366D02*
X222781316Y-92406033D01*
X222781316Y-92406033D02*
X222747982Y-92472700D01*
X222747982Y-92472700D02*
X222714649Y-92606033D01*
X222714649Y-92606033D02*
X222714649Y-92706033D01*
X222714649Y-92706033D02*
X222747982Y-92839366D01*
X222747982Y-92839366D02*
X222781316Y-92906033D01*
X222781316Y-92906033D02*
X222847982Y-92972700D01*
X222847982Y-92972700D02*
X222947982Y-93006033D01*
X222947982Y-93006033D02*
X223014649Y-93006033D01*
X223014649Y-93006033D02*
X223114649Y-92972700D01*
X223114649Y-92972700D02*
X223147982Y-92939366D01*
X223147982Y-92939366D02*
X223147982Y-92706033D01*
X223147982Y-92706033D02*
X223014649Y-92706033D01*
X223447982Y-93006033D02*
X223447982Y-92306033D01*
X223447982Y-92306033D02*
X223714649Y-92306033D01*
X223714649Y-92306033D02*
X223781316Y-92339366D01*
X223781316Y-92339366D02*
X223814649Y-92372700D01*
X223814649Y-92372700D02*
X223847982Y-92439366D01*
X223847982Y-92439366D02*
X223847982Y-92539366D01*
X223847982Y-92539366D02*
X223814649Y-92606033D01*
X223814649Y-92606033D02*
X223781316Y-92639366D01*
X223781316Y-92639366D02*
X223714649Y-92672700D01*
X223714649Y-92672700D02*
X223447982Y-92672700D01*
X224147982Y-93006033D02*
X224147982Y-92306033D01*
X224614649Y-92306033D02*
X224747982Y-92306033D01*
X224747982Y-92306033D02*
X224814649Y-92339366D01*
X224814649Y-92339366D02*
X224881315Y-92406033D01*
X224881315Y-92406033D02*
X224914649Y-92539366D01*
X224914649Y-92539366D02*
X224914649Y-92772700D01*
X224914649Y-92772700D02*
X224881315Y-92906033D01*
X224881315Y-92906033D02*
X224814649Y-92972700D01*
X224814649Y-92972700D02*
X224747982Y-93006033D01*
X224747982Y-93006033D02*
X224614649Y-93006033D01*
X224614649Y-93006033D02*
X224547982Y-92972700D01*
X224547982Y-92972700D02*
X224481315Y-92906033D01*
X224481315Y-92906033D02*
X224447982Y-92772700D01*
X224447982Y-92772700D02*
X224447982Y-92539366D01*
X224447982Y-92539366D02*
X224481315Y-92406033D01*
X224481315Y-92406033D02*
X224547982Y-92339366D01*
X224547982Y-92339366D02*
X224614649Y-92306033D01*
X225181315Y-92372700D02*
X225214648Y-92339366D01*
X225214648Y-92339366D02*
X225281315Y-92306033D01*
X225281315Y-92306033D02*
X225447982Y-92306033D01*
X225447982Y-92306033D02*
X225514648Y-92339366D01*
X225514648Y-92339366D02*
X225547982Y-92372700D01*
X225547982Y-92372700D02*
X225581315Y-92439366D01*
X225581315Y-92439366D02*
X225581315Y-92506033D01*
X225581315Y-92506033D02*
X225547982Y-92606033D01*
X225547982Y-92606033D02*
X225147982Y-93006033D01*
X225147982Y-93006033D02*
X225581315Y-93006033D01*
X225847982Y-92372700D02*
X225881315Y-92339366D01*
X225881315Y-92339366D02*
X225947982Y-92306033D01*
X225947982Y-92306033D02*
X226114649Y-92306033D01*
X226114649Y-92306033D02*
X226181315Y-92339366D01*
X226181315Y-92339366D02*
X226214649Y-92372700D01*
X226214649Y-92372700D02*
X226247982Y-92439366D01*
X226247982Y-92439366D02*
X226247982Y-92506033D01*
X226247982Y-92506033D02*
X226214649Y-92606033D01*
X226214649Y-92606033D02*
X225814649Y-93006033D01*
X225814649Y-93006033D02*
X226247982Y-93006033D01*
X223781316Y-120279366D02*
X223714649Y-120246033D01*
X223714649Y-120246033D02*
X223614649Y-120246033D01*
X223614649Y-120246033D02*
X223514649Y-120279366D01*
X223514649Y-120279366D02*
X223447983Y-120346033D01*
X223447983Y-120346033D02*
X223414649Y-120412700D01*
X223414649Y-120412700D02*
X223381316Y-120546033D01*
X223381316Y-120546033D02*
X223381316Y-120646033D01*
X223381316Y-120646033D02*
X223414649Y-120779366D01*
X223414649Y-120779366D02*
X223447983Y-120846033D01*
X223447983Y-120846033D02*
X223514649Y-120912700D01*
X223514649Y-120912700D02*
X223614649Y-120946033D01*
X223614649Y-120946033D02*
X223681316Y-120946033D01*
X223681316Y-120946033D02*
X223781316Y-120912700D01*
X223781316Y-120912700D02*
X223814649Y-120879366D01*
X223814649Y-120879366D02*
X223814649Y-120646033D01*
X223814649Y-120646033D02*
X223681316Y-120646033D01*
X224114649Y-120946033D02*
X224114649Y-120246033D01*
X224114649Y-120246033D02*
X224381316Y-120246033D01*
X224381316Y-120246033D02*
X224447983Y-120279366D01*
X224447983Y-120279366D02*
X224481316Y-120312700D01*
X224481316Y-120312700D02*
X224514649Y-120379366D01*
X224514649Y-120379366D02*
X224514649Y-120479366D01*
X224514649Y-120479366D02*
X224481316Y-120546033D01*
X224481316Y-120546033D02*
X224447983Y-120579366D01*
X224447983Y-120579366D02*
X224381316Y-120612700D01*
X224381316Y-120612700D02*
X224114649Y-120612700D01*
X224814649Y-120946033D02*
X224814649Y-120246033D01*
X225281316Y-120246033D02*
X225414649Y-120246033D01*
X225414649Y-120246033D02*
X225481316Y-120279366D01*
X225481316Y-120279366D02*
X225547982Y-120346033D01*
X225547982Y-120346033D02*
X225581316Y-120479366D01*
X225581316Y-120479366D02*
X225581316Y-120712700D01*
X225581316Y-120712700D02*
X225547982Y-120846033D01*
X225547982Y-120846033D02*
X225481316Y-120912700D01*
X225481316Y-120912700D02*
X225414649Y-120946033D01*
X225414649Y-120946033D02*
X225281316Y-120946033D01*
X225281316Y-120946033D02*
X225214649Y-120912700D01*
X225214649Y-120912700D02*
X225147982Y-120846033D01*
X225147982Y-120846033D02*
X225114649Y-120712700D01*
X225114649Y-120712700D02*
X225114649Y-120479366D01*
X225114649Y-120479366D02*
X225147982Y-120346033D01*
X225147982Y-120346033D02*
X225214649Y-120279366D01*
X225214649Y-120279366D02*
X225281316Y-120246033D01*
X226014649Y-120246033D02*
X226081315Y-120246033D01*
X226081315Y-120246033D02*
X226147982Y-120279366D01*
X226147982Y-120279366D02*
X226181315Y-120312700D01*
X226181315Y-120312700D02*
X226214649Y-120379366D01*
X226214649Y-120379366D02*
X226247982Y-120512700D01*
X226247982Y-120512700D02*
X226247982Y-120679366D01*
X226247982Y-120679366D02*
X226214649Y-120812700D01*
X226214649Y-120812700D02*
X226181315Y-120879366D01*
X226181315Y-120879366D02*
X226147982Y-120912700D01*
X226147982Y-120912700D02*
X226081315Y-120946033D01*
X226081315Y-120946033D02*
X226014649Y-120946033D01*
X226014649Y-120946033D02*
X225947982Y-120912700D01*
X225947982Y-120912700D02*
X225914649Y-120879366D01*
X225914649Y-120879366D02*
X225881315Y-120812700D01*
X225881315Y-120812700D02*
X225847982Y-120679366D01*
X225847982Y-120679366D02*
X225847982Y-120512700D01*
X225847982Y-120512700D02*
X225881315Y-120379366D01*
X225881315Y-120379366D02*
X225914649Y-120312700D01*
X225914649Y-120312700D02*
X225947982Y-120279366D01*
X225947982Y-120279366D02*
X226014649Y-120246033D01*
X204480588Y-120132438D02*
X204385350Y-120084819D01*
X204385350Y-120084819D02*
X204242493Y-120084819D01*
X204242493Y-120084819D02*
X204099636Y-120132438D01*
X204099636Y-120132438D02*
X204004398Y-120227676D01*
X204004398Y-120227676D02*
X203956779Y-120322914D01*
X203956779Y-120322914D02*
X203909160Y-120513390D01*
X203909160Y-120513390D02*
X203909160Y-120656247D01*
X203909160Y-120656247D02*
X203956779Y-120846723D01*
X203956779Y-120846723D02*
X204004398Y-120941961D01*
X204004398Y-120941961D02*
X204099636Y-121037200D01*
X204099636Y-121037200D02*
X204242493Y-121084819D01*
X204242493Y-121084819D02*
X204337731Y-121084819D01*
X204337731Y-121084819D02*
X204480588Y-121037200D01*
X204480588Y-121037200D02*
X204528207Y-120989580D01*
X204528207Y-120989580D02*
X204528207Y-120656247D01*
X204528207Y-120656247D02*
X204337731Y-120656247D01*
X204956779Y-121084819D02*
X204956779Y-120084819D01*
X204956779Y-120084819D02*
X205528207Y-121084819D01*
X205528207Y-121084819D02*
X205528207Y-120084819D01*
X206004398Y-121084819D02*
X206004398Y-120084819D01*
X206004398Y-120084819D02*
X206242493Y-120084819D01*
X206242493Y-120084819D02*
X206385350Y-120132438D01*
X206385350Y-120132438D02*
X206480588Y-120227676D01*
X206480588Y-120227676D02*
X206528207Y-120322914D01*
X206528207Y-120322914D02*
X206575826Y-120513390D01*
X206575826Y-120513390D02*
X206575826Y-120656247D01*
X206575826Y-120656247D02*
X206528207Y-120846723D01*
X206528207Y-120846723D02*
X206480588Y-120941961D01*
X206480588Y-120941961D02*
X206385350Y-121037200D01*
X206385350Y-121037200D02*
X206242493Y-121084819D01*
X206242493Y-121084819D02*
X206004398Y-121084819D01*
X204252017Y-105039366D02*
X204185350Y-105006033D01*
X204185350Y-105006033D02*
X204085350Y-105006033D01*
X204085350Y-105006033D02*
X203985350Y-105039366D01*
X203985350Y-105039366D02*
X203918684Y-105106033D01*
X203918684Y-105106033D02*
X203885350Y-105172700D01*
X203885350Y-105172700D02*
X203852017Y-105306033D01*
X203852017Y-105306033D02*
X203852017Y-105406033D01*
X203852017Y-105406033D02*
X203885350Y-105539366D01*
X203885350Y-105539366D02*
X203918684Y-105606033D01*
X203918684Y-105606033D02*
X203985350Y-105672700D01*
X203985350Y-105672700D02*
X204085350Y-105706033D01*
X204085350Y-105706033D02*
X204152017Y-105706033D01*
X204152017Y-105706033D02*
X204252017Y-105672700D01*
X204252017Y-105672700D02*
X204285350Y-105639366D01*
X204285350Y-105639366D02*
X204285350Y-105406033D01*
X204285350Y-105406033D02*
X204152017Y-105406033D01*
X204585350Y-105706033D02*
X204585350Y-105006033D01*
X204585350Y-105006033D02*
X204852017Y-105006033D01*
X204852017Y-105006033D02*
X204918684Y-105039366D01*
X204918684Y-105039366D02*
X204952017Y-105072700D01*
X204952017Y-105072700D02*
X204985350Y-105139366D01*
X204985350Y-105139366D02*
X204985350Y-105239366D01*
X204985350Y-105239366D02*
X204952017Y-105306033D01*
X204952017Y-105306033D02*
X204918684Y-105339366D01*
X204918684Y-105339366D02*
X204852017Y-105372700D01*
X204852017Y-105372700D02*
X204585350Y-105372700D01*
X205285350Y-105706033D02*
X205285350Y-105006033D01*
X205752017Y-105006033D02*
X205885350Y-105006033D01*
X205885350Y-105006033D02*
X205952017Y-105039366D01*
X205952017Y-105039366D02*
X206018683Y-105106033D01*
X206018683Y-105106033D02*
X206052017Y-105239366D01*
X206052017Y-105239366D02*
X206052017Y-105472700D01*
X206052017Y-105472700D02*
X206018683Y-105606033D01*
X206018683Y-105606033D02*
X205952017Y-105672700D01*
X205952017Y-105672700D02*
X205885350Y-105706033D01*
X205885350Y-105706033D02*
X205752017Y-105706033D01*
X205752017Y-105706033D02*
X205685350Y-105672700D01*
X205685350Y-105672700D02*
X205618683Y-105606033D01*
X205618683Y-105606033D02*
X205585350Y-105472700D01*
X205585350Y-105472700D02*
X205585350Y-105239366D01*
X205585350Y-105239366D02*
X205618683Y-105106033D01*
X205618683Y-105106033D02*
X205685350Y-105039366D01*
X205685350Y-105039366D02*
X205752017Y-105006033D01*
X206285350Y-105006033D02*
X206718683Y-105006033D01*
X206718683Y-105006033D02*
X206485350Y-105272700D01*
X206485350Y-105272700D02*
X206585350Y-105272700D01*
X206585350Y-105272700D02*
X206652016Y-105306033D01*
X206652016Y-105306033D02*
X206685350Y-105339366D01*
X206685350Y-105339366D02*
X206718683Y-105406033D01*
X206718683Y-105406033D02*
X206718683Y-105572700D01*
X206718683Y-105572700D02*
X206685350Y-105639366D01*
X206685350Y-105639366D02*
X206652016Y-105672700D01*
X206652016Y-105672700D02*
X206585350Y-105706033D01*
X206585350Y-105706033D02*
X206385350Y-105706033D01*
X206385350Y-105706033D02*
X206318683Y-105672700D01*
X206318683Y-105672700D02*
X206285350Y-105639366D01*
X206952017Y-105006033D02*
X207385350Y-105006033D01*
X207385350Y-105006033D02*
X207152017Y-105272700D01*
X207152017Y-105272700D02*
X207252017Y-105272700D01*
X207252017Y-105272700D02*
X207318683Y-105306033D01*
X207318683Y-105306033D02*
X207352017Y-105339366D01*
X207352017Y-105339366D02*
X207385350Y-105406033D01*
X207385350Y-105406033D02*
X207385350Y-105572700D01*
X207385350Y-105572700D02*
X207352017Y-105639366D01*
X207352017Y-105639366D02*
X207318683Y-105672700D01*
X207318683Y-105672700D02*
X207252017Y-105706033D01*
X207252017Y-105706033D02*
X207052017Y-105706033D01*
X207052017Y-105706033D02*
X206985350Y-105672700D01*
X206985350Y-105672700D02*
X206952017Y-105639366D01*
X203785350Y-94846033D02*
X204018684Y-95546033D01*
X204018684Y-95546033D02*
X204252017Y-94846033D01*
X204485350Y-95546033D02*
X204485350Y-94846033D01*
X204485350Y-94846033D02*
X204885350Y-95546033D01*
X204885350Y-95546033D02*
X204885350Y-94846033D01*
X205718683Y-94812700D02*
X205118683Y-95712700D01*
X206318683Y-94879366D02*
X206252016Y-94846033D01*
X206252016Y-94846033D02*
X206152016Y-94846033D01*
X206152016Y-94846033D02*
X206052016Y-94879366D01*
X206052016Y-94879366D02*
X205985350Y-94946033D01*
X205985350Y-94946033D02*
X205952016Y-95012700D01*
X205952016Y-95012700D02*
X205918683Y-95146033D01*
X205918683Y-95146033D02*
X205918683Y-95246033D01*
X205918683Y-95246033D02*
X205952016Y-95379366D01*
X205952016Y-95379366D02*
X205985350Y-95446033D01*
X205985350Y-95446033D02*
X206052016Y-95512700D01*
X206052016Y-95512700D02*
X206152016Y-95546033D01*
X206152016Y-95546033D02*
X206218683Y-95546033D01*
X206218683Y-95546033D02*
X206318683Y-95512700D01*
X206318683Y-95512700D02*
X206352016Y-95479366D01*
X206352016Y-95479366D02*
X206352016Y-95246033D01*
X206352016Y-95246033D02*
X206218683Y-95246033D01*
X206652016Y-95546033D02*
X206652016Y-94846033D01*
X206652016Y-94846033D02*
X206918683Y-94846033D01*
X206918683Y-94846033D02*
X206985350Y-94879366D01*
X206985350Y-94879366D02*
X207018683Y-94912700D01*
X207018683Y-94912700D02*
X207052016Y-94979366D01*
X207052016Y-94979366D02*
X207052016Y-95079366D01*
X207052016Y-95079366D02*
X207018683Y-95146033D01*
X207018683Y-95146033D02*
X206985350Y-95179366D01*
X206985350Y-95179366D02*
X206918683Y-95212700D01*
X206918683Y-95212700D02*
X206652016Y-95212700D01*
X207352016Y-95546033D02*
X207352016Y-94846033D01*
X207818683Y-94846033D02*
X207952016Y-94846033D01*
X207952016Y-94846033D02*
X208018683Y-94879366D01*
X208018683Y-94879366D02*
X208085349Y-94946033D01*
X208085349Y-94946033D02*
X208118683Y-95079366D01*
X208118683Y-95079366D02*
X208118683Y-95312700D01*
X208118683Y-95312700D02*
X208085349Y-95446033D01*
X208085349Y-95446033D02*
X208018683Y-95512700D01*
X208018683Y-95512700D02*
X207952016Y-95546033D01*
X207952016Y-95546033D02*
X207818683Y-95546033D01*
X207818683Y-95546033D02*
X207752016Y-95512700D01*
X207752016Y-95512700D02*
X207685349Y-95446033D01*
X207685349Y-95446033D02*
X207652016Y-95312700D01*
X207652016Y-95312700D02*
X207652016Y-95079366D01*
X207652016Y-95079366D02*
X207685349Y-94946033D01*
X207685349Y-94946033D02*
X207752016Y-94879366D01*
X207752016Y-94879366D02*
X207818683Y-94846033D01*
X208352016Y-94846033D02*
X208785349Y-94846033D01*
X208785349Y-94846033D02*
X208552016Y-95112700D01*
X208552016Y-95112700D02*
X208652016Y-95112700D01*
X208652016Y-95112700D02*
X208718682Y-95146033D01*
X208718682Y-95146033D02*
X208752016Y-95179366D01*
X208752016Y-95179366D02*
X208785349Y-95246033D01*
X208785349Y-95246033D02*
X208785349Y-95412700D01*
X208785349Y-95412700D02*
X208752016Y-95479366D01*
X208752016Y-95479366D02*
X208718682Y-95512700D01*
X208718682Y-95512700D02*
X208652016Y-95546033D01*
X208652016Y-95546033D02*
X208452016Y-95546033D01*
X208452016Y-95546033D02*
X208385349Y-95512700D01*
X208385349Y-95512700D02*
X208352016Y-95479366D01*
X209118683Y-95546033D02*
X209252016Y-95546033D01*
X209252016Y-95546033D02*
X209318683Y-95512700D01*
X209318683Y-95512700D02*
X209352016Y-95479366D01*
X209352016Y-95479366D02*
X209418683Y-95379366D01*
X209418683Y-95379366D02*
X209452016Y-95246033D01*
X209452016Y-95246033D02*
X209452016Y-94979366D01*
X209452016Y-94979366D02*
X209418683Y-94912700D01*
X209418683Y-94912700D02*
X209385349Y-94879366D01*
X209385349Y-94879366D02*
X209318683Y-94846033D01*
X209318683Y-94846033D02*
X209185349Y-94846033D01*
X209185349Y-94846033D02*
X209118683Y-94879366D01*
X209118683Y-94879366D02*
X209085349Y-94912700D01*
X209085349Y-94912700D02*
X209052016Y-94979366D01*
X209052016Y-94979366D02*
X209052016Y-95146033D01*
X209052016Y-95146033D02*
X209085349Y-95212700D01*
X209085349Y-95212700D02*
X209118683Y-95246033D01*
X209118683Y-95246033D02*
X209185349Y-95279366D01*
X209185349Y-95279366D02*
X209318683Y-95279366D01*
X209318683Y-95279366D02*
X209385349Y-95246033D01*
X209385349Y-95246033D02*
X209418683Y-95212700D01*
X209418683Y-95212700D02*
X209452016Y-95146033D01*
X223114649Y-115199366D02*
X223047982Y-115166033D01*
X223047982Y-115166033D02*
X222947982Y-115166033D01*
X222947982Y-115166033D02*
X222847982Y-115199366D01*
X222847982Y-115199366D02*
X222781316Y-115266033D01*
X222781316Y-115266033D02*
X222747982Y-115332700D01*
X222747982Y-115332700D02*
X222714649Y-115466033D01*
X222714649Y-115466033D02*
X222714649Y-115566033D01*
X222714649Y-115566033D02*
X222747982Y-115699366D01*
X222747982Y-115699366D02*
X222781316Y-115766033D01*
X222781316Y-115766033D02*
X222847982Y-115832700D01*
X222847982Y-115832700D02*
X222947982Y-115866033D01*
X222947982Y-115866033D02*
X223014649Y-115866033D01*
X223014649Y-115866033D02*
X223114649Y-115832700D01*
X223114649Y-115832700D02*
X223147982Y-115799366D01*
X223147982Y-115799366D02*
X223147982Y-115566033D01*
X223147982Y-115566033D02*
X223014649Y-115566033D01*
X223447982Y-115866033D02*
X223447982Y-115166033D01*
X223447982Y-115166033D02*
X223714649Y-115166033D01*
X223714649Y-115166033D02*
X223781316Y-115199366D01*
X223781316Y-115199366D02*
X223814649Y-115232700D01*
X223814649Y-115232700D02*
X223847982Y-115299366D01*
X223847982Y-115299366D02*
X223847982Y-115399366D01*
X223847982Y-115399366D02*
X223814649Y-115466033D01*
X223814649Y-115466033D02*
X223781316Y-115499366D01*
X223781316Y-115499366D02*
X223714649Y-115532700D01*
X223714649Y-115532700D02*
X223447982Y-115532700D01*
X224147982Y-115866033D02*
X224147982Y-115166033D01*
X224614649Y-115166033D02*
X224747982Y-115166033D01*
X224747982Y-115166033D02*
X224814649Y-115199366D01*
X224814649Y-115199366D02*
X224881315Y-115266033D01*
X224881315Y-115266033D02*
X224914649Y-115399366D01*
X224914649Y-115399366D02*
X224914649Y-115632700D01*
X224914649Y-115632700D02*
X224881315Y-115766033D01*
X224881315Y-115766033D02*
X224814649Y-115832700D01*
X224814649Y-115832700D02*
X224747982Y-115866033D01*
X224747982Y-115866033D02*
X224614649Y-115866033D01*
X224614649Y-115866033D02*
X224547982Y-115832700D01*
X224547982Y-115832700D02*
X224481315Y-115766033D01*
X224481315Y-115766033D02*
X224447982Y-115632700D01*
X224447982Y-115632700D02*
X224447982Y-115399366D01*
X224447982Y-115399366D02*
X224481315Y-115266033D01*
X224481315Y-115266033D02*
X224547982Y-115199366D01*
X224547982Y-115199366D02*
X224614649Y-115166033D01*
X225581315Y-115866033D02*
X225181315Y-115866033D01*
X225381315Y-115866033D02*
X225381315Y-115166033D01*
X225381315Y-115166033D02*
X225314648Y-115266033D01*
X225314648Y-115266033D02*
X225247982Y-115332700D01*
X225247982Y-115332700D02*
X225181315Y-115366033D01*
X226181315Y-115166033D02*
X226047982Y-115166033D01*
X226047982Y-115166033D02*
X225981315Y-115199366D01*
X225981315Y-115199366D02*
X225947982Y-115232700D01*
X225947982Y-115232700D02*
X225881315Y-115332700D01*
X225881315Y-115332700D02*
X225847982Y-115466033D01*
X225847982Y-115466033D02*
X225847982Y-115732700D01*
X225847982Y-115732700D02*
X225881315Y-115799366D01*
X225881315Y-115799366D02*
X225914649Y-115832700D01*
X225914649Y-115832700D02*
X225981315Y-115866033D01*
X225981315Y-115866033D02*
X226114649Y-115866033D01*
X226114649Y-115866033D02*
X226181315Y-115832700D01*
X226181315Y-115832700D02*
X226214649Y-115799366D01*
X226214649Y-115799366D02*
X226247982Y-115732700D01*
X226247982Y-115732700D02*
X226247982Y-115566033D01*
X226247982Y-115566033D02*
X226214649Y-115499366D01*
X226214649Y-115499366D02*
X226181315Y-115466033D01*
X226181315Y-115466033D02*
X226114649Y-115432700D01*
X226114649Y-115432700D02*
X225981315Y-115432700D01*
X225981315Y-115432700D02*
X225914649Y-115466033D01*
X225914649Y-115466033D02*
X225881315Y-115499366D01*
X225881315Y-115499366D02*
X225847982Y-115566033D01*
X168236558Y-59208820D02*
X168236558Y-60018343D01*
X168236558Y-60018343D02*
X168284177Y-60113581D01*
X168284177Y-60113581D02*
X168331796Y-60161201D01*
X168331796Y-60161201D02*
X168427034Y-60208820D01*
X168427034Y-60208820D02*
X168617510Y-60208820D01*
X168617510Y-60208820D02*
X168712748Y-60161201D01*
X168712748Y-60161201D02*
X168760367Y-60113581D01*
X168760367Y-60113581D02*
X168807986Y-60018343D01*
X168807986Y-60018343D02*
X168807986Y-59208820D01*
X169236558Y-59304058D02*
X169284177Y-59256439D01*
X169284177Y-59256439D02*
X169379415Y-59208820D01*
X169379415Y-59208820D02*
X169617510Y-59208820D01*
X169617510Y-59208820D02*
X169712748Y-59256439D01*
X169712748Y-59256439D02*
X169760367Y-59304058D01*
X169760367Y-59304058D02*
X169807986Y-59399296D01*
X169807986Y-59399296D02*
X169807986Y-59494534D01*
X169807986Y-59494534D02*
X169760367Y-59637391D01*
X169760367Y-59637391D02*
X169188939Y-60208820D01*
X169188939Y-60208820D02*
X169807986Y-60208820D01*
X168189657Y-97954755D02*
X168189657Y-98764278D01*
X168189657Y-98764278D02*
X168237276Y-98859516D01*
X168237276Y-98859516D02*
X168284895Y-98907136D01*
X168284895Y-98907136D02*
X168380133Y-98954755D01*
X168380133Y-98954755D02*
X168570609Y-98954755D01*
X168570609Y-98954755D02*
X168665847Y-98907136D01*
X168665847Y-98907136D02*
X168713466Y-98859516D01*
X168713466Y-98859516D02*
X168761085Y-98764278D01*
X168761085Y-98764278D02*
X168761085Y-97954755D01*
X169142038Y-97954755D02*
X169761085Y-97954755D01*
X169761085Y-97954755D02*
X169427752Y-98335707D01*
X169427752Y-98335707D02*
X169570609Y-98335707D01*
X169570609Y-98335707D02*
X169665847Y-98383326D01*
X169665847Y-98383326D02*
X169713466Y-98430945D01*
X169713466Y-98430945D02*
X169761085Y-98526183D01*
X169761085Y-98526183D02*
X169761085Y-98764278D01*
X169761085Y-98764278D02*
X169713466Y-98859516D01*
X169713466Y-98859516D02*
X169665847Y-98907136D01*
X169665847Y-98907136D02*
X169570609Y-98954755D01*
X169570609Y-98954755D02*
X169284895Y-98954755D01*
X169284895Y-98954755D02*
X169189657Y-98907136D01*
X169189657Y-98907136D02*
X169142038Y-98859516D01*
X185339376Y-129295851D02*
X186148899Y-129295851D01*
X186148899Y-129295851D02*
X186244137Y-129248232D01*
X186244137Y-129248232D02*
X186291757Y-129200613D01*
X186291757Y-129200613D02*
X186339376Y-129105375D01*
X186339376Y-129105375D02*
X186339376Y-128914899D01*
X186339376Y-128914899D02*
X186291757Y-128819661D01*
X186291757Y-128819661D02*
X186244137Y-128772042D01*
X186244137Y-128772042D02*
X186148899Y-128724423D01*
X186148899Y-128724423D02*
X185339376Y-128724423D01*
X185767947Y-128105375D02*
X185720328Y-128200613D01*
X185720328Y-128200613D02*
X185672709Y-128248232D01*
X185672709Y-128248232D02*
X185577471Y-128295851D01*
X185577471Y-128295851D02*
X185529852Y-128295851D01*
X185529852Y-128295851D02*
X185434614Y-128248232D01*
X185434614Y-128248232D02*
X185386995Y-128200613D01*
X185386995Y-128200613D02*
X185339376Y-128105375D01*
X185339376Y-128105375D02*
X185339376Y-127914899D01*
X185339376Y-127914899D02*
X185386995Y-127819661D01*
X185386995Y-127819661D02*
X185434614Y-127772042D01*
X185434614Y-127772042D02*
X185529852Y-127724423D01*
X185529852Y-127724423D02*
X185577471Y-127724423D01*
X185577471Y-127724423D02*
X185672709Y-127772042D01*
X185672709Y-127772042D02*
X185720328Y-127819661D01*
X185720328Y-127819661D02*
X185767947Y-127914899D01*
X185767947Y-127914899D02*
X185767947Y-128105375D01*
X185767947Y-128105375D02*
X185815566Y-128200613D01*
X185815566Y-128200613D02*
X185863185Y-128248232D01*
X185863185Y-128248232D02*
X185958423Y-128295851D01*
X185958423Y-128295851D02*
X186148899Y-128295851D01*
X186148899Y-128295851D02*
X186244137Y-128248232D01*
X186244137Y-128248232D02*
X186291757Y-128200613D01*
X186291757Y-128200613D02*
X186339376Y-128105375D01*
X186339376Y-128105375D02*
X186339376Y-127914899D01*
X186339376Y-127914899D02*
X186291757Y-127819661D01*
X186291757Y-127819661D02*
X186244137Y-127772042D01*
X186244137Y-127772042D02*
X186148899Y-127724423D01*
X186148899Y-127724423D02*
X185958423Y-127724423D01*
X185958423Y-127724423D02*
X185863185Y-127772042D01*
X185863185Y-127772042D02*
X185815566Y-127819661D01*
X185815566Y-127819661D02*
X185767947Y-127914899D01*
D12*
%TO.C,G\u002A\u002A\u002A*%
G36*
X219591331Y-57102419D02*
G01*
X219755259Y-57104814D01*
X219884387Y-57107361D01*
X219983945Y-57110463D01*
X220059164Y-57114527D01*
X220115276Y-57119957D01*
X220157510Y-57127158D01*
X220191098Y-57136535D01*
X220221270Y-57148493D01*
X220228472Y-57151740D01*
X220351045Y-57228485D01*
X220447122Y-57334797D01*
X220497961Y-57424565D01*
X220534430Y-57539563D01*
X220549606Y-57672112D01*
X220543445Y-57807042D01*
X220515902Y-57929182D01*
X220499586Y-57969582D01*
X220420436Y-58097239D01*
X220315546Y-58195342D01*
X220211530Y-58254802D01*
X220166066Y-58274144D01*
X220121848Y-58288278D01*
X220070909Y-58298305D01*
X220005285Y-58305330D01*
X219917010Y-58310453D01*
X219798120Y-58314779D01*
X219772598Y-58315566D01*
X219444665Y-58325513D01*
X219447176Y-58687973D01*
X219449687Y-59050434D01*
X219258651Y-59052950D01*
X219175201Y-59052968D01*
X219107793Y-59050949D01*
X219065765Y-59047280D01*
X219056759Y-59044610D01*
X219054598Y-59023028D01*
X219052580Y-58965322D01*
X219050748Y-58875402D01*
X219049147Y-58757176D01*
X219047818Y-58614552D01*
X219046806Y-58451439D01*
X219046153Y-58271745D01*
X219045903Y-58079378D01*
X219045902Y-58064430D01*
X219045902Y-57694401D01*
X219045902Y-57435900D01*
X219446217Y-57435900D01*
X219446217Y-57694401D01*
X219447322Y-57792609D01*
X219450340Y-57876181D01*
X219454831Y-57937050D01*
X219460353Y-57967149D01*
X219461229Y-57968497D01*
X219486081Y-57973881D01*
X219542381Y-57976827D01*
X219621607Y-57977119D01*
X219709292Y-57974784D01*
X219817148Y-57969261D01*
X219893947Y-57961765D01*
X219948660Y-57950758D01*
X219990260Y-57934704D01*
X220010784Y-57923178D01*
X220062763Y-57882705D01*
X220101743Y-57838094D01*
X220105718Y-57831376D01*
X220128610Y-57756015D01*
X220129492Y-57669980D01*
X220109260Y-57591668D01*
X220092655Y-57562685D01*
X220053878Y-57518621D01*
X220008125Y-57487001D01*
X219948013Y-57465613D01*
X219866160Y-57452247D01*
X219755184Y-57444693D01*
X219691410Y-57442536D01*
X219446217Y-57435900D01*
X219045902Y-57435900D01*
X219045902Y-57095107D01*
X219591331Y-57102419D01*
G37*
G36*
X221749125Y-57130510D02*
G01*
X221942012Y-57173438D01*
X222117903Y-57252475D01*
X222277270Y-57367784D01*
X222293097Y-57382031D01*
X222398542Y-57478845D01*
X222278447Y-57588622D01*
X222221342Y-57639590D01*
X222175627Y-57678106D01*
X222149096Y-57697678D01*
X222146093Y-57698884D01*
X222124658Y-57687709D01*
X222083608Y-57658673D01*
X222056022Y-57637302D01*
X221948305Y-57559186D01*
X221850609Y-57508553D01*
X221749465Y-57480473D01*
X221631405Y-57470012D01*
X221597911Y-57469573D01*
X221460734Y-57477331D01*
X221349276Y-57504358D01*
X221251993Y-57555293D01*
X221157341Y-57634777D01*
X221137603Y-57654618D01*
X221058514Y-57756080D01*
X221010033Y-57869815D01*
X220988940Y-58004504D01*
X220987431Y-58059653D01*
X221000325Y-58209084D01*
X221040860Y-58334486D01*
X221111819Y-58443205D01*
X221147083Y-58481416D01*
X221267544Y-58575189D01*
X221403732Y-58634794D01*
X221550260Y-58660079D01*
X221701743Y-58650891D01*
X221852798Y-58607074D01*
X221998037Y-58528476D01*
X222028564Y-58506585D01*
X222152119Y-58413707D01*
X222259700Y-58521905D01*
X222311420Y-58576823D01*
X222349719Y-58623014D01*
X222367447Y-58651733D01*
X222367900Y-58654214D01*
X222352216Y-58682969D01*
X222309348Y-58725419D01*
X222247112Y-58775826D01*
X222173323Y-58828453D01*
X222095797Y-58877564D01*
X222022349Y-58917420D01*
X221989098Y-58932287D01*
X221917794Y-58958118D01*
X221848540Y-58975102D01*
X221768225Y-58985486D01*
X221663733Y-58991515D01*
X221637943Y-58992424D01*
X221498394Y-58993027D01*
X221385119Y-58985301D01*
X221317691Y-58973264D01*
X221138938Y-58907096D01*
X220980946Y-58810116D01*
X220847485Y-58686189D01*
X220742330Y-58539178D01*
X220669251Y-58372949D01*
X220646236Y-58285371D01*
X220631022Y-58166132D01*
X220629215Y-58032128D01*
X220639833Y-57897496D01*
X220661898Y-57776372D01*
X220686846Y-57699370D01*
X220775117Y-57536969D01*
X220890347Y-57396753D01*
X221009969Y-57297341D01*
X221152064Y-57213868D01*
X221294140Y-57159810D01*
X221450587Y-57130439D01*
X221538767Y-57123529D01*
X221749125Y-57130510D01*
G37*
G36*
X223140365Y-57079389D02*
G01*
X223273526Y-57081104D01*
X223377662Y-57084314D01*
X223458271Y-57089307D01*
X223520851Y-57096371D01*
X223570901Y-57105794D01*
X223592395Y-57111325D01*
X223714435Y-57162394D01*
X223814128Y-57238314D01*
X223884643Y-57333370D01*
X223900918Y-57369450D01*
X223925971Y-57481904D01*
X223922375Y-57601206D01*
X223892981Y-57717072D01*
X223840644Y-57819218D01*
X223768217Y-57897361D01*
X223751065Y-57909535D01*
X223711280Y-57938122D01*
X223691457Y-57957572D01*
X223690926Y-57959575D01*
X223708125Y-57972725D01*
X223752060Y-57997666D01*
X223813289Y-58029043D01*
X223814483Y-58029630D01*
X223898484Y-58078055D01*
X223958292Y-58132740D01*
X223997558Y-58201137D01*
X224019931Y-58290697D01*
X224029062Y-58408872D01*
X224029826Y-58469206D01*
X224028998Y-58563796D01*
X224025091Y-58629318D01*
X224015972Y-58676727D01*
X223999509Y-58716974D01*
X223973568Y-58761014D01*
X223972754Y-58762299D01*
X223918740Y-58828992D01*
X223847546Y-58893532D01*
X223813002Y-58918182D01*
X223754926Y-58953909D01*
X223700653Y-58982341D01*
X223644569Y-59004419D01*
X223581062Y-59021083D01*
X223504518Y-59033273D01*
X223409323Y-59041931D01*
X223289864Y-59047998D01*
X223140529Y-59052413D01*
X222994011Y-59055421D01*
X222468597Y-59065133D01*
X222468597Y-58680142D01*
X222968991Y-58680142D01*
X223144129Y-58679702D01*
X223254559Y-58675799D01*
X223336908Y-58663607D01*
X223402579Y-58641436D01*
X223402719Y-58641373D01*
X223476836Y-58595301D01*
X223518816Y-58534666D01*
X223534064Y-58450540D01*
X223534321Y-58424010D01*
X223520963Y-58341288D01*
X223481840Y-58279174D01*
X223414134Y-58236026D01*
X223315028Y-58210201D01*
X223181704Y-58200056D01*
X223149776Y-58199764D01*
X222968991Y-58199764D01*
X222968991Y-58439953D01*
X222968991Y-58680142D01*
X222468597Y-58680142D01*
X222468597Y-58439953D01*
X222468597Y-58072007D01*
X222468597Y-57637654D01*
X222468597Y-57439165D01*
X222968991Y-57439165D01*
X222968991Y-57637654D01*
X222970895Y-57740017D01*
X222976905Y-57806204D01*
X222987463Y-57839900D01*
X222994011Y-57845521D01*
X223034727Y-57850696D01*
X223100345Y-57849519D01*
X223176479Y-57843323D01*
X223248743Y-57833440D01*
X223302754Y-57821203D01*
X223316644Y-57815625D01*
X223374366Y-57770930D01*
X223402950Y-57708948D01*
X223408701Y-57648780D01*
X223397127Y-57566711D01*
X223359077Y-57506536D01*
X223291774Y-57466467D01*
X223192444Y-57444710D01*
X223084082Y-57439276D01*
X222968991Y-57439165D01*
X222468597Y-57439165D01*
X222468597Y-57078881D01*
X222972682Y-57078881D01*
X223140365Y-57079389D01*
G37*
G36*
X227467209Y-57520139D02*
G01*
X227578192Y-57528957D01*
X227641610Y-57539023D01*
X227773778Y-57581496D01*
X227887425Y-57647747D01*
X227974753Y-57732493D01*
X228010985Y-57789441D01*
X228025521Y-57819048D01*
X228036959Y-57846841D01*
X228045679Y-57877853D01*
X228052059Y-57917117D01*
X228056477Y-57969668D01*
X228059312Y-58040539D01*
X228060944Y-58134763D01*
X228061750Y-58257374D01*
X228062111Y-58413405D01*
X228062192Y-58469977D01*
X228063002Y-59050434D01*
X227832821Y-59050434D01*
X227602640Y-59050434D01*
X227596367Y-58985382D01*
X227588003Y-58936172D01*
X227571792Y-58923116D01*
X227541224Y-58942355D01*
X227534160Y-58948535D01*
X227498889Y-58973699D01*
X227442954Y-59007447D01*
X227404505Y-59028598D01*
X227343551Y-59056960D01*
X227285632Y-59072394D01*
X227214550Y-59078106D01*
X227154308Y-59078135D01*
X227075071Y-59075729D01*
X227007685Y-59071545D01*
X226965503Y-59066439D01*
X226962969Y-59065857D01*
X226867024Y-59022273D01*
X226780469Y-58946225D01*
X226713343Y-58847948D01*
X226668036Y-58723000D01*
X226655645Y-58593712D01*
X226660349Y-58563159D01*
X227136449Y-58563159D01*
X227139810Y-58623990D01*
X227170362Y-58691439D01*
X227228000Y-58736072D01*
X227305736Y-58756086D01*
X227396582Y-58749680D01*
X227493316Y-58715170D01*
X227582624Y-58670134D01*
X227588521Y-58512156D01*
X227594418Y-58354179D01*
X227458419Y-58367964D01*
X227323552Y-58391825D01*
X227224878Y-58432358D01*
X227162481Y-58489492D01*
X227136449Y-58563159D01*
X226660349Y-58563159D01*
X226674936Y-58468402D01*
X226724674Y-58355391D01*
X226799639Y-58266440D01*
X226870556Y-58214668D01*
X226952082Y-58169573D01*
X226990457Y-58153637D01*
X227049115Y-58137588D01*
X227135776Y-58119219D01*
X227238640Y-58100478D01*
X227345905Y-58083312D01*
X227445772Y-58069669D01*
X227526439Y-58061495D01*
X227557604Y-58060044D01*
X227586812Y-58045851D01*
X227588698Y-58008219D01*
X227563080Y-57953139D01*
X227560969Y-57949874D01*
X227507415Y-57902253D01*
X227424164Y-57870455D01*
X227318506Y-57854996D01*
X227197731Y-57856392D01*
X227069132Y-57875157D01*
X226953817Y-57906949D01*
X226881709Y-57929757D01*
X226824168Y-57944408D01*
X226791537Y-57948362D01*
X226788687Y-57947519D01*
X226781055Y-57924086D01*
X226775254Y-57870642D01*
X226772220Y-57797197D01*
X226771985Y-57768948D01*
X226773333Y-57683537D01*
X226778432Y-57629675D01*
X226788864Y-57598939D01*
X226806211Y-57582907D01*
X226807013Y-57582482D01*
X226870659Y-57560752D01*
X226965049Y-57542923D01*
X227081040Y-57529471D01*
X227209492Y-57520872D01*
X227341262Y-57517603D01*
X227467209Y-57520139D01*
G37*
G36*
X225750436Y-57413568D02*
G01*
X225784022Y-57554186D01*
X225820402Y-57706529D01*
X225856139Y-57856198D01*
X225887793Y-57988793D01*
X225901456Y-58046035D01*
X225925683Y-58145719D01*
X225947163Y-58230684D01*
X225964005Y-58293711D01*
X225974321Y-58327583D01*
X225976080Y-58331255D01*
X225982462Y-58314979D01*
X225995889Y-58264678D01*
X226015138Y-58185494D01*
X226038987Y-58082570D01*
X226066212Y-57961049D01*
X226089474Y-57854487D01*
X226120636Y-57710518D01*
X226151080Y-57570553D01*
X226179127Y-57442257D01*
X226203101Y-57333295D01*
X226221321Y-57251329D01*
X226228635Y-57218991D01*
X226263011Y-57068873D01*
X226512494Y-57068873D01*
X226616089Y-57069227D01*
X226686106Y-57070986D01*
X226728995Y-57075195D01*
X226751208Y-57082897D01*
X226759196Y-57095139D01*
X226759679Y-57108905D01*
X226754499Y-57134493D01*
X226740448Y-57194684D01*
X226718572Y-57285298D01*
X226689921Y-57402156D01*
X226655540Y-57541077D01*
X226616478Y-57697881D01*
X226573781Y-57868389D01*
X226528497Y-58048419D01*
X226481674Y-58233793D01*
X226434358Y-58420331D01*
X226387597Y-58603851D01*
X226342439Y-58780175D01*
X226299931Y-58945122D01*
X226289506Y-58985382D01*
X226270048Y-59060441D01*
X226000112Y-59060441D01*
X225891623Y-59060207D01*
X225816440Y-59058758D01*
X225767836Y-59054973D01*
X225739085Y-59047735D01*
X225723462Y-59035922D01*
X225714239Y-59018415D01*
X225711936Y-59012470D01*
X225701758Y-58979599D01*
X225683400Y-58914232D01*
X225658562Y-58822665D01*
X225628941Y-58711196D01*
X225596238Y-58586121D01*
X225580972Y-58527088D01*
X225534465Y-58347231D01*
X225496702Y-58202844D01*
X225466682Y-58090568D01*
X225443408Y-58007046D01*
X225425881Y-57948919D01*
X225413103Y-57912828D01*
X225404074Y-57895416D01*
X225397797Y-57893324D01*
X225394383Y-57899527D01*
X225386975Y-57926055D01*
X225371130Y-57986216D01*
X225348183Y-58074822D01*
X225319471Y-58186686D01*
X225286329Y-58316620D01*
X225250093Y-58459436D01*
X225242364Y-58489992D01*
X225100669Y-59050434D01*
X224839689Y-59054228D01*
X224740317Y-59054639D01*
X224654873Y-59053054D01*
X224591622Y-59049766D01*
X224558825Y-59045068D01*
X224556979Y-59044220D01*
X224538585Y-59016770D01*
X224522184Y-58967760D01*
X224520527Y-58960363D01*
X224512631Y-58926890D01*
X224495872Y-58858872D01*
X224471316Y-58760546D01*
X224440032Y-58636146D01*
X224403086Y-58489907D01*
X224361546Y-58326066D01*
X224316479Y-58148858D01*
X224277823Y-57997257D01*
X224231267Y-57814451D01*
X224187906Y-57643346D01*
X224148724Y-57487888D01*
X224114704Y-57352019D01*
X224086832Y-57239682D01*
X224066089Y-57154820D01*
X224053462Y-57101378D01*
X224049842Y-57083530D01*
X224069312Y-57074196D01*
X224125621Y-57066953D01*
X224215617Y-57062087D01*
X224309474Y-57060098D01*
X224415495Y-57059226D01*
X224488173Y-57059971D01*
X224534190Y-57063398D01*
X224560232Y-57070570D01*
X224572982Y-57082553D01*
X224579123Y-57100410D01*
X224579767Y-57103139D01*
X224586362Y-57133843D01*
X224599844Y-57198473D01*
X224619121Y-57291727D01*
X224643102Y-57408302D01*
X224670693Y-57542898D01*
X224700803Y-57690211D01*
X224710512Y-57737804D01*
X224748187Y-57921361D01*
X224778910Y-58068173D01*
X224803295Y-58180803D01*
X224821953Y-58261817D01*
X224835495Y-58313781D01*
X224844534Y-58339258D01*
X224849682Y-58340813D01*
X224851340Y-58328198D01*
X224856291Y-58304972D01*
X224869920Y-58247723D01*
X224891050Y-58161224D01*
X224918501Y-58050252D01*
X224951095Y-57919582D01*
X224987654Y-57773989D01*
X225009004Y-57689362D01*
X225165801Y-57068873D01*
X225415616Y-57063293D01*
X225665431Y-57057712D01*
X225750436Y-57413568D01*
G37*
G36*
X228464797Y-57560080D02*
G01*
X228510220Y-57566354D01*
X228533137Y-57576838D01*
X228537060Y-57581866D01*
X228547593Y-57608418D01*
X228568567Y-57666923D01*
X228597884Y-57751317D01*
X228633443Y-57855538D01*
X228673144Y-57973522D01*
X228685188Y-58009614D01*
X228725645Y-58130356D01*
X228762504Y-58239001D01*
X228793680Y-58329513D01*
X228817089Y-58395857D01*
X228830645Y-58431995D01*
X228832451Y-58435993D01*
X228843561Y-58429722D01*
X228862291Y-58390490D01*
X228886198Y-58324081D01*
X228904310Y-58265859D01*
X228934737Y-58165209D01*
X228972667Y-58043243D01*
X229012878Y-57916599D01*
X229044374Y-57819464D01*
X229126504Y-57569267D01*
X229372749Y-57563628D01*
X229475375Y-57561659D01*
X229544095Y-57561849D01*
X229585013Y-57564989D01*
X229604232Y-57571867D01*
X229607855Y-57583274D01*
X229604672Y-57593652D01*
X229582925Y-57649622D01*
X229548319Y-57741145D01*
X229501630Y-57866138D01*
X229443635Y-58022514D01*
X229375109Y-58208191D01*
X229322983Y-58349882D01*
X229269459Y-58495323D01*
X229212473Y-58649813D01*
X229156271Y-58801862D01*
X229105101Y-58939983D01*
X229063208Y-59052687D01*
X229061111Y-59058312D01*
X229023990Y-59158704D01*
X228992425Y-59245635D01*
X228968838Y-59312313D01*
X228955649Y-59351944D01*
X228953703Y-59359677D01*
X228972625Y-59365832D01*
X229025480Y-59375423D01*
X229106400Y-59387583D01*
X229209518Y-59401448D01*
X229328967Y-59416150D01*
X229364026Y-59420240D01*
X229513557Y-59438200D01*
X229626064Y-59453601D01*
X229704421Y-59467166D01*
X229751503Y-59479615D01*
X229770182Y-59491671D01*
X229763332Y-59504056D01*
X229740811Y-59514915D01*
X229711986Y-59517220D01*
X229651129Y-59516637D01*
X229566098Y-59513645D01*
X229464749Y-59508724D01*
X229354940Y-59502354D01*
X229244529Y-59495016D01*
X229141372Y-59487190D01*
X229053327Y-59479355D01*
X228988251Y-59471992D01*
X228959771Y-59467192D01*
X228927232Y-59467610D01*
X228902818Y-59493044D01*
X228885733Y-59528909D01*
X228855667Y-59600867D01*
X228604449Y-59600867D01*
X228509460Y-59600072D01*
X228430929Y-59597900D01*
X228376421Y-59594673D01*
X228353500Y-59590710D01*
X228353231Y-59590216D01*
X228360261Y-59566587D01*
X228377725Y-59521139D01*
X228383517Y-59507080D01*
X228400640Y-59458944D01*
X228405828Y-59428725D01*
X228404596Y-59425387D01*
X228380887Y-59419779D01*
X228322134Y-59412291D01*
X228233259Y-59403291D01*
X228119186Y-59393150D01*
X227984837Y-59382236D01*
X227835136Y-59370917D01*
X227675007Y-59359564D01*
X227509372Y-59348546D01*
X227343155Y-59338231D01*
X227181279Y-59328988D01*
X227028667Y-59321187D01*
X226992159Y-59319489D01*
X226657327Y-59309033D01*
X226288496Y-59306192D01*
X225890900Y-59310613D01*
X225469769Y-59321945D01*
X225030338Y-59339836D01*
X224577837Y-59363932D01*
X224117500Y-59393883D01*
X223654559Y-59429335D01*
X223194246Y-59469937D01*
X222741794Y-59515337D01*
X222302435Y-59565183D01*
X221881400Y-59619121D01*
X221483924Y-59676801D01*
X221337706Y-59700026D01*
X221276709Y-59709778D01*
X221185907Y-59724051D01*
X221075070Y-59741320D01*
X220953967Y-59760061D01*
X220877344Y-59771854D01*
X220730644Y-59794944D01*
X220562642Y-59822345D01*
X220378963Y-59853059D01*
X220185229Y-59886091D01*
X219987063Y-59920445D01*
X219790088Y-59955124D01*
X219599927Y-59989132D01*
X219422203Y-60021473D01*
X219262540Y-60051150D01*
X219126559Y-60077169D01*
X219019885Y-60098531D01*
X218958583Y-60111793D01*
X218841240Y-60138793D01*
X218854288Y-60074991D01*
X218865909Y-60011561D01*
X218877464Y-59938851D01*
X218879000Y-59928136D01*
X218882250Y-59899159D01*
X218886083Y-59877292D01*
X218895617Y-59860528D01*
X218915971Y-59846861D01*
X218952261Y-59834284D01*
X219009604Y-59820788D01*
X219093120Y-59804367D01*
X219207924Y-59783014D01*
X219286091Y-59768471D01*
X219686968Y-59697423D01*
X220120702Y-59627785D01*
X220580125Y-59560436D01*
X221058067Y-59496254D01*
X221547357Y-59436119D01*
X222040827Y-59380909D01*
X222531305Y-59331504D01*
X223011623Y-59288782D01*
X223474611Y-59253623D01*
X223499409Y-59251927D01*
X223787549Y-59232984D01*
X224047679Y-59217441D01*
X224287897Y-59205075D01*
X224516297Y-59195665D01*
X224740974Y-59188991D01*
X224970026Y-59184829D01*
X225211548Y-59182959D01*
X225473635Y-59183160D01*
X225764383Y-59185209D01*
X225890784Y-59186499D01*
X226161514Y-59189743D01*
X226398616Y-59193332D01*
X226608496Y-59197552D01*
X226797558Y-59202694D01*
X226972205Y-59209045D01*
X227138844Y-59216893D01*
X227303877Y-59226527D01*
X227473710Y-59238236D01*
X227654747Y-59252307D01*
X227853393Y-59269028D01*
X227989828Y-59280997D01*
X228119643Y-59292055D01*
X228236010Y-59301090D01*
X228333040Y-59307717D01*
X228404842Y-59311551D01*
X228445527Y-59312206D01*
X228452290Y-59311269D01*
X228465907Y-59289187D01*
X228488321Y-59239111D01*
X228515211Y-59170868D01*
X228521550Y-59153705D01*
X228575584Y-59005551D01*
X228305607Y-58287751D01*
X228245574Y-58127749D01*
X228190397Y-57979939D01*
X228141578Y-57848402D01*
X228100619Y-57737217D01*
X228069022Y-57650465D01*
X228048288Y-57592226D01*
X228039920Y-57566581D01*
X228039851Y-57565730D01*
X228060281Y-57563816D01*
X228112804Y-57561718D01*
X228189484Y-57559689D01*
X228282384Y-57557982D01*
X228283171Y-57557970D01*
X228391052Y-57557468D01*
X228464797Y-57560080D01*
G37*
D13*
%TO.C,R2*%
X163988862Y-106582906D02*
X165273800Y-106582906D01*
X163988862Y-108417094D02*
X163988862Y-106582906D01*
X165273800Y-108417094D02*
X163988862Y-108417094D01*
X166226200Y-108417094D02*
X167511138Y-108417094D01*
X167511138Y-106582906D02*
X166226200Y-106582906D01*
X167511138Y-108417094D02*
X167511138Y-106582906D01*
D14*
%TO.C,U7*%
X200850000Y-134430000D02*
X229249999Y-134430000D01*
X200850001Y-86510000D02*
X200850000Y-134430000D01*
X206080120Y-80596880D02*
X224063320Y-80596880D01*
X206080120Y-86489680D02*
X206080120Y-80596880D01*
X224063320Y-80596880D02*
X224063320Y-86489680D01*
X229249999Y-134430000D02*
X229250000Y-86510000D01*
X229250000Y-86510000D02*
X200850001Y-86510000D01*
D13*
%TO.C,R1*%
X163988862Y-113582906D02*
X165273800Y-113582906D01*
X163988862Y-115417094D02*
X163988862Y-113582906D01*
X165273800Y-115417094D02*
X163988862Y-115417094D01*
X166226200Y-115417094D02*
X167511138Y-115417094D01*
X167511138Y-113582906D02*
X166226200Y-113582906D01*
X167511138Y-115417094D02*
X167511138Y-113582906D01*
D10*
%TO.C,U6*%
X164937500Y-127675000D02*
X164937500Y-135825000D01*
X171137500Y-123100000D02*
X171137500Y-127675000D01*
X171137500Y-127675000D02*
X164937500Y-127675000D01*
X177712500Y-123100000D02*
X171137500Y-123100000D01*
X177712500Y-123100000D02*
X177712500Y-135850000D01*
D13*
%TO.C,U5*%
X171023825Y-110323825D02*
X171023825Y-111776251D01*
X171023825Y-111776251D02*
X172055448Y-111776251D01*
X172094640Y-110323825D02*
X173005436Y-110323825D01*
X174076251Y-110323825D02*
X174076251Y-111776251D01*
X174076251Y-111776251D02*
X173044628Y-111776251D01*
D15*
X174030048Y-109850038D02*
G75*
G02*
X173970054Y-109850038I-29997J0D01*
G01*
X173970054Y-109850038D02*
G75*
G02*
X174030048Y-109850038I29997J0D01*
G01*
D13*
%TO.C,U4*%
X164223787Y-110323825D02*
X164223787Y-111776251D01*
X164223787Y-111776251D02*
X165255410Y-111776251D01*
X165294602Y-110323825D02*
X166205398Y-110323825D01*
X167276213Y-110323825D02*
X167276213Y-111776251D01*
X167276213Y-111776251D02*
X166244590Y-111776251D01*
D15*
X167230010Y-109850038D02*
G75*
G02*
X167170016Y-109850038I-29997J0D01*
G01*
X167170016Y-109850038D02*
G75*
G02*
X167230010Y-109850038I29997J0D01*
G01*
D13*
%TO.C,R3*%
X170738862Y-106582906D02*
X170738862Y-108417094D01*
X170738862Y-108417094D02*
X172023800Y-108417094D01*
X172023800Y-106582906D02*
X170738862Y-106582906D01*
X172976200Y-106582906D02*
X174261138Y-106582906D01*
X174261138Y-106582906D02*
X174261138Y-108417094D01*
X174261138Y-108417094D02*
X172976200Y-108417094D01*
D10*
%TO.C,U1*%
X165975000Y-55750000D02*
X159675000Y-55750000D01*
D16*
%TO.C,U2*%
X164246939Y-61855017D02*
X165868783Y-61855017D01*
X164246939Y-63872873D02*
X164246939Y-61855017D01*
X164246939Y-67254001D02*
X164246939Y-66135154D01*
X173749987Y-61879020D02*
X172131115Y-61879020D01*
X173749987Y-63872873D02*
X173749987Y-61879020D01*
X173749987Y-67254001D02*
X164246939Y-67254001D01*
X173749987Y-67254001D02*
X173749987Y-66135154D01*
X172632969Y-61379096D02*
G75*
G02*
X172366777Y-61379096I-133096J0D01*
G01*
X172366777Y-61379096D02*
G75*
G02*
X172632969Y-61379096I133096J0D01*
G01*
D15*
X173780061Y-61518974D02*
G75*
G02*
X173720067Y-61518974I-29997J0D01*
G01*
X173720067Y-61518974D02*
G75*
G02*
X173780061Y-61518974I29997J0D01*
G01*
D13*
%TO.C,R4*%
X170738862Y-113582906D02*
X170738862Y-115417094D01*
X170738862Y-115417094D02*
X172023800Y-115417094D01*
X172023800Y-113582906D02*
X170738862Y-113582906D01*
X172976200Y-113582906D02*
X174261138Y-113582906D01*
X174261138Y-113582906D02*
X174261138Y-115417094D01*
X174261138Y-115417094D02*
X172976200Y-115417094D01*
D16*
%TO.C,U3*%
X164200038Y-90999936D02*
X164200038Y-92118783D01*
X164200038Y-90999936D02*
X173703086Y-90999936D01*
X164200038Y-94381064D02*
X164200038Y-96374917D01*
X164200038Y-96374917D02*
X165818910Y-96374917D01*
X173703086Y-90999936D02*
X173703086Y-92118783D01*
X173703086Y-94381064D02*
X173703086Y-96398920D01*
X173703086Y-96398920D02*
X172081242Y-96398920D01*
D15*
X164229958Y-96734963D02*
G75*
G02*
X164169964Y-96734963I-29997J0D01*
G01*
X164169964Y-96734963D02*
G75*
G02*
X164229958Y-96734963I29997J0D01*
G01*
D16*
X165583248Y-96874841D02*
G75*
G02*
X165317056Y-96874841I-133096J0D01*
G01*
X165317056Y-96874841D02*
G75*
G02*
X165583248Y-96874841I133096J0D01*
G01*
%TO.C,U8*%
X187884557Y-121483947D02*
X192447905Y-121483947D01*
X187884557Y-122491974D02*
X187884557Y-121483947D01*
X187884557Y-126491974D02*
X187884557Y-124075946D01*
X187884557Y-129491974D02*
X187884557Y-128075946D01*
X187884557Y-133583947D02*
X187884557Y-131075946D01*
X188440437Y-135583947D02*
X188440437Y-133583947D01*
X188440437Y-135583947D02*
X193440437Y-135583947D01*
X193400001Y-133599975D02*
X187884557Y-133599949D01*
X193440437Y-135583947D02*
X193440437Y-133599975D01*
X193671654Y-121483947D02*
X193788520Y-121483947D01*
X194032970Y-121483947D02*
X194115444Y-121483947D01*
X194115444Y-121483947D02*
X194115444Y-133599975D01*
X194115444Y-133599975D02*
X193240514Y-133599975D01*
D15*
X194020422Y-121483922D02*
G75*
G02*
X193960428Y-121483922I-29997J0D01*
G01*
X193960428Y-121483922D02*
G75*
G02*
X194020422Y-121483922I29997J0D01*
G01*
%TD*%
%LPC*%
D17*
%TO.C,R2*%
X164750000Y-107500000D03*
X166750000Y-107500000D03*
%TD*%
D18*
%TO.C,U7*%
X202350000Y-87610000D03*
D19*
X202350000Y-90150000D03*
X202350000Y-92690000D03*
X202350000Y-95230000D03*
X202350000Y-97770000D03*
X202350000Y-100310000D03*
X202350000Y-102850000D03*
X202350000Y-105390000D03*
X202350000Y-107930000D03*
X202350000Y-110470000D03*
X202350000Y-113010000D03*
X202350000Y-115550000D03*
X202350000Y-118090000D03*
X202350000Y-120630000D03*
X202350000Y-123170000D03*
X202350000Y-125710000D03*
X202350000Y-128250000D03*
X202350000Y-130790000D03*
X202350000Y-133330000D03*
X227746320Y-133327280D03*
X227746320Y-130787280D03*
X227750000Y-128250000D03*
X227750000Y-125710000D03*
X227750000Y-123170000D03*
X227750000Y-120630000D03*
X227750000Y-118090000D03*
X227750000Y-115550000D03*
X227750000Y-113010000D03*
X227750000Y-110470000D03*
X227750000Y-107930000D03*
X227750000Y-105390000D03*
X227750000Y-102850000D03*
X227750000Y-100310000D03*
X227750000Y-97770000D03*
X227750000Y-95230000D03*
X227750000Y-92690000D03*
X227750000Y-90150000D03*
X227750000Y-87610000D03*
%TD*%
D17*
%TO.C,R1*%
X164750000Y-114500000D03*
X166750000Y-114500000D03*
%TD*%
D20*
%TO.C,U6*%
X179009706Y-124225000D03*
D21*
X179084706Y-128087500D03*
D22*
X163772206Y-133875000D03*
D23*
X179234706Y-131262500D03*
D24*
X170622206Y-129000000D03*
X169722206Y-129000000D03*
X168822206Y-129000000D03*
X167922206Y-129000000D03*
X167022206Y-129000000D03*
X166122206Y-129000000D03*
X170197206Y-126675000D03*
X169297206Y-126675000D03*
X168397206Y-126675000D03*
X167497206Y-126675000D03*
X166597206Y-126675000D03*
X165697206Y-126675000D03*
%TD*%
D25*
%TO.C,U5*%
X173500000Y-110050038D03*
X171600076Y-110050038D03*
X172550038Y-112050038D03*
%TD*%
%TO.C,U4*%
X166699962Y-110050038D03*
X164800038Y-110050038D03*
X165750000Y-112050038D03*
%TD*%
D17*
%TO.C,R3*%
X173500000Y-107500000D03*
X171500000Y-107500000D03*
%TD*%
D26*
%TO.C,U1*%
X160650000Y-53000000D03*
X161570000Y-53000000D03*
X162490000Y-53000000D03*
X163410000Y-53000000D03*
X164330000Y-53000000D03*
X165250000Y-53000000D03*
%TD*%
D27*
%TO.C,U2*%
X171750064Y-61754001D03*
X171249936Y-61754001D03*
X170750064Y-61754001D03*
X170249936Y-61754001D03*
X169750064Y-61754001D03*
X169249936Y-61754001D03*
X168750064Y-61754001D03*
X168249936Y-61754001D03*
X167750064Y-61754001D03*
X167249936Y-61754001D03*
X166750064Y-61754001D03*
X166249936Y-61754001D03*
D28*
X164700025Y-65003937D03*
X173299975Y-65003937D03*
%TD*%
D17*
%TO.C,R4*%
X173500000Y-114500000D03*
X171500000Y-114500000D03*
%TD*%
D27*
%TO.C,U3*%
X166199961Y-96499936D03*
X166700089Y-96499936D03*
X167199961Y-96499936D03*
X167700089Y-96499936D03*
X168199961Y-96499936D03*
X168700089Y-96499936D03*
X169199961Y-96499936D03*
X169700089Y-96499936D03*
X170199961Y-96499936D03*
X170700089Y-96499936D03*
X171199961Y-96499936D03*
X171700089Y-96499936D03*
D28*
X173250000Y-93250000D03*
X164650050Y-93250000D03*
%TD*%
D29*
%TO.C,U8*%
X190940412Y-132000000D03*
X190940412Y-125000000D03*
D30*
X193240387Y-122299975D03*
X188640437Y-130400051D03*
X188640437Y-127400051D03*
X188640437Y-123400051D03*
%TD*%
%LPD*%
M02*
