%TF.GenerationSoftware,KiCad,Pcbnew,8.0.4*%
%TF.CreationDate,2025-06-05T19:44:26+01:00*%
%TF.ProjectId,psptvout,70737074-766f-4757-942e-6b696361645f,rev?*%
%TF.SameCoordinates,Original*%
%TF.FileFunction,Profile,NP*%
%FSLAX46Y46*%
G04 Gerber Fmt 4.6, Leading zero omitted, Abs format (unit mm)*
G04 Created by KiCad (PCBNEW 8.0.4) date 2025-06-05 19:44:26*
%MOMM*%
%LPD*%
G01*
G04 APERTURE LIST*
%TA.AperFunction,Profile*%
%ADD10C,0.050000*%
%TD*%
G04 APERTURE END LIST*
D10*
X164675000Y-135837500D02*
X160200000Y-135850000D01*
X160200000Y-72400000D02*
X160200000Y-87000000D01*
X178037500Y-135837500D02*
X210800000Y-135750000D01*
X191000000Y-67000000D02*
X191000000Y-87000000D01*
X188970637Y-72879364D02*
G75*
G02*
X182529363Y-72879364I-3220637J0D01*
G01*
X182529363Y-72879364D02*
G75*
G02*
X188970637Y-72879364I3220637J0D01*
G01*
X166225000Y-67000000D02*
X191000000Y-67000000D01*
X160200000Y-135850000D02*
X160200000Y-134150000D01*
X203570637Y-106079364D02*
G75*
G02*
X197129363Y-106079364I-3220637J0D01*
G01*
X197129363Y-106079364D02*
G75*
G02*
X203570637Y-106079364I3220637J0D01*
G01*
X210800000Y-135750000D02*
X210850000Y-95400000D01*
X160200000Y-67550000D02*
X160200000Y-72400000D01*
X191000000Y-95400000D02*
X191000000Y-87000000D01*
X193220637Y-127500000D02*
G75*
G02*
X186779363Y-127500000I-3220637J0D01*
G01*
X186779363Y-127500000D02*
G75*
G02*
X193220637Y-127500000I3220637J0D01*
G01*
X160200000Y-87000000D02*
X160200000Y-134150000D01*
X166225500Y-66387500D02*
X166225000Y-67000000D01*
X210850000Y-95400000D02*
X191000000Y-95400000D01*
X170720637Y-109650000D02*
G75*
G02*
X164279363Y-109650000I-3220637J0D01*
G01*
X164279363Y-109650000D02*
G75*
G02*
X170720637Y-109650000I3220637J0D01*
G01*
X170570637Y-86429364D02*
G75*
G02*
X164129363Y-86429364I-3220637J0D01*
G01*
X164129363Y-86429364D02*
G75*
G02*
X170570637Y-86429364I3220637J0D01*
G01*
X159825500Y-66387500D02*
X160200000Y-67550000D01*
%TO.C,U6*%
X167187500Y-135837500D02*
X164675000Y-135837500D01*
X167188438Y-134735593D02*
X167187500Y-135837500D01*
X168987500Y-135837500D02*
X168987500Y-134712500D01*
X168987500Y-135837500D02*
X178037500Y-135837500D01*
X167188438Y-134735593D02*
G75*
G02*
X168987500Y-134712500I899062J48093D01*
G01*
X173181913Y-124987500D02*
G75*
G02*
X171562499Y-124987500I-809707J0D01*
G01*
X171562499Y-124987500D02*
G75*
G02*
X173181913Y-124987500I809707J0D01*
G01*
%TO.C,U1*%
X159825500Y-61887500D02*
X159825500Y-66387500D01*
X166225500Y-61887500D02*
X159825500Y-61887500D01*
X166225500Y-66387500D02*
X166225500Y-61887500D01*
%TD*%
M02*
