%TF.GenerationSoftware,KiCad,Pcbnew,8.0.4*%
%TF.CreationDate,2025-06-05T19:44:25+01:00*%
%TF.ProjectId,psptvout,70737074-766f-4757-942e-6b696361645f,rev?*%
%TF.SameCoordinates,Original*%
%TF.FileFunction,Legend,Bot*%
%TF.FilePolarity,Positive*%
%FSLAX46Y46*%
G04 Gerber Fmt 4.6, Leading zero omitted, Abs format (unit mm)*
G04 Created by KiCad (PCBNEW 8.0.4) date 2025-06-05 19:44:25*
%MOMM*%
%LPD*%
G01*
G04 APERTURE LIST*
G04 Aperture macros list*
%AMRoundRect*
0 Rectangle with rounded corners*
0 $1 Rounding radius*
0 $2 $3 $4 $5 $6 $7 $8 $9 X,Y pos of 4 corners*
0 Add a 4 corners polygon primitive as box body*
4,1,4,$2,$3,$4,$5,$6,$7,$8,$9,$2,$3,0*
0 Add four circle primitives for the rounded corners*
1,1,$1+$1,$2,$3*
1,1,$1+$1,$4,$5*
1,1,$1+$1,$6,$7*
1,1,$1+$1,$8,$9*
0 Add four rect primitives between the rounded corners*
20,1,$1+$1,$2,$3,$4,$5,0*
20,1,$1+$1,$4,$5,$6,$7,0*
20,1,$1+$1,$6,$7,$8,$9,0*
20,1,$1+$1,$8,$9,$2,$3,0*%
G04 Aperture macros list end*
%ADD10C,0.100000*%
%ADD11R,1.700000X1.700000*%
%ADD12O,1.700000X1.700000*%
%ADD13RoundRect,0.117500X0.117500X1.332500X-0.117500X1.332500X-0.117500X-1.332500X0.117500X-1.332500X0*%
G04 APERTURE END LIST*
D10*
X179512782Y-69098609D02*
X179369925Y-69146228D01*
X179369925Y-69146228D02*
X179322306Y-69193847D01*
X179322306Y-69193847D02*
X179274687Y-69289085D01*
X179274687Y-69289085D02*
X179274687Y-69431942D01*
X179274687Y-69431942D02*
X179322306Y-69527180D01*
X179322306Y-69527180D02*
X179369925Y-69574800D01*
X179369925Y-69574800D02*
X179465163Y-69622419D01*
X179465163Y-69622419D02*
X179846115Y-69622419D01*
X179846115Y-69622419D02*
X179846115Y-68622419D01*
X179846115Y-68622419D02*
X179512782Y-68622419D01*
X179512782Y-68622419D02*
X179417544Y-68670038D01*
X179417544Y-68670038D02*
X179369925Y-68717657D01*
X179369925Y-68717657D02*
X179322306Y-68812895D01*
X179322306Y-68812895D02*
X179322306Y-68908133D01*
X179322306Y-68908133D02*
X179369925Y-69003371D01*
X179369925Y-69003371D02*
X179417544Y-69050990D01*
X179417544Y-69050990D02*
X179512782Y-69098609D01*
X179512782Y-69098609D02*
X179846115Y-69098609D01*
X178703258Y-69622419D02*
X178798496Y-69574800D01*
X178798496Y-69574800D02*
X178846115Y-69527180D01*
X178846115Y-69527180D02*
X178893734Y-69431942D01*
X178893734Y-69431942D02*
X178893734Y-69146228D01*
X178893734Y-69146228D02*
X178846115Y-69050990D01*
X178846115Y-69050990D02*
X178798496Y-69003371D01*
X178798496Y-69003371D02*
X178703258Y-68955752D01*
X178703258Y-68955752D02*
X178560401Y-68955752D01*
X178560401Y-68955752D02*
X178465163Y-69003371D01*
X178465163Y-69003371D02*
X178417544Y-69050990D01*
X178417544Y-69050990D02*
X178369925Y-69146228D01*
X178369925Y-69146228D02*
X178369925Y-69431942D01*
X178369925Y-69431942D02*
X178417544Y-69527180D01*
X178417544Y-69527180D02*
X178465163Y-69574800D01*
X178465163Y-69574800D02*
X178560401Y-69622419D01*
X178560401Y-69622419D02*
X178703258Y-69622419D01*
X178084210Y-68955752D02*
X177703258Y-68955752D01*
X177941353Y-68622419D02*
X177941353Y-69479561D01*
X177941353Y-69479561D02*
X177893734Y-69574800D01*
X177893734Y-69574800D02*
X177798496Y-69622419D01*
X177798496Y-69622419D02*
X177703258Y-69622419D01*
X177512781Y-68955752D02*
X177131829Y-68955752D01*
X177369924Y-68622419D02*
X177369924Y-69479561D01*
X177369924Y-69479561D02*
X177322305Y-69574800D01*
X177322305Y-69574800D02*
X177227067Y-69622419D01*
X177227067Y-69622419D02*
X177131829Y-69622419D01*
X176655638Y-69622419D02*
X176750876Y-69574800D01*
X176750876Y-69574800D02*
X176798495Y-69527180D01*
X176798495Y-69527180D02*
X176846114Y-69431942D01*
X176846114Y-69431942D02*
X176846114Y-69146228D01*
X176846114Y-69146228D02*
X176798495Y-69050990D01*
X176798495Y-69050990D02*
X176750876Y-69003371D01*
X176750876Y-69003371D02*
X176655638Y-68955752D01*
X176655638Y-68955752D02*
X176512781Y-68955752D01*
X176512781Y-68955752D02*
X176417543Y-69003371D01*
X176417543Y-69003371D02*
X176369924Y-69050990D01*
X176369924Y-69050990D02*
X176322305Y-69146228D01*
X176322305Y-69146228D02*
X176322305Y-69431942D01*
X176322305Y-69431942D02*
X176369924Y-69527180D01*
X176369924Y-69527180D02*
X176417543Y-69574800D01*
X176417543Y-69574800D02*
X176512781Y-69622419D01*
X176512781Y-69622419D02*
X176655638Y-69622419D01*
X175893733Y-69622419D02*
X175893733Y-68955752D01*
X175893733Y-69050990D02*
X175846114Y-69003371D01*
X175846114Y-69003371D02*
X175750876Y-68955752D01*
X175750876Y-68955752D02*
X175608019Y-68955752D01*
X175608019Y-68955752D02*
X175512781Y-69003371D01*
X175512781Y-69003371D02*
X175465162Y-69098609D01*
X175465162Y-69098609D02*
X175465162Y-69622419D01*
X175465162Y-69098609D02*
X175417543Y-69003371D01*
X175417543Y-69003371D02*
X175322305Y-68955752D01*
X175322305Y-68955752D02*
X175179448Y-68955752D01*
X175179448Y-68955752D02*
X175084209Y-69003371D01*
X175084209Y-69003371D02*
X175036590Y-69098609D01*
X175036590Y-69098609D02*
X175036590Y-69622419D01*
X173512781Y-70003371D02*
X173560400Y-69955752D01*
X173560400Y-69955752D02*
X173655638Y-69812895D01*
X173655638Y-69812895D02*
X173703257Y-69717657D01*
X173703257Y-69717657D02*
X173750876Y-69574800D01*
X173750876Y-69574800D02*
X173798495Y-69336704D01*
X173798495Y-69336704D02*
X173798495Y-69146228D01*
X173798495Y-69146228D02*
X173750876Y-68908133D01*
X173750876Y-68908133D02*
X173703257Y-68765276D01*
X173703257Y-68765276D02*
X173655638Y-68670038D01*
X173655638Y-68670038D02*
X173560400Y-68527180D01*
X173560400Y-68527180D02*
X173512781Y-68479561D01*
X173131828Y-68622419D02*
X173131828Y-69431942D01*
X173131828Y-69431942D02*
X173084209Y-69527180D01*
X173084209Y-69527180D02*
X173036590Y-69574800D01*
X173036590Y-69574800D02*
X172941352Y-69622419D01*
X172941352Y-69622419D02*
X172750876Y-69622419D01*
X172750876Y-69622419D02*
X172655638Y-69574800D01*
X172655638Y-69574800D02*
X172608019Y-69527180D01*
X172608019Y-69527180D02*
X172560400Y-69431942D01*
X172560400Y-69431942D02*
X172560400Y-68622419D01*
X172084209Y-69622419D02*
X172084209Y-68622419D01*
X172084209Y-68622419D02*
X171750876Y-69336704D01*
X171750876Y-69336704D02*
X171417543Y-68622419D01*
X171417543Y-68622419D02*
X171417543Y-69622419D01*
X170941352Y-69622419D02*
X170941352Y-68622419D01*
X170941352Y-68622419D02*
X170703257Y-68622419D01*
X170703257Y-68622419D02*
X170560400Y-68670038D01*
X170560400Y-68670038D02*
X170465162Y-68765276D01*
X170465162Y-68765276D02*
X170417543Y-68860514D01*
X170417543Y-68860514D02*
X170369924Y-69050990D01*
X170369924Y-69050990D02*
X170369924Y-69193847D01*
X170369924Y-69193847D02*
X170417543Y-69384323D01*
X170417543Y-69384323D02*
X170465162Y-69479561D01*
X170465162Y-69479561D02*
X170560400Y-69574800D01*
X170560400Y-69574800D02*
X170703257Y-69622419D01*
X170703257Y-69622419D02*
X170941352Y-69622419D01*
X170036590Y-70003371D02*
X169988971Y-69955752D01*
X169988971Y-69955752D02*
X169893733Y-69812895D01*
X169893733Y-69812895D02*
X169846114Y-69717657D01*
X169846114Y-69717657D02*
X169798495Y-69574800D01*
X169798495Y-69574800D02*
X169750876Y-69336704D01*
X169750876Y-69336704D02*
X169750876Y-69146228D01*
X169750876Y-69146228D02*
X169798495Y-68908133D01*
X169798495Y-68908133D02*
X169846114Y-68765276D01*
X169846114Y-68765276D02*
X169893733Y-68670038D01*
X169893733Y-68670038D02*
X169988971Y-68527180D01*
X169988971Y-68527180D02*
X170036590Y-68479561D01*
%LPC*%
D11*
%TO.C,J1*%
X198510000Y-131400000D03*
D12*
X201050000Y-131400000D03*
X203590000Y-131400000D03*
X206130000Y-131400000D03*
%TD*%
D13*
%TO.C,U1*%
X160800500Y-63687500D03*
X161720500Y-63687500D03*
X162640500Y-63687500D03*
X163560500Y-63687500D03*
X164480500Y-63687500D03*
X165400500Y-63687500D03*
%TD*%
D11*
%TO.C,J2*%
X204000000Y-98200000D03*
D12*
X201460000Y-98200000D03*
X198920000Y-98200000D03*
X196380000Y-98200000D03*
%TD*%
%LPD*%
M02*
