%TF.GenerationSoftware,KiCad,Pcbnew,8.0.4*%
%TF.CreationDate,2025-06-05T19:44:25+01:00*%
%TF.ProjectId,psptvout,70737074-766f-4757-942e-6b696361645f,rev?*%
%TF.SameCoordinates,Original*%
%TF.FileFunction,Copper,L2,Bot*%
%TF.FilePolarity,Positive*%
%FSLAX46Y46*%
G04 Gerber Fmt 4.6, Leading zero omitted, Abs format (unit mm)*
G04 Created by KiCad (PCBNEW 8.0.4) date 2025-06-05 19:44:25*
%MOMM*%
%LPD*%
G01*
G04 APERTURE LIST*
G04 Aperture macros list*
%AMRoundRect*
0 Rectangle with rounded corners*
0 $1 Rounding radius*
0 $2 $3 $4 $5 $6 $7 $8 $9 X,Y pos of 4 corners*
0 Add a 4 corners polygon primitive as box body*
4,1,4,$2,$3,$4,$5,$6,$7,$8,$9,$2,$3,0*
0 Add four circle primitives for the rounded corners*
1,1,$1+$1,$2,$3*
1,1,$1+$1,$4,$5*
1,1,$1+$1,$6,$7*
1,1,$1+$1,$8,$9*
0 Add four rect primitives between the rounded corners*
20,1,$1+$1,$2,$3,$4,$5,0*
20,1,$1+$1,$4,$5,$6,$7,0*
20,1,$1+$1,$6,$7,$8,$9,0*
20,1,$1+$1,$8,$9,$2,$3,0*%
G04 Aperture macros list end*
%TA.AperFunction,ComponentPad*%
%ADD10R,1.700000X1.700000*%
%TD*%
%TA.AperFunction,ComponentPad*%
%ADD11O,1.700000X1.700000*%
%TD*%
%TA.AperFunction,SMDPad,CuDef*%
%ADD12RoundRect,0.117500X0.117500X1.332500X-0.117500X1.332500X-0.117500X-1.332500X0.117500X-1.332500X0*%
%TD*%
%TA.AperFunction,ViaPad*%
%ADD13C,0.600000*%
%TD*%
%TA.AperFunction,Conductor*%
%ADD14C,0.200000*%
%TD*%
G04 APERTURE END LIST*
D10*
%TO.P,J1,1,Pin_1*%
%TO.N,/audio1*%
X198510000Y-131400000D03*
D11*
%TO.P,J1,2,Pin_2*%
%TO.N,/audio2*%
X201050000Y-131400000D03*
%TO.P,J1,3,Pin_3*%
%TO.N,/audio4*%
X203590000Y-131400000D03*
%TO.P,J1,4,Pin_4*%
%TO.N,/audio3*%
X206130000Y-131400000D03*
%TD*%
D12*
%TO.P,U1,7,UART4_RX*%
%TO.N,/PSPRX*%
X160800500Y-63687500D03*
%TO.P,U1,8,UART4_VCC*%
%TO.N,/PSP_UART_VCC*%
X161720500Y-63687500D03*
%TO.P,U1,9,VIDEO_DETECT*%
%TO.N,/PSP_VIDEO_DETECT*%
X162640500Y-63687500D03*
%TO.P,U1,10,WAKE*%
%TO.N,/PSP_WAKE*%
X163560500Y-63687500D03*
%TO.P,U1,11,BLUE/LUME_(Pb)*%
%TO.N,/PSP_BLUE_LUME_PB*%
X164480500Y-63687500D03*
%TO.P,U1,12,VIDEO_GND*%
%TO.N,/GND*%
X165400500Y-63687500D03*
%TD*%
D10*
%TO.P,J2,1,Pin_1*%
%TO.N,/OUT_PSPTX*%
X204000000Y-98200000D03*
D11*
%TO.P,J2,2,Pin_2*%
%TO.N,/OUT_PSPRX*%
X201460000Y-98200000D03*
%TO.P,J2,3,Pin_3*%
%TO.N,/UART_GND*%
X198920000Y-98200000D03*
%TO.P,J2,4,Pin_4*%
%TO.N,/OUT_UART_VCC*%
X196380000Y-98200000D03*
%TD*%
D13*
%TO.N,/OUT_UART_VCC*%
X191900000Y-115550000D03*
X201825000Y-121525000D03*
X203575000Y-124225000D03*
%TO.N,/PSPRX*%
X177600000Y-115250000D03*
X177450000Y-119850000D03*
X161050000Y-67700000D03*
%TO.N,/PSP_UART_VCC*%
X176400000Y-116100000D03*
X197475000Y-112275000D03*
X202725000Y-114425000D03*
X161800000Y-68200000D03*
X176250000Y-119800000D03*
%TO.N,/PSPTX*%
X182900000Y-121450000D03*
X182900000Y-117600000D03*
X169900000Y-131400000D03*
%TO.N,/OUT_PSPTX*%
X209050000Y-111150000D03*
X200575000Y-120775000D03*
%TO.N,/PSP_BLUE_LUME_PB*%
X163950000Y-70100000D03*
%TO.N,/PSP_WAKE*%
X174000000Y-119800000D03*
X174000000Y-117850000D03*
X163200000Y-69400000D03*
%TO.N,/GND*%
X166200000Y-122550000D03*
X186100000Y-117750000D03*
X167600000Y-68650000D03*
X164748364Y-70048851D03*
X166950000Y-132100000D03*
X174050000Y-121900000D03*
%TO.N,/PSP_VIDEO_DETECT*%
X175100000Y-119650000D03*
X175100000Y-116850000D03*
X162550000Y-68750000D03*
%TO.N,/LUMA_Y*%
X184350000Y-118350000D03*
X167900000Y-131900000D03*
%TO.N,/RED_LUMA_PR*%
X166100000Y-132950000D03*
X186900000Y-116550000D03*
%TO.N,/PSPMICIN*%
X171400000Y-131100000D03*
X182300000Y-119750000D03*
%TO.N,/UART_GND*%
X168850000Y-131000000D03*
X181300000Y-121350000D03*
%TD*%
D14*
%TO.N,/OUT_UART_VCC*%
X200476471Y-121525000D02*
X201825000Y-121525000D01*
X203475000Y-124125000D02*
X203475000Y-123175000D01*
X196375000Y-117423529D02*
X200476471Y-121525000D01*
X191900000Y-115550000D02*
X193773529Y-117423529D01*
X193773529Y-117423529D02*
X196375000Y-117423529D01*
X203475000Y-123175000D02*
X201825000Y-121525000D01*
X203575000Y-124225000D02*
X203475000Y-124125000D01*
%TO.N,/PSPRX*%
X177450000Y-115400000D02*
X177600000Y-115250000D01*
X177450000Y-119850000D02*
X177450000Y-115400000D01*
X160800500Y-63687500D02*
X160800500Y-67450500D01*
X160800500Y-67450500D02*
X161050000Y-67700000D01*
%TO.N,/PSP_UART_VCC*%
X176400000Y-119650000D02*
X176250000Y-119800000D01*
X197525000Y-112275000D02*
X197475000Y-112275000D01*
X197475000Y-112275000D02*
X178826471Y-112275000D01*
X161720500Y-63687500D02*
X161720500Y-68120500D01*
X176400000Y-114701471D02*
X176400000Y-116100000D01*
X161720500Y-68120500D02*
X161800000Y-68200000D01*
X199675000Y-114425000D02*
X197525000Y-112275000D01*
X176400000Y-116100000D02*
X176400000Y-119650000D01*
X178826471Y-112275000D02*
X176400000Y-114701471D01*
X202725000Y-114425000D02*
X199675000Y-114425000D01*
%TO.N,/PSPTX*%
X182900000Y-121500000D02*
X172650000Y-131750000D01*
X182900000Y-121450000D02*
X182900000Y-121500000D01*
X170250000Y-131750000D02*
X169900000Y-131400000D01*
X182900000Y-117600000D02*
X182900000Y-121450000D01*
X172650000Y-131750000D02*
X170250000Y-131750000D01*
%TO.N,/OUT_PSPTX*%
X203325000Y-113225000D02*
X203325000Y-118025000D01*
X203325000Y-118025000D02*
X200575000Y-120775000D01*
X205400000Y-111150000D02*
X203325000Y-113225000D01*
X209050000Y-111150000D02*
X205400000Y-111150000D01*
%TO.N,/PSP_BLUE_LUME_PB*%
X163950000Y-70100000D02*
X163950000Y-69300000D01*
X163950000Y-69300000D02*
X164480500Y-68769500D01*
X164480500Y-68769500D02*
X164480500Y-63687500D01*
%TO.N,/PSP_WAKE*%
X163560500Y-63687500D02*
X163560500Y-69039500D01*
X163560500Y-69039500D02*
X163200000Y-69400000D01*
X174000000Y-117850000D02*
X174000000Y-119800000D01*
%TO.N,/GND*%
X166900000Y-121850000D02*
X166200000Y-122550000D01*
X186100000Y-117750000D02*
X184700000Y-119150000D01*
X164748364Y-70048851D02*
X165697214Y-69100000D01*
X173650000Y-132550000D02*
X167400000Y-132550000D01*
X165400500Y-63687500D02*
X165400500Y-69396715D01*
X174000000Y-121850000D02*
X166900000Y-121850000D01*
X167400000Y-132550000D02*
X166950000Y-132100000D01*
X184700000Y-119150000D02*
X184700000Y-121500000D01*
X165400500Y-69396715D02*
X164748364Y-70048851D01*
X165697214Y-69100000D02*
X167150000Y-69100000D01*
X184700000Y-121500000D02*
X173650000Y-132550000D01*
X174050000Y-121900000D02*
X174000000Y-121850000D01*
X167150000Y-69100000D02*
X167600000Y-68650000D01*
%TO.N,/PSP_VIDEO_DETECT*%
X175100000Y-116850000D02*
X175100000Y-119650000D01*
X162640500Y-63687500D02*
X162640500Y-68659500D01*
X162640500Y-68659500D02*
X162550000Y-68750000D01*
%TO.N,/LUMA_Y*%
X173200000Y-132150000D02*
X168150000Y-132150000D01*
X168150000Y-132150000D02*
X167900000Y-131900000D01*
X183850000Y-118850000D02*
X183850000Y-121500000D01*
X184350000Y-118350000D02*
X183850000Y-118850000D01*
X183850000Y-121500000D02*
X173200000Y-132150000D01*
%TO.N,/RED_LUMA_PR*%
X186900000Y-120250000D02*
X174200000Y-132950000D01*
X174200000Y-132950000D02*
X166100000Y-132950000D01*
X186900000Y-116550000D02*
X186900000Y-120250000D01*
%TO.N,/PSPMICIN*%
X182300000Y-119750000D02*
X182300000Y-121350000D01*
X172300000Y-131350000D02*
X171650000Y-131350000D01*
X171650000Y-131350000D02*
X171400000Y-131100000D01*
X182300000Y-121350000D02*
X172300000Y-131350000D01*
%TO.N,/UART_GND*%
X169350000Y-130500000D02*
X168850000Y-131000000D01*
X181250000Y-121350000D02*
X172100000Y-130500000D01*
X181300000Y-121350000D02*
X181250000Y-121350000D01*
X172100000Y-130500000D02*
X169350000Y-130500000D01*
%TD*%
M02*
