M48
; DRILL file {KiCad 8.0.4} date 2025-06-05T19:44:26+0100
; FORMAT={-:-/ absolute / inch / decimal}
; #@! TF.CreationDate,2025-06-05T19:44:26+01:00
; #@! TF.GenerationSoftware,Kicad,Pcbnew,8.0.4
; #@! TF.FileFunction,Plated,1,2,PTH
FMAT,2
INCH
; #@! TA.AperFunction,Plated,PTH,ViaDrill
T1C0.0118
; #@! TA.AperFunction,Plated,PTH,ComponentDrill
T2C0.0394
%
G90
G05
T1
X6.3406Y-2.6654
X6.3701Y-2.685
X6.3996Y-2.7067
X6.4252Y-2.7323
X6.4547Y-2.7598
X6.4862Y-2.7578
X6.5394Y-5.2343
X6.5433Y-4.8248
X6.5728Y-5.2008
X6.5984Y-2.7028
X6.6102Y-5.1929
X6.6476Y-5.1575
X6.689Y-5.1732
X6.748Y-5.1614
X6.8504Y-4.6398
X6.8504Y-4.7165
X6.8524Y-4.7992
X6.8937Y-4.6004
X6.8937Y-4.7106
X6.939Y-4.7165
X6.9449Y-4.5709
X6.9862Y-4.7185
X6.9921Y-4.5374
X7.1378Y-4.7776
X7.1772Y-4.7146
X7.2008Y-4.6299
X7.2008Y-4.7815
X7.2579Y-4.6594
X7.3268Y-4.6358
X7.3583Y-4.5886
X7.5551Y-4.5492
X7.7746Y-4.4203
X7.8967Y-4.7549
X7.9459Y-4.7844
X7.9813Y-4.5049
X8.0148Y-4.8907
X8.2303Y-4.376
T2
X7.7315Y-3.8661
X7.8154Y-5.1732
X7.8315Y-3.8661
X7.9154Y-5.1732
X7.9315Y-3.8661
X8.0154Y-5.1732
X8.0315Y-3.8661
X8.1154Y-5.1732
M30
